<svg width="20" height="20" viewBox="0 0 20 20" fill="none" xmlns="http://www.w3.org/2000/svg">
<path fill-rule="evenodd" clip-rule="evenodd" d="M14.7656 13.2662L19.6959 18.2168C20.113 18.6357 20.0992 19.3034 19.6657 19.7061C19.4617 19.8957 19.193 20 18.9097 20C18.6104 20 18.3311 19.8852 18.1235 19.677L13.1557 14.6888C11.7451 15.6458 10.0952 16.15 8.36391 16.15C3.75212 16.15 0 12.5275 0 8.07499C0 3.62251 3.75212 0 8.36391 0C12.9757 0 16.7278 3.62251 16.7278 8.07499C16.7278 9.98069 16.0332 11.8113 14.7656 13.2662ZM14.5459 8.07499C14.5459 4.78391 11.7727 2.10652 8.36391 2.10652C4.95507 2.10652 2.18189 4.78391 2.18189 8.07499C2.18189 11.3661 4.95507 14.0435 8.36391 14.0435C11.7727 14.0435 14.5459 11.3661 14.5459 8.07499Z" fill="black"/>
</svg>
