<?xml version="1.0" standalone="no"?>
<!DOCTYPE svg PUBLIC "-//W3C//DTD SVG 1.1//EN" "http://www.w3.org/Graphics/SVG/1.1/DTD/svg11.dtd" >
<svg xmlns="http://www.w3.org/2000/svg" xmlns:xlink="http://www.w3.org/1999/xlink" version="1.1">
<metadata></metadata>
<defs>
<font id="akzentcond_dbregular" horiz-adv-x="743" >
<font-face units-per-em="2048" ascent="1638" descent="-410" />
<missing-glyph horiz-adv-x="454" />
<glyph horiz-adv-x="0" />
<glyph unicode="&#xd;" horiz-adv-x="454" />
<glyph unicode=" "  horiz-adv-x="454" />
<glyph unicode="&#x09;" horiz-adv-x="454" />
<glyph unicode="&#xa0;" horiz-adv-x="454" />
<glyph unicode="!" horiz-adv-x="411" d="M158 6l6 240h174v-240h-180zM166 963v491l182 2l2 -176q0 -72 -4 -158q-10 -213 -10 -272q0 -98 -12 -219q-4 -35 -27 -228h-92q0 76 -27 349q-12 129 -12 211z" />
<glyph unicode="&#x22;" horiz-adv-x="602" d="M55 926v108q51 23 67.5 54.5t16.5 93.5l-2 30h-80v246h179v-284q0 -98 -41 -157t-140 -91zM356 930v108q49 31 66.5 63t17.5 91v22h-84v244h179v-282q0 -102 -40 -157.5t-139 -88.5z" />
<glyph unicode="#" horiz-adv-x="1134" d="M68 422v137h219l53 395h-219v140h239l60 422h141l-59 -422h254l59 422h141l-59 -422h170v-138h-190l-56 -397h189v-137h-207l-60 -422h-141l60 422h-254l-60 -422h-141l59 422h-198zM428 559h252l55 397h-252z" />
<glyph unicode="$" horiz-adv-x="782" d="M25 377l4 129h174l-4 -121q0 -53 4 -87t16 -62q31 -74 111 -97v537q-137 145 -178 203.5t-61.5 120t-20.5 133.5q0 154 56 230.5t206 113.5v174h121v-172q156 -31 209 -101.5t53 -226.5l-4 -123l-164 -2l2 98q0 74 -18.5 116t-77.5 81v-492q94 -104 157 -180 q55 -66 74 -96q55 -98 55 -213q0 -305 -295 -358v-172h-120v172l-31 4q-156 33 -217 135q-51 90 -51 256zM242 1153q0 -76 37 -129l57 -70v369l-60 -53q-35 -39 -34 -117zM444 147q66 31 95 68q24 37 24 115q0 68 -31.5 124t-87.5 99v-406z" />
<glyph unicode="%" horiz-adv-x="1236" d="M-12 768v475q0 102 58 167t159 65q98 0 157 -60q61 -55 62 -155v-512q0 -104 -64 -162q-63 -53 -167 -54q-102 0 -156 62q-49 61 -49 174zM127 768q0 -63 18.5 -87t57.5 -24q41 0 63 31q18 31 19 82v504q0 29 -21.5 49t-54.5 25q-31 0 -56.5 -33t-25.5 -70v-477zM162 6 l731 1458h135l-731 -1458h-135zM766 201v516q0 102 61 164q63 57 168 57q123 0 174 -113q33 -78 33 -223l-4 -186l2 -113q0 -145 -37 -217q-51 -94 -188 -94q-98 0 -153.5 55t-55.5 154zM901 219q0 -49 18.5 -75.5t49.5 -26.5h16q37 0 54.5 35.5t17.5 78.5v500 q0 29 -20.5 49.5t-53.5 24.5q-41 0 -61.5 -36t-20.5 -81v-469z" />
<glyph unicode="&#x26;" horiz-adv-x="905" d="M4 317q0 135 59 234q43 76 162 186q-25 55 -32 76q-33 72 -33 74q-31 86 -31 160q0 100 68.5 168.5t173.5 68.5q111 0 185.5 -65.5t74.5 -174.5q0 -90 -68 -192q-41 -61 -141 -156l188 -346q49 139 49 283l154 -2q0 -115 -20 -197q-18 -90 -66 -182l-18 -39 q31 -39 61 -55q2 -2 27.5 -7.5t60.5 -9.5v-149h-39q-55 0 -110.5 25.5t-106.5 74.5q-61 -61 -132 -84.5t-161 -23.5q-137 0 -221 98t-84 235zM172 313q0 -84 46 -136t130 -52q41 0 83 21.5t79 58.5l-113 188q-45 84 -96 195q-70 -57 -99.5 -118.5t-29.5 -156.5zM285 1036 q0 -35 19.5 -95t43.5 -107l88 98q47 64 47 123q0 45 -29.5 73.5t-78.5 28.5q-43 0 -66.5 -38t-23.5 -83z" />
<glyph unicode="'" horiz-adv-x="280" d="M68 936v240q0 121 36.5 183t145.5 103v-104q-45 -12 -64 -66q-8 -27 -12 -51t-4 -59h78v-246h-180z" />
<glyph unicode="(" horiz-adv-x="577" d="M133 580q0 244 100 489q84 205 252 434l88 -86q-139 -205 -195 -384t-56 -427q0 -129 12 -239.5t41 -219.5q61 -238 198 -415l-84 -76q-156 193 -256 439.5t-100 484.5z" />
<glyph unicode=")" horiz-adv-x="577" d="M-8 -264q129 199 192 381q31 94 45.5 190t14.5 223q0 125 -8.5 229.5t-26.5 188.5q-43 221 -160 387l-22 31l-35 55l82 78q164 -209 256 -428q102 -248 102 -487q0 -266 -94 -494q-76 -182 -258 -434z" />
<glyph unicode="*" horiz-adv-x="700" d="M-8 1159l49 133l235 -84v246h138v-246l235 74l35 -129l-221 -68l137 -208l-113 -74l-143 198l-154 -196l-108 82l80 94q18 20 39 49q14 18 32 51z" />
<glyph unicode="+" horiz-adv-x="989" d="M25 524v166h372v375h166v-375h373v-166h-373v-374h-166v374h-372z" />
<glyph unicode="," horiz-adv-x="331" d="M78 6v244h180v-279q0 -106 -40 -165.5t-140 -84.5v105q47 25 64.5 53.5t17.5 83.5v43h-82z" />
<glyph unicode="-" horiz-adv-x="536" d="M20 485v160h480v-160h-480z" />
<glyph unicode="." horiz-adv-x="331" d="M80 4v229h178v-229h-178z" />
<glyph unicode="/" horiz-adv-x="577" d="M-16 4l419 1454h168l-415 -1454h-172z" />
<glyph unicode="0" d="M29 426l2 621q0 209 57 305q73 123 272 123q207 0 279 -148q45 -100 45 -336l2 -309l-4 -326q0 -190 -68 -276q-78 -100 -264 -100q-156 0 -231 75q-90 94 -90 371zM207 555l4 -217q0 -102 22 -141q31 -60 125 -60q90 0 125 68q23 49 23 149l2 228v299l-2 147v43 q0 111 -19 164q-31 84 -125 84q-92 0 -131 -88q-25 -59 -24 -172l2 -121l-2 -215v-168z" />
<glyph unicode="1" d="M47 1133v149l68 -4q96 0 143 41t72 137h147v-1452h-186v1137z" />
<glyph unicode="2" d="M41 6v176l375 623q84 139 84 297q0 94 -23 139q-31 66 -117 66q-74 0 -108 -74q-20 -55 -21 -141v-154h-165v190q0 166 67 252q78 96 242 97q150 0 229 -113q68 -98 68 -260q0 -211 -115 -402l-326 -540h457v-156h-647z" />
<glyph unicode="3" d="M37 440h172l-2 -125q0 -168 160 -168q92 0 122 89q8 25 12.5 63.5t4.5 103.5q0 145 -12 187q-31 98 -238 98l-2 164l49 -2q190 0 191 197v71q0 49 -4.5 80t-16.5 57q-29 63 -111 64q-80 0 -114 -74q-20 -55 -21 -147v-47l-161 2l-3 43q0 184 56 276q70 113 246 113 q172 0 247 -119q29 -47 43.5 -114.5t14.5 -166.5q0 -158 -41 -222t-125 -89q121 -37 162 -129q23 -57 22 -215q0 -217 -53 -311q-74 -135 -273 -135q-215 0 -282 131q-43 84 -43 325z" />
<glyph unicode="4" d="M12 324v155v51l303 924h248v-979h129v-153h-129v-318h-178v320h-373zM143 473h246l12 813z" />
<glyph unicode="5" d="M27 340l4 92h172v-65q0 -98 20 -146q31 -70 119 -69q94 0 131 55q27 47 27 147v351q0 55 -41 96t-97 41q-72 0 -99 -47t-27 -123h-162l24 790h570v-157h-400l-14 -353l86 33q47 18 86 19q133 0 199 -93q53 -78 53 -221v-344q0 -172 -81 -265t-253 -93q-166 0 -241.5 90 t-75.5 262z" />
<glyph unicode="6" d="M41 328v796q0 166 70 254q78 98 241 99q162 0 234.5 -81t72.5 -247v-31h-165q0 104 -19 142q-29 59 -123 59q-82 0 -119 -72q-25 -49 -24 -145l2 -256q25 45 82 76.5t115 31.5q133 0 204 -98q59 -84 60 -227v-328q0 -147 -81 -233t-229 -86q-170 0 -245.5 86t-75.5 260z M207 352q0 -131 34.5 -172t104.5 -41q92 0 129 70q25 49 25 151v207q0 115 -21 164q-31 78 -131 78q-78 0 -115 -72q-27 -57 -26 -145v-240z" />
<glyph unicode="7" d="M39 1288v166h641l-2 -133q-152 -328 -217 -635q-31 -150 -47.5 -318.5t-16.5 -361.5h-198q0 113 8 221.5t26.5 212t43 207t65.5 223.5q29 92 65.5 191.5t90.5 226.5h-459z" />
<glyph unicode="8" d="M37 418q0 143 20 207q33 104 140 143q-84 51 -115 113q-25 61 -25 178q0 201 56 297q71 121 264 121q188 0 256 -117q49 -86 49 -293q0 -119 -20 -172q-31 -80 -121 -119q96 -49 127 -133q18 -53 18 -190q0 -233 -45 -326q-68 -145 -274 -145q-199 0 -275 124 q-55 92 -55 312zM215 379q0 -111 21 -160q30 -78 118 -78q98 0 135 82q23 55 23 170v53q0 106 -20 154q-31 78 -121 78q-96 0 -133 -78q-23 -51 -23 -162v-59zM229 1106q0 -125 15 -166q29 -88 125 -88q84 0 120 70q25 49 25 149v109q0 57 -35 107t-90 50q-98 0 -135 -69 q-25 -49 -25 -162z" />
<glyph unicode="9" d="M31 891v37q0 150 6 238.5t22 131.5q62 179 295 179q186 0 258 -103q61 -86 62 -278l-2 -654q0 -272 -84 -370q-76 -88 -219 -88q-197 0 -267 106q-53 84 -53 295l164 -2v-68q0 -88 28.5 -128t116.5 -40q68 0 105 49.5t37 122.5v326q-51 -51 -103 -76q-55 -20 -121 -20 q-135 0 -196 106q-49 86 -49 236zM211 924q0 -106 20 -154q31 -76 123 -76q90 0 127 74q25 53 25 158v164q0 109 -19 155q-31 78 -125 78q-92 0 -129 -90q-23 -57 -22 -172v-137z" />
<glyph unicode=":" horiz-adv-x="411" d="M166 4v229h180v-229h-180zM168 758v231h180v-231h-180z" />
<glyph unicode=";" horiz-adv-x="411" d="M168 4v227h180v-241q0 -115 -33 -172q-39 -70 -145 -97v103q47 20 66 59q6 18 10 43t4 60l-2 18h-80zM168 756v233h174v-233h-174z" />
<glyph unicode="&#x3c;" horiz-adv-x="1241" d="M94 455v127l1041 471v-140l-871 -395l871 -395v-139z" />
<glyph unicode="=" horiz-adv-x="989" d="M-49 334v164h1044v-164h-1044zM-49 711v163h1044v-163h-1044z" />
<glyph unicode="&#x3e;" horiz-adv-x="1241" d="M106 -16v139l871 395l-871 395v140l1041 -471v-127z" />
<glyph unicode="?" horiz-adv-x="782" d="M92 979v190q0 160 77 243t237 83t239.5 -92t79.5 -256q0 -80 -13.5 -142.5t-43.5 -130.5l-113 -194q-59 -106 -59 -221l4 -68h-138l-4 80q0 158 80 309l37 70l31 76q23 61 31 118l8 130q0 70 -33 112.5t-98 42.5q-98 0 -133 -53q-27 -43 -27 -148v-151zM336 8v242h184 v-242h-184z" />
<glyph unicode="@" horiz-adv-x="2078" d="M301 739q0 317 226.5 543.5t545.5 226.5q283 0 490 -174q215 -184 215 -465q0 -207 -140 -391q-152 -201 -350 -200q-57 0 -94 34.5t-37 94.5q-51 -55 -116.5 -92t-133.5 -37q-129 0 -217 96q-84 100 -84 231q0 109 31 203t96 180q135 182 346 182q78 0 138.5 -40.5 t97.5 -118.5l41 127h141l-149 -504l-27 -103l-10 -61q0 -31 5 -44t38 -15q123 0 213 163q78 143 78 279q0 240 -164 384t-408 144q-268 0 -445 -191.5t-177 -463.5t182 -455.5t457 -183.5q139 0 273 61.5t222 172.5h137q-98 -166 -269 -263.5t-370 -97.5q-164 0 -301 55.5 t-254 169.5q-227 225 -227 553zM774 625q0 -84 45 -141.5t127 -57.5q123 0 219 145q86 133 86 265q0 70 -48 129t-120 59q-127 0 -225 -137q-84 -125 -84 -262z" />
<glyph unicode="A" horiz-adv-x="782" d="M-39 6l324 1452h176l307 -1454h-186l-56 277h-327l-52 -275h-186zM229 440h273l-133 748z" />
<glyph unicode="B" horiz-adv-x="866" d="M74 2v1456h375q172 0 246.5 -88t74.5 -262q0 -127 -40 -197.5t-159 -107.5q133 -25 187 -133q20 -41 30.5 -98.5t10.5 -139.5q0 -211 -80 -315q-90 -115 -299 -115h-346zM252 156h145q135 0 187 77q41 63 41 205q0 156 -51.5 217.5t-198.5 61.5l-123 -4v-557zM254 864 h123q221 0 221 223q0 104 -41 155.5t-143 51.5h-160v-430z" />
<glyph unicode="C" horiz-adv-x="825" d="M57 502l4 227l7 199l6 200q0 348 346 349q223 0 289 -142q36 -78 36 -325v-13h-167l2 50q0 131 -17 178q-31 100 -129 100h-37l-26 -8q-49 -12 -74 -48t-41 -126l-12 -152l-2 -170l4 -258l4 -190q0 -111 31 -166q41 -74 145 -74q98 0 137 103q25 68 25 200l-2 41v41l73 2 q59 0 93 -10l2 -129q0 -199 -62 -291q-73 -110 -265 -110h-3q-219 0 -305 161q-61 117 -62 361z" />
<glyph unicode="D" horiz-adv-x="866" d="M74 0v1450h372q209 0 289 -158q57 -115 58 -344l-7 -297l-6 -299q0 -154 -76.5 -253t-238.5 -99h-391zM250 162l158 -6q51 0 87.5 15t65.5 51t41 114q10 86 10 188l-2 62v59l2 164l-6 233q0 51 -7 86t-24 72q-25 49 -62.5 66.5t-104.5 17.5h-158v-1122z" />
<glyph unicode="E" horiz-adv-x="782" d="M78 8v1452h651v-168h-461v-422h400v-163h-404v-535h477v-164h-663z" />
<glyph unicode="F" d="M78 8v1452h651v-162h-463v-432h400v-161h-402v-697h-186z" />
<glyph unicode="G" horiz-adv-x="866" d="M57 479l6 529q0 244 60 342q80 133 311 133q203 0 273 -94q59 -82 59 -287v-80h-170l2 106q0 106 -37 155.5t-145 49.5q-78 0 -115 -48t-49 -126l-12 -123l-2 -121v-32l4 -299l4 -219q0 -109 28 -160q39 -76 134 -76q123 0 172 100q34 72 34 202v7l-2 166h-217v154h379 v-758h-147v104q-51 -53 -121 -90q-66 -30 -141 -30h-5q-186 0 -258 166q-45 109 -45 329z" />
<glyph unicode="H" horiz-adv-x="866" d="M72 2v1452h186v-612h344v612h176v-1454h-176v684h-344v-682h-186z" />
<glyph unicode="I" horiz-adv-x="370" d="M100 0v1458l80 -2q59 0 99 8v-1464h-179z" />
<glyph unicode="J" horiz-adv-x="782" d="M4 350v94h176l-2 -92q0 -125 41 -172q35 -41 103 -41q104 0 145 49q37 49 37 162v1106h178v-1075q0 -201 -76 -295q-88 -106 -280 -106q-174 0 -252 102q-70 92 -70 268z" />
<glyph unicode="K" horiz-adv-x="825" d="M76 2v1452h180v-637l377 637h205l-344 -545q35 -115 48 -155.5t54 -145.5l119 -303l112 -303l-194 -2q-59 174 -80 242q-63 193 -78 231q-33 98 -104 270l-115 -178v-563h-180z" />
<glyph unicode="L" horiz-adv-x="700" d="M82 0v1454h182v-1292h432v-162h-614z" />
<glyph unicode="M" horiz-adv-x="1114" d="M61 0v1454h279l127 -803l47 -266q27 -174 27 -272q10 104 23.5 211.5t33.5 236.5l74 449l73 444h277v-1454h-164l23 1335l-222 -1337h-231l-213 1311l21 -1309h-175z" />
<glyph unicode="N" horiz-adv-x="866" d="M74 2v1452h260l280 -1264l-14 1264h172v-1458l-264 -2q-41 207 -88 407l-96 426l-91 418l13 -1243h-172z" />
<glyph unicode="O" horiz-adv-x="866" d="M57 477l2 246l2 246q0 256 56 360q81 150 317 150q215 0 291 -140q53 -100 53 -335l-2 -412v-47v-39v-33v-27q0 -94 -10 -133q-18 -156 -90 -233q-86 -98 -258 -98q-229 0 -307 141q-53 100 -54 354zM233 457q0 -150 27 -217q43 -109 158 -109q27 0 51 8q29 6 49 27 q39 31 64 162q10 61 16 151t6 201l-2 190v74l2 74q0 135 -26 203q-43 110 -152 110h-2q-115 0 -164 -149q-27 -96 -27 -248l3 -381l-3 -47v-49z" />
<glyph unicode="P" horiz-adv-x="825" d="M74 0v1452h352q217 0 297 -129q57 -98 57 -332q0 -283 -131 -356q-80 -43 -393 -43v-592h-182zM254 748h147q131 0 174 63q31 47 31 190q0 180 -50 232.5t-228 52.5h-74v-538z" />
<glyph unicode="Q" horiz-adv-x="866" d="M61 705l5 229l4 172q0 184 90 279.5t280 95.5q180 0 259 -90.5t79 -268.5l2 -147q0 -23 2 -72t2 -74v-215q0 -186 -14 -288q-25 -195 -94 -256l-53 -39l182 -156l-55 -49l-52 -57l-223 219l-80 -2q-178 0 -260 108q-67 91 -67 274v5zM240 451q0 -139 26 -207 q43 -111 160 -111q51 0 95 30t63 99q6 35 10 71t4 77l4 266l6 203l2 131q0 133 -24 207q-41 116 -148 116h-2q-121 0 -168 -135q-24 -75 -24 -230v-12l-2 -249z" />
<glyph unicode="R" horiz-adv-x="866" d="M76 0v1454h395q162 0 242 -117q65 -99 65 -267v-5q0 -84 -6 -142.5t-22 -103.5q-43 -133 -168 -164l256 -653h-187l-243 635h-154v-637h-178zM252 776h72q166 0 219 41q61 49 61 213q0 174 -59 227q-45 39 -185 39l-53 -2h-55v-518z" />
<glyph unicode="S" horiz-adv-x="782" d="M25 399l2 111h174v-115q0 -123 30 -178q41 -76 154 -76q84 0 130 50.5t46 138.5q0 115 -127 248l-235 239q-129 154 -129 318q0 168 79.5 259t247.5 91q207 0 273 -127q43 -84 43 -316v-10l-168 2l2 94q0 94 -27 140q-39 57 -127 57q-74 0 -112 -45q-35 -45 -35 -119 q0 -119 127 -258l237 -246q129 -154 129 -305q0 -370 -368 -370h-2q-188 0 -273 116q-71 101 -71 296v5z" />
<glyph unicode="T" d="M-16 1292v162h743v-162l-278 2l-3 -483l-8 -807h-180v1288h-274z" />
<glyph unicode="U" horiz-adv-x="866" d="M66 391v1071h180v-1093q0 -119 35 -168q45 -63 153 -64q82 0 123 62q33 55 33 141v1120h180v-1155q0 -162 -93 -242.5t-263 -80.5q-203 0 -283 106q-65 89 -65 297v6z" />
<glyph unicode="V" d="M-37 1456h187l122 -786l72 -471l62 422q20 141 32.5 222t32.5 197l70 416h178q0 -61 -14.5 -142t-45.5 -218l-43 -215l-98 -549l-63 -330h-228z" />
<glyph unicode="W" horiz-adv-x="1236" d="M-61 1456h176q8 -57 23.5 -163.5t39.5 -266.5l64 -414l49 -422l24 132l19 124l67 506q33 252 37 280t35 226h234l161 -1243l60 438l55 379l68 428h170q-18 -152 -56 -354l-63 -377l-58 -362l-63 -363h-238l-59 410l-57 430l-43 393q0 -100 -15 -213q-23 -137 -30 -203 l-58 -401q-23 -154 -33 -223.5t-32 -192.5h-240z" />
<glyph unicode="X" horiz-adv-x="782" d="M-39 8l272 778q-49 150 -122 340l-134 338h207l166 -544l84 270l76 274h192q-39 -139 -112 -325l-123 -322q35 -111 111 -309l116 -307l66 -193h-193q-53 145 -109.5 311t-105.5 326q-31 -135 -92 -319l-110 -318h-189z" />
<glyph unicode="Y" horiz-adv-x="782" d="M-39 1460h197l202 -719l215 717l193 2l-117 -327l-119 -326l-43 -121q-31 -90 -36 -137l-4 -115v-47l6 -381h-193l2 424v43l2 49v27l-4 24q-10 63 -45 150l-55 145z" />
<glyph unicode="Z" d="M14 4v150l486 1146h-412v164h617v-135l-488 -1167h485v-158h-688z" />
<glyph unicode="[" horiz-adv-x="616" d="M188 -373v1841h412v-129h-233v-1581h225v-131h-404z" />
<glyph unicode="\" horiz-adv-x="569" d="M-35 1509h135l504 -1548h-137z" />
<glyph unicode="]" horiz-adv-x="616" d="M12 -242h230v1581h-226v131h406l2 -1843h-326q-51 0 -86 8v123z" />
<glyph unicode="^" horiz-adv-x="0" d="M-266 1638l215 226h131l201 -222h-181l-108 125l-117 -129h-141z" />
<glyph unicode="_" horiz-adv-x="1138" d="M0 -154h1139v-102h-1139v102z" />
<glyph unicode="`" horiz-adv-x="0" d="M-219 1407h217l113 -221h-136z" />
<glyph unicode="a" horiz-adv-x="700" d="M14 221q0 156 58 228q29 35 188 143l88 67l84 72v33q0 78 -22 115q-29 47 -103 47q-68 0 -92 -58q-16 -39 -16 -118v-50l-146 2l-4 80q0 133 64.5 203t197.5 70q152 0 219.5 -65.5t67.5 -219.5v-614q0 -72 41 -152h-195l2 117q-35 -59 -88 -97t-118 -38q-96 0 -161 68.5 t-65 166.5zM178 256q0 -59 25.5 -105.5t83.5 -46.5q76 0 116 74q33 66 33 148v252q-150 -106 -172 -129q-86 -84 -86 -193z" />
<glyph unicode="b" d="M63 8v1450h173l2 -495q31 41 88 68.5t108 27.5q133 0 193 -105q43 -80 43 -229v-457q0 -125 -62.5 -202.5t-183.5 -77.5q-29 0 -55.5 6t-57.5 22q-51 29 -88 80v-88h-160zM229 344q0 -90 25 -149q35 -78 119 -78q61 0 96 43t35 159v398q0 94 -19 143q-31 78 -108 78 q-90 0 -127 -94q-20 -61 -21 -174v-326z" />
<glyph unicode="c" horiz-adv-x="700" d="M47 397l2 183q0 219 37 315q61 160 248 160q160 0 231 -86q59 -76 60 -246l-4 -61h-152l2 38q0 104 -16 148q-29 82 -109 82q-74 0 -104 -66q-23 -51 -23 -133v-418q0 -88 21 -131q33 -63 108 -63q82 0 109 102q12 49 12 170l156 -2l2 -37q0 -178 -54 -260 q-70 -106 -235 -106q-174 0 -242 125q-49 92 -49 286z" />
<glyph unicode="d" d="M43 412l2 202q0 201 39 293q61 145 233 146q35 0 91 -31q35 -20 77 -61v501h168v-1454h-159l-2 92q-70 -70 -114 -92t-93 -22q-147 0 -205 149q-37 98 -37 277zM209 365q0 -106 20 -162q31 -86 121 -86q86 0 123 116q20 78 21 193v25l-2 73v76v23q0 164 -31 235.5 t-99 71.5q-104 0 -135 -96q-16 -53 -16 -183z" />
<glyph unicode="e" horiz-adv-x="700" d="M49 270v471q0 158 72.5 236t230.5 78q129 0 203 -75t74 -206v-285h-418l2 -8l-4 -127q0 -102 20 -155q31 -84 117 -84q80 0 111 71q22 49 22 133v7h148v-35q0 -307 -293 -307q-133 0 -209 75.5t-76 210.5zM213 618h264v89q0 92 -18 145q-29 78 -111 78t-115 -76 q-20 -55 -20 -149v-87z" />
<glyph unicode="f" horiz-adv-x="454" d="M-12 918v129h121v67q0 213 59 287q52 65 165 65h3l53 -2q27 0 53 -8v-143q-29 12 -59 12q-63 0 -88 -47q-20 -47 -21 -121l2 -110h164v-129h-168v-912h-163v912h-121z" />
<glyph unicode="g" d="M43 395l2 236q0 244 74 336q66 80 196 80q63 0 105.5 -24t89.5 -81v96h152v-1089q0 -143 -81 -217t-229 -74q-137 0 -217 65.5t-80 196.5h152q0 -66 37 -100q37 -31 110 -31q84 0 121 64q25 47 25 143v67l2 50q-86 -111 -221 -111q-143 0 -201 133q-37 86 -37 260z M211 352q0 -102 20 -151q31 -80 121 -80q92 0 129 90q23 61 23 172v289q0 143 -41 202q-37 59 -111 60q-86 0 -121 -98q-18 -59 -18 -172z" />
<glyph unicode="h" d="M61 0v1454h172v-500q23 23 48.5 43.5t50.5 34.5q43 25 112 25q119 0 177 -90q45 -78 45 -203v-764h-170v774q0 72 -31 113t-105 41q-76 0 -108 -84q-20 -61 -21 -152v-692h-170z" />
<glyph unicode="i" horiz-adv-x="331" d="M84 -2v1036h166v-1036h-166zM88 1219v213h162v-213h-162z" />
<glyph unicode="j" horiz-adv-x="331" d="M-125 -199h47q86 0 111.5 31t25.5 117v1087h166v-1104q0 -178 -92 -233q-61 -37 -258 -37v139zM61 1217v213h166v-213h-166z" />
<glyph unicode="k" horiz-adv-x="700" d="M63 2v1464h164v-903l312 481h188l-283 -399l269 -643h-181l-196 483l-109 -145v-338h-164z" />
<glyph unicode="l" horiz-adv-x="331" d="M80 -2v1460h172v-1460h-172z" />
<glyph unicode="m" horiz-adv-x="1153" d="M41 -2l10 1034h152l2 -104q53 72 105 101.5t145 29.5q53 0 100 -35l82 -76q51 63 95 87t120 24q106 0 168 -88q53 -78 53 -193l-10 -784h-162l-2 780q0 70 -27 109q-33 45 -102 45q-82 0 -113 -92q-8 -27 -12 -64t-4 -98v-678h-166l-2 782q0 66 -30.5 109t-94.5 43 q-74 0 -108 -66q-8 -14 -15 -39q-12 -43 -12 -92l-6 -735h-166z" />
<glyph unicode="n" d="M63 -2v1036h160v-98l74 70q63 47 154 47q104 0 155 -70t51 -174v-811h-168v727q0 84 -18 131q-29 68 -104 68q-57 0 -95.5 -50.5t-38.5 -115.5v-760h-170z" />
<glyph unicode="o" horiz-adv-x="700" d="M47 365l6 274q0 256 76 340q68 74 211 74t213 -70q78 -82 78 -328v-96l4 -172q0 -203 -53 -289q-67 -116 -255 -116h-3q-164 0 -228 114q-49 86 -49 269zM217 305q0 -86 16 -125q25 -67 95 -67h2q76 0 106 71q18 47 19 140l6 405q0 90 -19 133q-29 63 -108 64 q-51 0 -82 -45q-35 -57 -35 -170v-406z" />
<glyph unicode="p" d="M63 -338v1378h170v-102q47 63 89 86q49 31 120 31q143 0 199 -133q37 -92 37 -273l-2 -59v-55l2 -150q0 -178 -39 -268q-55 -135 -211 -135q-57 0 -104 26q-29 16 -84 70v-416h-177zM238 379q0 -109 22 -170q35 -103 121 -103q74 0 104 70q20 51 21 131l4 379 q0 100 -18 156q-31 88 -115 88q-68 0 -102.5 -64.5t-34.5 -216.5z" />
<glyph unicode="q" d="M47 401v234q0 186 35 274q55 145 213 146q55 0 107.5 -31t95.5 -84v102h149v-1378h-162v436q-55 -61 -82 -82q-48 -36 -107 -36h-3q-152 0 -209 143q-37 92 -37 276zM213 416q0 -125 16 -185q31 -118 115 -118q90 0 127 106q23 72 23 187l-2 184v45q0 125 -21 188 q-35 104 -125 105q-80 0 -113 -84q-20 -61 -20 -158l2 -111l-2 -69v-70v-20z" />
<glyph unicode="r" horiz-adv-x="493" d="M74 2v1034h162v-188q45 111 102 158q66 55 178 55v-170q-143 0 -205.5 -62.5t-62.5 -214.5v-612h-174z" />
<glyph unicode="s" horiz-adv-x="616" d="M10 362h160l-2 -53q0 -90 20 -129q33 -57 115 -57q51 0 82 37t31 94q0 90 -190.5 242.5t-190.5 310.5q0 113 73.5 182.5t188.5 69.5q158 0 217 -84q49 -72 49 -238h-145l-27 150q-23 39 -86 39q-45 0 -77.5 -30t-32.5 -77q0 -84 194.5 -238.5t194.5 -310.5 q0 -131 -75 -208.5t-210 -77.5q-184 0 -246 104q-43 74 -43 274z" />
<glyph unicode="t" horiz-adv-x="454" d="M-10 913v129h131v273h164v-275h151v-129h-153l-2 -692q0 -96 108 -96l43 4v-133l-61 -6h-56q-111 0 -155.5 57t-44.5 172v696h-125z" />
<glyph unicode="u" d="M61 260v776h170l-2 -792q0 -49 37 -97q37 -41 90 -41q68 0 109 68q29 53 29 135v727h165v-1034h-157v115q-35 -66 -86 -100.5t-125 -34.5q-121 0 -180 79q-49 68 -50 199z" />
<glyph unicode="v" horiz-adv-x="616" d="M-31 1044h183l137 -839l155 839h179l-244 -1038h-182z" />
<glyph unicode="w" horiz-adv-x="1030" d="M-51 1044h180q59 -395 107 -876q45 406 133 876h223l72 -434l59 -434q16 178 57 434l66 434h174l-201 -1038h-203l-49 291l-45 291q-10 66 -18 135.5t-17 159.5l-71 -439q-23 -145 -39 -231q-23 -131 -39 -207h-203z" />
<glyph unicode="x" horiz-adv-x="659" d="M-33 6l246 555l-209 481h191l112 -331l117 331h186l-213 -479l246 -557h-184l-156 400l-156 -400h-180z" />
<glyph unicode="y" horiz-adv-x="659" d="M-20 1053h180l170 -832l131 832l180 -2l-113 -535l-61 -301q-31 -139 -35 -158q-16 -66 -37 -139q-31 -127 -78 -174q-57 -63 -176 -63l-110 -5h-21v144l72 -2q78 0 116 28.5t38 106.5l-3 35l-14 63z" />
<glyph unicode="z" horiz-adv-x="577" d="M-8 6v135l393 758h-344v141h520v-137l-395 -762h385v-135h-559z" />
<glyph unicode="{" horiz-adv-x="684" d="M86 479v123q111 0 147 137q16 70 17 230l-2 88q0 195 22 268q43 154 191 154h137v-133h-90q-55 0 -74.5 -50.5t-19.5 -117.5v-232l-2 -117q0 -90 -49.5 -176t-129.5 -110q111 -37 154 -170q27 -94 27 -242l-2 -178q0 -98 10 -135q18 -86 86 -86h90v-133h-137 q-96 0 -152.5 80.5t-56.5 183.5v350q0 98 -35 170q-43 96 -131 96z" />
<glyph unicode="|" horiz-adv-x="532" d="M193 -39v1548h149v-1548h-149z" />
<glyph unicode="}" horiz-adv-x="684" d="M86 -268h90q59 0 84 84q10 47 10 137l-2 176q0 156 27 242q39 131 156 168q-78 23 -129.5 113.5t-51.5 174.5v351q0 70 -14 106q-23 61 -80 62h-90v133h137q129 0 180 -131q33 -92 33 -261l-2 -63v-55q0 -168 17 -228q35 -139 147 -139v-123q-84 0 -129 -96 q-37 -78 -37 -170v-350q0 -102 -51 -178q-59 -86 -158 -86h-137v133z" />
<glyph unicode="~" horiz-adv-x="0" d="M-246 1647q12 88 45 129q41 57 119 57q43 0 117 -28.5t110 -28.5q37 0 52 22l16 37h70q-8 -82 -43 -129q-41 -55 -119 -55q-35 0 -82 18q-104 43 -131 43q-61 0 -82 -63z" />
<glyph horiz-adv-x="1024" d="M-18 272v111h376l154 279h-530v110h593l183 330l98 -55l-151 -275h329v-110h-391l-156 -279h547v-111h-608l-180 -321l-99 55l150 266h-315z" />
<glyph horiz-adv-x="1329" d="M-16 535q0 113 84 194q45 41 93 61.5t107 20.5q117 0 256 -104q27 -18 127 -113l125 111q70 53 132.5 79.5t123.5 26.5q115 0 200 -81t85 -195q0 -111 -81 -198t-192 -87q-119 0 -217 65q-31 18 -176 146l-176 -146q-100 -66 -217 -65q-111 0 -192.5 85t-81.5 200z M88 518q0 -74 55.5 -123t132.5 -49q104 0 209 86l103 96q-23 18 -82 66q-45 37 -66 49q-98 64 -170 64q-74 0 -128 -56.5t-54 -132.5zM717 532l137 -124q84 -60 174 -60q74 0 130 50.5t56 123.5q0 76 -53 129q-51 57 -125 58q-90 0 -211 -88q-33 -23 -108 -89z" />
<glyph horiz-adv-x="1140" d="M-43 0l641 1380l567 -1380h-1208zM90 98h825l-389 940z" />
<glyph horiz-adv-x="921" d="M-8 756l389 739h121l389 -739l-389 -756h-121zM111 756l329 -647l330 647l-330 630z" />
<glyph unicode="&#xa1;" horiz-adv-x="411" d="M72 8v455q0 104 3 148t13 139l37 307h92q0 -78 25 -359q12 -135 12 -217v-473h-182zM80 1212v244h176v-244h-176z" />
<glyph unicode="&#xa2;" horiz-adv-x="700" d="M45 584q0 201 39 305q61 166 221 166v239l86 2v-243q133 -12 189 -107q45 -80 45 -223l-4 -61h-152l2 43q0 90 -8 122q-18 74 -72 95v-795q53 25 72 117q6 35 6 147l156 -2l2 -35q0 -160 -41 -239q-55 -109 -195 -127v-152h-86v150q-125 0 -184 77q-74 92 -74 332z M219 313q0 -96 21.5 -134t64.5 -54v799q-49 -14 -69 -70q-16 -53 -17 -123v-418z" />
<glyph unicode="&#xa3;" horiz-adv-x="905" d="M-14 162q0 84 55 131q55 43 147 43q27 0 56 -14q16 -6 31.5 -14.5t31.5 -20.5v69q0 66 -11 123.5t-40 153.5h-211v158h158l-43 122q-31 102 -31 211q0 170 86 267.5t262 97.5q172 0 252 -80q88 -92 88 -397h-182l2 86q0 109 -23 159q-35 84 -122 84q-72 0 -127 -57 q-49 -55 -50 -131q0 -197 88 -367h277v-153h-234l33 -125q12 -59 13 -123q0 -23 -2.5 -46.5t-8.5 -55t-8 -45t-8 -39.5l59 -35q25 -12 60 -12q74 0 104 71q20 55 21 137l-7 123h166v-121q0 -225 -71 -309q-61 -74 -185 -73q-51 0 -88 13t-151 83q-53 -45 -99.5 -67.5 t-103.5 -22.5q-76 0 -130 49t-54 127zM119 172q0 -14 20 -29q14 -6 41 -10q16 0 40 13.5t38 33.5q-45 35 -88 35q-12 0 -35 -12q-12 -10 -16 -31z" />
<glyph unicode="&#xa7;" horiz-adv-x="825" d="M10 670q0 90 62 176l75 92q-75 98 -75 223q0 322 325 322q170 0 249 -73t79 -247v-65l-170 -2l2 30q0 98 -27 146q-39 63 -129 63q-76 0 -118 -45q-39 -45 -39 -121q0 -106 135 -174l254 -112q139 -84 139 -234q0 -76 -41 -149q-33 -61 -94 -129q47 -47 68.5 -98.5 t21.5 -120.5q0 -365 -356 -365q-346 0 -346 356v68h184l-2 -64q0 -98 33 -143q41 -55 135 -55q170 0 170 176q0 125 -137 199l-258 116q-139 80 -140 230zM154 727q0 -61 31.5 -96t154.5 -94l129 -60l82 -31q74 68 74 158q0 66 -62 113q-20 16 -121 61l-213 96 q-35 -35 -55 -69.5t-20 -77.5z" />
<glyph unicode="&#xa8;" horiz-adv-x="0" d="M-231 1188v213h161v-213h-161zM92 1190v211h162v-211h-162z" />
<glyph unicode="&#xa9;" horiz-adv-x="1472" d="M31 662q0 287 202.5 490.5t489.5 203.5q283 0 487.5 -203t204.5 -491q0 -283 -202.5 -488t-489.5 -205q-283 0 -487.5 203t-204.5 490zM111 662q0 -252 180 -432.5t432 -180.5t432 180.5t180 432.5t-180 432t-432 180t-432 -179.5t-180 -432.5zM348 645 q0 160 106.5 279.5t268.5 119.5q39 0 107.5 -19t101.5 -19q43 0 49 34h39l8 -258h-41q-12 88 -81.5 148.5t-160.5 60.5q-121 0 -200 -112q-68 -98 -68 -232q0 -141 66 -221q74 -92 211 -92q82 0 132 23.5t124 84.5l22 -34q-70 -72 -133 -109q-37 -20 -77 -30.5t-91 -10.5 q-172 0 -277.5 105.5t-105.5 281.5z" />
<glyph unicode="&#xab;" horiz-adv-x="700" d="M16 498v172l297 331v-243l-161 -174l157 -168v-240zM354 504v168l295 332v-244l-153 -170l149 -168v-244z" />
<glyph unicode="&#xac;" horiz-adv-x="1329" d="M-35 467v111h1333v-578h-110v467h-1223z" />
<glyph unicode="&#xad;" horiz-adv-x="536" d="M20 485v160h480v-160h-480z" />
<glyph unicode="&#xae;" horiz-adv-x="1472" d="M29 651q0 291 200.5 493t491.5 202q283 0 487.5 -203t204.5 -492q0 -283 -202.5 -487.5t-489.5 -204.5q-283 0 -487.5 203t-204.5 489zM109 651q0 -250 178 -430t434 -180q250 0 431 179t181 431t-180 432q-90 90 -196.5 135.5t-237.5 45.5q-250 0 -430 -178.5 t-180 -434.5zM389 303v37q51 0 72.5 11t25.5 40v578q0 37 -13 49t-46 12h-29v35h342q121 0 185 -35q92 -47 92 -151q0 -84 -59.5 -143.5t-145.5 -59.5l242 -309q12 -10 32 -21l39 -6v-37h-190l-266 354h-54v-260q0 -31 28 -44t67 -13v-37h-322zM614 983l2 -278 q147 0 207 40.5t60 120.5q0 78 -37 113q-35 29 -119 41l-70 4q-10 0 -28 -12q-12 -12 -15 -29z" />
<glyph unicode="&#xb0;" horiz-adv-x="454" d="M-12 1071q0 123 88 212t213 89q123 0 212 -88t89 -213q0 -123 -91 -211t-210 -88q-121 0 -211 87t-90 212zM68 1071q0 -90 63 -156q68 -63 158 -63t155.5 62.5t65.5 156.5q0 90 -65.5 155.5t-157.5 65.5t-155.5 -66.5t-63.5 -154.5z" />
<glyph unicode="&#xb1;" horiz-adv-x="1024" d="M-29 0v111h1061v-111h-1061zM-29 709v110h475v475h111v-475h475v-110h-475v-476h-111v476h-475z" />
<glyph unicode="&#xb4;" horiz-adv-x="0" d="M-90 1186l113 219h231l-207 -219h-137z" />
<glyph unicode="&#xb5;" horiz-adv-x="1073" d="M12 -303q0 41 2 59.5t15 61.5q20 84 30.5 131t10.5 69v986h172v-666q0 -102 41 -162q51 -70 147 -70q63 0 129 45.5t98 106.5v746h172v-771q0 -63 23 -106q31 -61 84 -61t78 45l30 94h39q-25 -109 -75 -166q-63 -70 -164 -70q-88 0 -131 56q-29 37 -54 139 q-63 -84 -137 -135q-96 -63 -180 -64q-55 0 -109 31l-92 67v-45q0 -47 43 -200q23 -80 23 -123q0 -53 -21 -92q-27 -51 -77 -52q-43 0 -70 48.5t-27 97.5z" />
<glyph unicode="&#xb6;" horiz-adv-x="1366" d="M180 1038q0 197 127 302.5t326 105.5h471v-111h-70v-1677h-119v1677h-294v-1677h-119v995q-150 25 -238 127q-84 106 -84 258z" />
<glyph unicode="&#xb7;" horiz-adv-x="321" d="M39 614q0 57 45 96.5t106 39.5q55 0 93.5 -45.5t38.5 -100.5q0 -61 -42 -100t-100 -39q-66 0 -103.5 42t-37.5 107z" />
<glyph unicode="&#xb8;" horiz-adv-x="0" d="M-193 -391l29 49q12 -10 47 -18l51 -9q49 0 89 26t40 75q0 33 -17 56.5t-52 23.5q-23 0 -31 -5l-41 -18l-41 18q25 45 45 109l33 113h61l-53 -164l43 12l41 8q68 0 107 -35.5t39 -101.5q0 -78 -78 -131q-70 -47 -152 -47q-29 0 -78 12z" />
<glyph unicode="&#xbb;" horiz-adv-x="700" d="M31 168v244l157 176l-155 166v237l295 -319v-174zM371 172v244l155 174l-153 172v233l293 -323v-170z" />
<glyph unicode="&#xbf;" horiz-adv-x="782" d="M41 326q0 106 19.5 183t76.5 161l33 49q33 53 47 85t21.5 59.5t17.5 81.5t10 126h135l5 -78q0 -125 -123 -393q-57 -127 -58 -240v-22q0 -86 21 -133q31 -68 106 -68q96 0 133 51q25 37 25 148v153h158l6 -47l4 -41q0 -217 -47 -305q-68 -129 -264 -129q-166 0 -246 95.5 t-80 263.5zM244 1214v246h182v-246h-182z" />
<glyph unicode="&#xc0;" horiz-adv-x="782" d="M-39 6l324 1452h176l307 -1454h-186l-56 277h-327l-52 -275h-186zM115 1864h221l104 -224h-131zM229 440h273l-133 748z" />
<glyph unicode="&#xc1;" horiz-adv-x="782" d="M-39 6l324 1452h176l307 -1454h-186l-56 277h-327l-52 -275h-186zM229 440h273l-133 748zM252 1640l117 222l229 -2q-100 -96 -205 -220h-141z" />
<glyph unicode="&#xc2;" horiz-adv-x="782" d="M-39 6l324 1452h176l307 -1454h-186l-56 277h-327l-52 -275h-186zM72 1638l215 226h131l200 -222h-180l-110 125l-117 -129h-139zM229 440h273l-133 748z" />
<glyph unicode="&#xc3;" horiz-adv-x="782" d="M-39 6l324 1452h176l307 -1454h-186l-56 277h-327l-52 -275h-186zM94 1649q12 90 43 129q37 55 119 55q43 0 116.5 -28.5t110.5 -28.5t52 22l16 37h67q0 -76 -43 -130t-116 -54q-33 0 -75 16t-84 28.5t-54 14.5q-33 0 -50.5 -12t-31.5 -49h-70zM229 440h273l-133 748z " />
<glyph unicode="&#xc4;" horiz-adv-x="782" d="M-39 6l324 1452h176l307 -1454h-186l-56 277h-327l-52 -275h-186zM100 1638v215h168v-215h-168zM229 440h273l-133 748zM471 1640v213h166v-213h-166z" />
<glyph unicode="&#xc5;" horiz-adv-x="782" d="M-39 6l324 1452h176l307 -1454h-186l-56 277h-327l-52 -275h-186zM203 1688q0 61 48 114t111 53q66 0 121 -43q51 -45 52 -110q0 -68 -42 -122t-112 -54q-72 0 -127 43q-51 45 -51 119zM229 440h273l-133 748zM297 1694l6 -35l23 -27q14 -10 32 -14q29 0 60 18 q23 18 26 50q0 27 -19 52t-48 27q-31 0 -53.5 -18t-26.5 -53z" />
<glyph unicode="&#xc6;" horiz-adv-x="1236" d="M-61 -2l505 1454h725v-160h-438v-436h379v-158h-381v-542h471v-158h-649v319h-315l-113 -319h-184zM281 477h272v801z" />
<glyph unicode="&#xc7;" horiz-adv-x="825" d="M57 502l4 227l7 199l6 200q0 348 346 349q223 0 289 -142q37 -80 36 -338h-167l2 50q0 131 -17 178q-31 100 -129 100q-37 0 -63 -10q-61 -18 -88 -70q-14 -29 -27 -112l-12 -142l-2 -170l4 -258l4 -190q0 -111 31 -166q41 -74 145 -74q98 0 137 103q25 68 25 200l-2 41 v41l73 2q59 0 93 -10l2 -129q0 -205 -74 -297q-84 -102 -295 -102l-37 -117l45 14l37 6q68 0 106.5 -35.5t38.5 -101.5q0 -72 -75 -127q-78 -51 -154 -51q-16 0 -37.5 2t-45 8t-36 10t-39.5 19l29 49l47 -18l49 -9q49 0 89 26t40 75q0 29 -17 54.5t-48 25.5q-23 0 -35 -5 l-39 -18l-43 16l37 89l31 96q-166 31 -230 194q-41 106 -41 318z" />
<glyph unicode="&#xc8;" horiz-adv-x="782" d="M78 8v1452h651v-168h-461v-422h400v-163h-404v-535h477v-164h-663zM137 1864h219l105 -224h-131z" />
<glyph unicode="&#xc9;" horiz-adv-x="782" d="M78 8v1452h651v-168h-461v-422h400v-163h-404v-535h477v-164h-663zM272 1640l117 222h229l-106 -109l-98 -113h-142z" />
<glyph unicode="&#xca;" horiz-adv-x="782" d="M78 8v1452h651v-168h-461v-422h400v-163h-404v-535h477v-164h-663zM92 1638l215 226h131l201 -222h-180l-109 125l-119 -129h-139z" />
<glyph unicode="&#xcb;" horiz-adv-x="782" d="M78 8v1452h651v-168h-461v-422h400v-163h-404v-535h477v-164h-663zM96 1642v216h170v-216h-170zM469 1642v218h168v-218h-168z" />
<glyph unicode="&#xcc;" horiz-adv-x="370" d="M-74 1864h219l105 -224h-129zM82 0v1458l80 -2q59 0 98 8v-1464h-178z" />
<glyph unicode="&#xcd;" horiz-adv-x="370" d="M92 1640l115 222h235l-80 -82l-131 -140h-139zM111 0v1458l79 -2q59 0 99 8v-1464h-178z" />
<glyph unicode="&#xce;" horiz-adv-x="370" d="M-111 1638l215 226h132l200 -222h-180l-109 125l-114 -129h-144zM90 0v1458l80 -2q59 0 98 8v-1464h-178z" />
<glyph unicode="&#xcf;" horiz-adv-x="370" d="M-102 1642v216h170v-216h-170zM94 0v1458l80 -2q59 0 98 8v-1464h-178zM270 1642v218h168v-218h-168z" />
<glyph unicode="&#xd1;" horiz-adv-x="866" d="M74 2v1452h260l280 -1264l-14 1264h172v-1458l-264 -2q-41 207 -88 407l-96 426l-91 418l13 -1243h-172zM156 1649q0 37 11 69.5t34 61.5q40 53 116 53q43 0 117 -28.5t111 -28.5q31 0 47 14l22 45h68q0 -74 -44 -129t-120 -55q-35 0 -104.5 30.5t-104.5 30.5 q-33 0 -52 -13t-32 -50h-69z" />
<glyph unicode="&#xd2;" horiz-adv-x="866" d="M57 477l2 246l2 246q0 256 56 360q81 150 317 150q215 0 291 -140q53 -100 53 -335l-2 -412v-47v-39v-33v-27q0 -94 -10 -133q-18 -156 -90 -233q-86 -98 -258 -98q-229 0 -307 141q-53 100 -54 354zM174 1864h221l105 -224h-131zM233 457q0 -150 27 -217 q43 -109 158 -109q27 0 51 8q29 6 49 27q39 31 64 162q10 61 16 151t6 201l-2 190v74l2 74q0 135 -26 203q-43 111 -154 110q-115 0 -164 -149q-27 -96 -27 -248l3 -381l-3 -47v-49z" />
<glyph unicode="&#xd3;" horiz-adv-x="866" d="M57 477l2 246l2 246q0 256 56 360q81 150 317 150q215 0 291 -140q53 -100 53 -335l-2 -412v-47v-39v-33v-27q0 -94 -10 -133q-18 -156 -90 -233q-86 -98 -258 -98q-229 0 -307 141q-53 100 -54 354zM233 457q0 -150 27 -217q43 -109 158 -109q27 0 51 8q29 6 49 27 q39 31 64 162q10 61 16 151t6 201l-2 190v74l2 74q0 135 -26 203q-43 111 -154 110q-115 0 -164 -149q-27 -96 -27 -248l3 -381l-3 -47v-49zM311 1640l113 222h233l-77 -82l-129 -140h-140z" />
<glyph unicode="&#xd4;" horiz-adv-x="866" d="M57 477l2 246l2 246q0 256 56 360q81 150 317 150q215 0 291 -140q53 -100 53 -335l-2 -412v-47v-39v-33v-27q0 -94 -10 -133q-18 -156 -90 -233q-86 -98 -258 -98q-229 0 -307 141q-53 100 -54 354zM129 1638l213 226h133l201 -222h-178l-111 125l-117 -129h-141z M233 457q0 -150 27 -217q43 -109 158 -109q27 0 51 8q29 6 49 27q39 31 64 162q10 61 16 151t6 201l-2 190v74l2 74q0 135 -26 203q-43 111 -154 110q-115 0 -164 -149q-27 -96 -27 -248l3 -381l-3 -47v-49z" />
<glyph unicode="&#xd5;" horiz-adv-x="866" d="M57 477l2 246l2 246q0 256 56 360q81 150 317 150q215 0 291 -140q53 -100 53 -335l-2 -412v-47v-39v-33v-27q0 -94 -10 -133q-18 -156 -90 -233q-86 -98 -258 -98q-229 0 -307 141q-53 100 -54 354zM152 1649q0 37 11 69.5t34 61.5q40 53 116 53q43 0 117 -28.5 t111 -28.5q31 0 47 14l22 45h68q0 -74 -44 -129t-120 -55q-35 0 -104.5 30.5t-104.5 30.5q-33 0 -52.5 -13t-31.5 -50h-69zM233 457q0 -150 27 -217q43 -109 158 -109q27 0 51 8q29 6 49 27q39 31 64 162q10 61 16 151t6 201l-2 190v74l2 74q0 135 -26 203q-43 111 -154 110 q-115 0 -164 -149q-27 -96 -27 -248l3 -381l-3 -47v-49z" />
<glyph unicode="&#xd6;" horiz-adv-x="866" d="M57 416v522q0 330 101 442q86 98 268 99q229 0 305 -150q49 -98 49 -358l-2 -236q0 -39 -2 -116.5t-2 -118.5q0 -274 -53 -369q-80 -147 -330 -147q-193 0 -270 127q-31 51 -47.5 125.5t-16.5 179.5zM164 1638v220h170v-220h-170zM236 569l6 -125l6 -127q0 -84 41 -133 t125 -49q123 0 161 125q8 31 14.5 91.5t6.5 137.5l6 240v336q0 109 -31 176q-43 90 -141 90q-88 0 -137 -57q-45 -57 -45 -146l-6 -116l-6 -117v-326zM530 1638v220h175v-220h-175z" />
<glyph unicode="&#xd8;" horiz-adv-x="866" d="M0 43l78 160q-6 20 -12.5 59t-10.5 86l-6 160l4 424q0 266 51 375q80 166 318 166q137 0 246 -72l41 82l79 -39l-59 -123q23 -76 33 -184.5t10 -206.5l-2 -215l-8 -361q0 -184 -87 -277t-276 -93q-94 0 -158.5 24.5t-125.5 89.5l-43 -92zM227 512l346 692 q-31 123 -155 123q-96 0 -146 -86q-37 -68 -36 -176zM238 344q0 -96 44 -155.5t140 -59.5q80 0 123 68q27 43 39 135l12 155l2 177l-4 393z" />
<glyph unicode="&#xd9;" horiz-adv-x="866" d="M66 391v1071h180v-1093q0 -119 35 -168q45 -63 153 -64q82 0 123 62q33 55 33 141v1120h180v-1155q0 -162 -93 -242.5t-263 -80.5q-203 0 -283 106q-66 90 -65 303zM180 1864h221l105 -224h-131z" />
<glyph unicode="&#xda;" horiz-adv-x="866" d="M66 391v1071h180v-1093q0 -119 35 -168q45 -63 153 -64q82 0 123 62q33 55 33 141v1120h180v-1155q0 -162 -93 -242.5t-263 -80.5q-203 0 -283 106q-66 90 -65 303zM317 1640l113 222h234l-78 -82l-129 -140h-140z" />
<glyph unicode="&#xdb;" horiz-adv-x="866" d="M66 391v1071h180v-1093q0 -119 35 -168q45 -63 153 -64q82 0 123 62q33 55 33 141v1120h180v-1155q0 -162 -93 -242.5t-263 -80.5q-203 0 -283 106q-66 90 -65 303zM135 1638l213 226h133l201 -222h-178l-111 125l-117 -129h-141z" />
<glyph unicode="&#xdc;" horiz-adv-x="866" d="M66 391v1071h180v-1093q0 -119 35 -168q45 -63 153 -64q82 0 123 62q33 55 33 141v1120h180v-1155q0 -162 -93 -242.5t-263 -80.5q-203 0 -283 106q-66 90 -65 303zM150 1636v219h172v-219h-172zM522 1634v221h172v-221h-172z" />
<glyph unicode="&#xdf;" horiz-adv-x="782" d="M61 4v1208q0 123 85 189.5t212 66.5q147 0 221 -67.5t74 -212.5q0 -109 -30.5 -169.5t-128.5 -90.5q115 -14 163 -99q39 -72 39 -196v-324q0 -129 -74.5 -219t-203.5 -90q-59 0 -99 8l-2 133l68 -4q84 0 119 62q20 47 20 141v307q0 119 -41 160q-39 45 -159 45v143h32 q139 0 140 129q0 96 -19 140q-29 63 -117 63q-131 0 -131 -125v-1198h-168z" />
<glyph unicode="&#xe0;" horiz-adv-x="700" d="M14 221q0 156 58 228q29 35 188 143l88 67l84 72v33q0 78 -22 115q-29 47 -103 47q-68 0 -92 -58q-16 -39 -16 -118v-50l-146 2l-4 80q0 133 64.5 203t197.5 70q152 0 219.5 -65.5t67.5 -219.5v-614q0 -72 41 -152h-195l2 117q-35 -59 -88 -97t-118 -38q-96 0 -161 68.5 t-65 166.5zM98 1407h215l111 -221h-133zM178 256q0 -59 25.5 -105.5t83.5 -46.5q76 0 116 74q33 66 33 148v252q-150 -106 -172 -129q-86 -84 -86 -193z" />
<glyph unicode="&#xe1;" horiz-adv-x="700" d="M14 221q0 156 58 228q29 35 188 143l88 67l84 72v33q0 78 -22 115q-29 47 -103 47q-68 0 -92 -58q-16 -39 -16 -118v-50l-146 2l-4 80q0 133 64.5 203t197.5 70q152 0 219.5 -65.5t67.5 -219.5v-614q0 -72 41 -152h-195l2 117q-35 -59 -88 -97t-118 -38q-96 0 -161 68.5 t-65 166.5zM178 256q0 -59 25.5 -105.5t83.5 -46.5q76 0 116 74q33 66 33 148v252q-150 -106 -172 -129q-86 -84 -86 -193zM223 1186l113 219h233l-209 -219h-137z" />
<glyph unicode="&#xe2;" horiz-adv-x="700" d="M14 221q0 156 58 228q29 35 188 143l88 67l84 72v33q0 78 -22 115q-29 47 -103 47q-68 0 -92 -58q-16 -39 -16 -118v-50l-146 2l-4 80q0 133 64.5 203t197.5 70q152 0 219.5 -65.5t67.5 -219.5v-614q0 -72 41 -152h-195l2 117q-35 -59 -88 -97t-118 -38q-96 0 -161 68.5 t-65 166.5zM47 1182l207 223h141l195 -223h-174l-115 129l-119 -129h-135zM178 256q0 -59 25.5 -105.5t83.5 -46.5q76 0 116 74q33 66 33 148v252q-150 -106 -172 -129q-86 -84 -86 -193z" />
<glyph unicode="&#xe3;" horiz-adv-x="700" d="M14 221q0 156 58 228q29 35 188 143l88 67l84 72v33q0 78 -22 115q-29 47 -103 47q-68 0 -92 -58q-16 -39 -16 -118v-50l-146 2l-4 80q0 133 64.5 203t197.5 70q152 0 219.5 -65.5t67.5 -219.5v-614q0 -72 41 -152h-195l2 117q-35 -59 -88 -97t-118 -38q-96 0 -161 68.5 t-65 166.5zM72 1196q0 72 42.5 127t118.5 55q33 0 86 -18q104 -37 140 -41q55 0 69 57l66 2q0 -39 -9.5 -67.5t-31.5 -57.5q-41 -55 -115 -55q-47 0 -116 29q-31 12 -58.5 19t-46.5 9q-61 0 -80 -61zM178 256q0 -59 25.5 -105.5t83.5 -46.5q76 0 116 74q33 66 33 148v252 q-150 -106 -172 -129q-86 -84 -86 -193z" />
<glyph unicode="&#xe4;" horiz-adv-x="700" d="M12 217q0 156 60 229q33 45 188 148l64 49l106 88v33q0 78 -22 115q-31 49 -105 49q-66 0 -94 -62q-16 -43 -16 -127v-34l-142 2l-4 73q0 139 67.5 207t213.5 68q143 0 203.5 -72t60.5 -217v-623q0 -39 7 -62.5t32 -74.5h-191l-2 119q-31 -59 -84 -97t-121 -38 q-96 0 -158.5 64.5t-62.5 162.5zM82 1182v204h158v-204h-158zM172 258q0 -66 25 -113q25 -41 92 -41q74 0 112 76q16 33 24.5 66t8.5 78v260l-172 -133q-90 -86 -90 -193zM408 1182v204h153v-204h-153z" />
<glyph unicode="&#xe5;" horiz-adv-x="700" d="M12 256q0 125 70 203q39 45 172 133l68 47l108 88v33q0 76 -20 114q-29 51 -103 52q-51 0 -80.5 -39t-29.5 -144v-41h-148l-6 70q0 139 65.5 213t202.5 74q147 0 215 -68.5t68 -220.5v-627q0 -47 14 -84l39 -75l-49 14l-57 4l-99 -2v121q-39 -61 -88 -99t-116 -38 q-117 0 -171.5 75.5t-54.5 196.5zM156 1284q0 68 46.5 118t114.5 50t118 -48t50 -116q0 -63 -50 -115.5t-113 -52.5q-70 0 -118 47t-48 117zM172 262q0 -63 24.5 -108t88.5 -45q76 0 114 75q29 57 29 146v250l-168 -131q-88 -82 -88 -187zM248 1280q0 -23 20 -43.5t47 -24.5 q25 0 54 19q23 18 26 49q0 27 -19.5 52.5t-47.5 27.5q-33 0 -56.5 -14.5t-23.5 -49.5v-16z" />
<glyph unicode="&#xe6;" horiz-adv-x="1071" d="M25 258q0 129 73 209q29 31 185 135q35 25 76.5 56.5t78.5 64.5v41q0 100 -28.5 130t-87.5 30q-74 0 -103 -80q-12 -37 -12 -144h-146v99q0 119 69 189.5t187 70.5q61 0 108.5 -16.5t98.5 -57.5q41 39 92.5 55.5t106.5 16.5q172 0 235 -115q49 -86 50 -272v-172h-408 v-224q0 -59 27.5 -109t83.5 -50q84 0 114 75q16 45 17 152h155l2 -43q0 -147 -65.5 -229t-210.5 -82q-137 0 -240 96q-63 -57 -101 -74.5t-116 -17.5q-121 0 -181 70.5t-60 195.5zM182 264q0 -55 25 -102q25 -41 82 -41q98 0 133 65q25 43 24 156v221q-92 -47 -167 -123 q-96 -92 -97 -176zM600 627h250v125q0 72 -28.5 125t-98.5 53q-53 0 -90 -39q-33 -39 -33 -96v-168z" />
<glyph unicode="&#xe7;" horiz-adv-x="700" d="M47 397l2 183q0 219 37 315q61 160 248 160q160 0 231 -86q59 -76 60 -246l-4 -61h-152l2 38q0 104 -16 148q-29 82 -109 82q-74 0 -104 -66q-23 -51 -23 -133v-418q0 -88 21 -131q33 -63 108 -63q82 0 109 102q12 49 12 170l156 -2l2 -37q0 -184 -58 -266 q-70 -100 -250 -100l-38 -121l43 16l38 4q70 0 109 -35.5t39 -101.5q0 -78 -78 -131q-70 -47 -153 -47q-45 0 -78 10q-25 4 -39.5 9t-40.5 20l29 49l45 -16l51 -11q49 0 91 26t42 77q0 33 -18.5 53t-53.5 25l-37 -9l-37 -14l-40 18l34 87l35 98q-129 25 -182 153 q-33 92 -33 252z" />
<glyph unicode="&#xe8;" horiz-adv-x="700" d="M49 270v471q0 158 72.5 236t230.5 78q129 0 203 -75t74 -206v-285h-418l2 -8l-4 -127q0 -102 20 -155q31 -84 117 -84q80 0 111 71q23 51 22 140h148v-35q0 -307 -293 -307q-133 0 -209 75.5t-76 210.5zM86 1407h215l111 -221h-133zM213 618h264v89q0 92 -18 145 q-29 78 -111 78t-115 -76q-20 -55 -20 -149v-87z" />
<glyph unicode="&#xe9;" horiz-adv-x="700" d="M49 270v471q0 158 72.5 236t230.5 78q129 0 203 -75t74 -206v-285h-418l2 -8l-4 -127q0 -102 20 -155q31 -84 117 -84q80 0 111 71q23 51 22 140h148v-35q0 -307 -293 -307q-133 0 -209 75.5t-76 210.5zM211 1186l113 219h233l-209 -219h-137zM213 618h264v89 q0 92 -18 145q-29 78 -111 78t-115 -76q-20 -55 -20 -149v-87z" />
<glyph unicode="&#xea;" horiz-adv-x="700" d="M47 1182l207 223h141l195 -223h-174l-115 129l-119 -129h-135zM61 270v471q0 158 73 236t231 78q129 0 202.5 -75t73.5 -206v-285h-418l2 -8l-4 -127q0 -102 21 -155q31 -84 116 -84q80 0 111 71q23 51 23 140h147v-35q0 -307 -293 -307q-133 0 -209 75.5t-76 210.5z M225 618h264v89q0 92 -18 145q-29 78 -111 78t-114 -76q-20 -55 -21 -149v-87z" />
<glyph unicode="&#xeb;" horiz-adv-x="700" d="M49 270v471q0 158 72.5 236t230.5 78q129 0 203 -75t74 -206v-285h-418l2 -8l-4 -127q0 -102 20 -155q31 -84 117 -84q80 0 111 71q23 51 22 140h148v-35q0 -307 -293 -307q-133 0 -209 75.5t-76 210.5zM72 1188v213h161v-213h-161zM213 618h264v89q0 92 -18 145 q-29 78 -111 78t-115 -76q-20 -55 -20 -149v-87zM395 1190v211h162v-211h-162z" />
<glyph unicode="&#xec;" horiz-adv-x="331" d="M-84 1407h217l109 -221h-133zM76 4v1028h162v-1028h-162z" />
<glyph unicode="&#xed;" horiz-adv-x="331" d="M72 1186l112 219h234l-209 -219h-137zM106 4v1028h162v-1028h-162z" />
<glyph unicode="&#xee;" horiz-adv-x="331" d="M-119 1182l207 223h141l197 -223h-178l-113 129l-119 -129h-135zM92 4v1028h162v-1028h-162z" />
<glyph unicode="&#xef;" horiz-adv-x="331" d="M-92 1188v213h162v-213h-162zM82 4v1028h162v-1028h-162zM231 1190v211h162v-211h-162z" />
<glyph unicode="&#xf1;" d="M63 -2v1036h160v-98l74 70q63 47 154 47q104 0 155 -70t51 -174v-811h-168v727q0 84 -18 131q-29 68 -104 68q-57 0 -95.5 -50.5t-38.5 -115.5v-760h-170zM96 1196q0 74 43 128t119 54q35 0 91.5 -19.5t70.5 -23.5q45 -14 63 -16q49 0 70 57h65q0 -72 -40.5 -125 t-112.5 -53q-39 0 -143 37q-51 16 -84 20q-57 0 -76 -61z" />
<glyph unicode="&#xf2;" horiz-adv-x="700" d="M47 365l6 274q0 256 76 340q68 74 211 74t213 -70q78 -82 78 -328v-96l4 -172q0 -203 -53 -289q-68 -117 -258 -116q-164 0 -228 114q-49 86 -49 269zM98 1407h215l111 -221h-133zM217 305q0 -86 16 -125q25 -68 97 -67q76 0 106 71q18 47 19 140l6 405q0 90 -19 133 q-29 63 -108 64q-51 0 -82 -45q-35 -57 -35 -170v-406z" />
<glyph unicode="&#xf3;" horiz-adv-x="700" d="M47 365l6 274q0 256 76 340q68 74 211 74t213 -70q78 -82 78 -328v-96l4 -172q0 -203 -53 -289q-68 -117 -258 -116q-164 0 -228 114q-49 86 -49 269zM217 305q0 -86 16 -125q25 -68 97 -67q76 0 106 71q18 47 19 140l6 405q0 90 -19 133q-29 63 -108 64q-51 0 -82 -45 q-35 -57 -35 -170v-406zM223 1186l113 219h233l-209 -219h-137z" />
<glyph unicode="&#xf4;" horiz-adv-x="700" d="M47 365l6 274q0 256 76 340q68 74 211 74t213 -70q78 -82 78 -328v-96l4 -172q0 -203 -53 -289q-68 -117 -258 -116q-164 0 -228 114q-49 86 -49 269zM47 1182l207 223h141l195 -223h-174l-115 129l-119 -129h-135zM217 305q0 -86 16 -125q25 -68 97 -67q76 0 106 71 q18 47 19 140l6 405q0 90 -19 133q-29 63 -108 64q-51 0 -82 -45q-35 -57 -35 -170v-406z" />
<glyph unicode="&#xf5;" horiz-adv-x="700" d="M47 365l6 274q0 256 76 340q68 74 211 74t213 -70q78 -82 78 -328v-96l4 -172q0 -203 -53 -289q-68 -117 -258 -116q-164 0 -228 114q-49 86 -49 269zM72 1196q0 72 42.5 127t118.5 55q33 0 86 -18q104 -37 140 -41q55 0 69 57l66 2q0 -39 -9.5 -67.5t-31.5 -57.5 q-41 -55 -115 -55q-47 0 -116 29q-31 12 -58.5 19t-46.5 9q-61 0 -80 -61zM217 305q0 -86 16 -125q25 -68 97 -67q76 0 106 71q18 47 19 140l6 405q0 90 -19 133q-29 63 -108 64q-51 0 -82 -45q-35 -57 -35 -170v-406z" />
<glyph unicode="&#xf6;" horiz-adv-x="700" d="M45 606q0 266 84 365q72 84 215 84q178 0 244 -109q51 -86 51 -274l-2 -271q0 -201 -49 -292q-70 -125 -252 -125q-186 0 -250 139q-39 94 -39 305zM98 1184v151l6 62h156v-213h-162zM215 311q0 -86 18 -129q29 -65 105 -65q61 0 90 43t29 168l4 229l4 170q0 113 -32 154 t-95 41q-74 0 -100 -78q-8 -25 -12.5 -57.5t-4.5 -88.5v-34l-2 -232zM424 1184v211h158v-211h-158z" />
<glyph unicode="&#xf7;" horiz-adv-x="1024" d="M-29 473v111h1055v-111h-1055zM377 254q0 47 32.5 80t79.5 33t80 -33t33 -80t-32.5 -79t-80.5 -32q-45 0 -78.5 32t-33.5 79zM377 803q0 47 32.5 79.5t79.5 32.5t80 -32.5t33 -79.5t-32.5 -80t-80.5 -33q-47 0 -79.5 33t-32.5 80z" />
<glyph unicode="&#xf8;" horiz-adv-x="700" d="M-2 23l72 118l-23 95l-6 110v281q0 207 47 295q68 133 250 133q41 0 59.5 -2t48.5 -15q47 -12 95 -51l45 70l63 -41l-55 -98q16 -43 27 -127l8 -170v-97v-129q0 -254 -78 -340q-68 -78 -205 -78q-68 0 -130 18.5t-101 63.5l-58 -82zM215 393q134 242 236 412 q-12 57 -35 80q-29 33 -80 33t-86 -46.5t-35 -99.5v-379zM219 254q0 -68 24.5 -110t92.5 -42q66 0 96 66q18 43 19 125l8 375q-47 -74 -152 -256z" />
<glyph unicode="&#xf9;" d="M61 260v776h170l-2 -792q0 -49 37 -97q37 -41 90 -41q68 0 109 68q29 53 29 135v727h165v-1034h-157v115q-35 -66 -86 -100.5t-125 -34.5q-121 0 -180 79q-49 68 -50 199zM125 1407h213l113 -221h-134z" />
<glyph unicode="&#xfa;" d="M61 260v776h170l-2 -792q0 -49 37 -97q37 -41 90 -41q68 0 109 68q29 53 29 135v727h165v-1034h-157v115q-35 -66 -86 -100.5t-125 -34.5q-121 0 -180 79q-49 68 -50 199zM250 1186l112 219h234l-209 -219h-137z" />
<glyph unicode="&#xfb;" d="M61 260v776h170l-2 -792q0 -49 37 -97q37 -41 90 -41q68 0 109 68q29 53 29 135v727h165v-1034h-157v115q-35 -66 -86 -100.5t-125 -34.5q-121 0 -180 79q-49 68 -50 199zM72 1182l209 223h141l194 -223h-176l-114 129l-117 -129h-137z" />
<glyph unicode="&#xfc;" d="M61 307v731h175l2 -778q0 -147 135 -147q74 0 104 73q20 55 21 140v712h170v-1034h-164v94q-41 -53 -92 -88q-51 -29 -117 -28q-137 0 -193 98q-41 76 -41 227zM129 1182v211h166v-211h-166zM457 1182v211h159v-211h-159z" />
<glyph unicode="&#xff;" horiz-adv-x="659" d="M-20 1053h180l170 -832l131 832l180 -2l-113 -535l-61 -301q-31 -139 -35 -158q-16 -66 -37 -139q-31 -127 -78 -174q-57 -63 -176 -63l-110 -5h-21v144l72 -2q78 0 116 28.5t38 106.5l-3 35l-14 63zM70 1188v213h161v-213h-161zM395 1190v211h160v-211h-160z" />
<glyph unicode="&#x152;" horiz-adv-x="1277" d="M33 553l2 315q0 55 3 118t11 136q0 362 387 363h54.5t113.5 -8l139 -7l209 5h265v-162h-424v-428h372v-162h-372v-563h454l-2 -158l-362 6q-86 -6 -159 -10t-161 -4l-192 -8q-213 0 -289 192q-49 123 -49 375zM217 932l2 -172l4 -221l6 -154q0 -119 35 -174 q45 -70 158 -70h24q104 0 144 97q23 61 22 190l2 209v485q0 94 -41 155.5t-135 61.5q-133 0 -188 -143q-16 -49 -24.5 -110.5t-8.5 -153.5z" />
<glyph unicode="&#x153;" horiz-adv-x="1071" d="M27 387l2 244q0 256 77 348q70 82 207 82q43 0 62.5 -2t50.5 -15q47 -14 96 -61q96 78 205 78q141 0 211 -96q61 -86 61 -234v-231l-401 2l-2 -203q0 -76 20 -119q33 -63 97 -63q82 0 112 76q18 49 19 149h153v-41q0 -156 -70.5 -232.5t-226.5 -76.5q-47 0 -98 23.5 t-80 56.5q-39 -33 -104 -60q-61 -18 -129 -18q-156 0 -219 125q-43 86 -43 268zM193 352q0 -100 18 -153q31 -84 113 -84q68 0 98 75q23 57 22 136l7 342q0 113 -17 163q-31 100 -110 101q-78 0 -109 -84q-20 -66 -20 -162v-39zM594 633h250v98q0 88 -21 131q-31 66 -106 66 q-90 0 -115 -105l-8 -108v-82z" />
<glyph unicode="&#x178;" horiz-adv-x="782" d="M-39 1460h197l202 -719l215 717l193 2l-117 -327l-119 -326l-43 -121q-31 -90 -36 -137l-4 -115v-47l6 -381h-193l2 424v43l2 49v27l-4 24q-10 63 -45 150l-55 145zM70 1642v216h170v-216h-170zM442 1642v218h170v-218h-170z" />
<glyph unicode="&#x2c6;" horiz-adv-x="0" d="M-268 1182l207 223h141l194 -223h-176l-112 129l-119 -129h-135z" />
<glyph unicode="&#x2dc;" horiz-adv-x="0" d="M-246 1194q18 90 47 127q39 57 117 57q35 0 88 -18q104 -37 139 -41q27 0 44.5 15.5t25.5 41.5h64q0 -72 -41 -125t-111 -53q-39 0 -143 37q-51 16 -84 20q-31 0 -46.5 -13t-31.5 -48h-68z" />
<glyph unicode="&#x2000;" horiz-adv-x="932" />
<glyph unicode="&#x2001;" horiz-adv-x="1864" />
<glyph unicode="&#x2002;" horiz-adv-x="932" />
<glyph unicode="&#x2003;" horiz-adv-x="1864" />
<glyph unicode="&#x2004;" horiz-adv-x="621" />
<glyph unicode="&#x2005;" horiz-adv-x="466" />
<glyph unicode="&#x2006;" horiz-adv-x="310" />
<glyph unicode="&#x2007;" horiz-adv-x="310" />
<glyph unicode="&#x2008;" horiz-adv-x="233" />
<glyph unicode="&#x2009;" horiz-adv-x="372" />
<glyph unicode="&#x200a;" horiz-adv-x="103" />
<glyph unicode="&#x2010;" horiz-adv-x="536" d="M20 485v160h480v-160h-480z" />
<glyph unicode="&#x2011;" horiz-adv-x="536" d="M20 485v160h480v-160h-480z" />
<glyph unicode="&#x2012;" horiz-adv-x="536" d="M20 485v160h480v-160h-480z" />
<glyph unicode="&#x2013;" d="M12 481v166h709v-166h-709z" />
<glyph unicode="&#x2014;" horiz-adv-x="989" d="M-49 526v168h1044v-168h-1044z" />
<glyph unicode="&#x2018;" horiz-adv-x="331" d="M78 936v240q0 121 37 183t145 103v-104q-45 -12 -63 -66q-8 -27 -12.5 -51t-4.5 -59h78v-246h-180z" />
<glyph unicode="&#x2019;" horiz-adv-x="331" d="M80 932v98q43 25 63.5 54.5t20.5 80.5l-4 43h-80v246h178v-283q0 -98 -41 -161.5t-137 -77.5z" />
<glyph unicode="&#x201a;" horiz-adv-x="280" d="M63 6v244h181v-279q0 -106 -40 -165.5t-141 -84.5v105q47 25 64.5 53.5t17.5 83.5v43h-82z" />
<glyph unicode="&#x201c;" horiz-adv-x="616" d="M63 938v240q0 115 37 181t142 101v-100q-82 -37 -82 -127v-55h80v-240h-177zM367 940v279q0 96 42 154.5t134 88.5v-102q-45 -33 -62.5 -60.5t-17.5 -76.5l2 -43h76v-240h-174z" />
<glyph unicode="&#x201d;" horiz-adv-x="616" d="M63 926v108q51 23 67.5 54.5t16.5 93.5l-2 30h-79v246h178v-284q0 -98 -41 -157t-140 -91zM365 930v108q49 31 66.5 63t17.5 91v22h-84v244h178v-282q0 -102 -40 -157.5t-138 -88.5z" />
<glyph unicode="&#x201e;" horiz-adv-x="616" d="M63 4v244h183v-244q0 -123 -34 -182.5t-149 -106.5v107q47 20 65.5 53t18.5 92l-2 37h-82zM365 -174q43 12 65 47q10 14 16.5 34.5t6.5 47.5l-4 49h-82v244h182v-254q0 -117 -38 -179.5t-146 -95.5v107z" />
<glyph unicode="&#x2022;" horiz-adv-x="681" d="M74 723q0 106 79.5 186t192.5 80q111 0 186.5 -78.5t75.5 -187.5q0 -113 -75.5 -189.5t-186.5 -76.5q-113 0 -192.5 78.5t-79.5 187.5z" />
<glyph unicode="&#x2026;" horiz-adv-x="2048" d="M236 0v217h213v-217h-213zM918 0v217h212v-217h-212zM1599 0v217h213v-217h-213z" />
<glyph unicode="&#x202f;" horiz-adv-x="372" />
<glyph unicode="&#x2039;" horiz-adv-x="681" d="M180 473v189l322 251v-180l-215 -166l215 -166v-180z" />
<glyph unicode="&#x203a;" horiz-adv-x="681" d="M180 221v180l215 166l-215 166v180l322 -251v-189z" />
<glyph unicode="&#x205f;" horiz-adv-x="466" />
<glyph unicode="&#x2122;" horiz-adv-x="1658" d="M-45 1155l6 197h635l6 -197h-35v8q0 92 -71 125q-43 18 -158 19v-627q0 -33 29.5 -44t70.5 -11v-37h-321v37q43 0 65 6q37 12 37 49v627q-115 0 -158 -19q-72 -31 -71 -133h-35zM662 1315v37h227l266 -580l252 580h225v-37h-18q-39 0 -60 -10q-20 -6 -20 -41v-584 q0 -33 29.5 -44t70.5 -11v-37h-321v37q43 0 65 6q37 12 37 49v557l-268 -649h-37l-289 616v-524q0 -39 51 -51l52 -4v-37h-258v37q43 0 65 6q37 12 37 49v565q0 41 -21.5 55.5t-58.5 14.5h-26z" />
<glyph unicode="&#x25fc;" horiz-adv-x="1044" d="M0 0v1044h1044v-1044h-1044z" />
</font>
</defs>
</svg>
