<?xml version="1.0" standalone="no"?>
<!DOCTYPE svg PUBLIC "-//W3C//DTD SVG 1.1//EN" "http://www.w3.org/Graphics/SVG/1.1/DTD/svg11.dtd" >
<svg xmlns="http://www.w3.org/2000/svg" xmlns:xlink="http://www.w3.org/1999/xlink" version="1.1">
<metadata></metadata>
<defs>
<font id="gulimregular" horiz-adv-x="1024" vert-adv-y="2048" >
<font-face units-per-em="2048" ascent="1758" descent="-290" />
<missing-glyph horiz-adv-x="682" />
<glyph horiz-adv-x="0" vert-adv-y="0" />
<glyph unicode="&#xd;" d="M20 10q-18 -58 10 -92q32 -38 114 -36q112 0 218 114t106 230v990q46 -48 106 -96q34 -28 102 -78q116 -84 156 -132q62 -76 60 -178q-4 -102 -90 -232q-72 -104 -162 -184l18 -14q92 52 178 142q92 94 134 186q52 118 40 236q-14 132 -108 228q-56 60 -116 114 q-36 32 -102 84q-94 76 -138 122q-70 74 -130 174h-24v-1338q0 -22 -16 -28q-12 -4 -44 -2q-38 0 -60 -2q-38 -2 -72 -18q-66 -26 -116 -80t-64 -110z" />
<glyph />
<glyph />
<glyph d="M474 -290h76v986h474v76h-550v-1062z" />
<glyph d="M0 696h474v-986h76v1062h-550v-76z" />
<glyph d="M474 696h550v76h-474v986h-76v-1062z" />
<glyph d="M0 696h550v1062h-76v-986h-474v-76z" />
<glyph d="M474 -290h76v2048h-76v-2048z" />
<glyph d="M0 696h1024v76h-1024v-76z" />
<glyph d="M92 734q0 -180 120 -296q116 -114 290 -114q180 0 300 114q122 116 122 296q0 184 -124 294q-118 106 -302 106q-170 0 -286 -106q-120 -112 -120 -294z" />
<glyph d="M26 -4h970v1476h-970v-1476zM92 734q0 182 120 294q116 106 286 106q184 0 302 -106q124 -110 124 -294q0 -180 -122 -296q-120 -114 -300 -114q-174 0 -290 114q-120 116 -120 296z" />
<glyph unicode="&#x9;" d="M144 728q0 -132 84 -222q94 -104 254 -104q158 0 252 104q86 90 86 222q0 134 -86 228q-94 102 -252 102q-160 0 -254 -102q-84 -94 -84 -228zM226 728q0 106 62 176q72 80 194 80t194 -80q66 -70 66 -176q0 -102 -66 -172q-72 -80 -194 -80t-194 80q-62 70 -62 172z" />
<glyph unicode="&#xa;" d="M16 -48h990v1568h-990v-1568zM144 728q0 134 84 228q94 102 254 102q158 0 252 -102q86 -94 86 -228q0 -130 -86 -222q-94 -104 -252 -104q-160 0 -254 104q-84 90 -84 222zM226 728q0 -102 62 -172q72 -80 194 -80t194 80q66 70 66 172q0 106 -66 176q-72 80 -194 80 t-194 -80q-62 -70 -62 -176z" />
<glyph d="M14 428q0 -162 88 -270t224 -108q128 0 216 104q92 108 92 274q0 90 -34 170q-26 56 -70 114l356 534l100 -270l22 2l-26 494l-446 -180l14 -20l284 10l-354 -538q-40 28 -90 40q-30 8 -64 10q-136 0 -226 -108q-86 -104 -86 -258zM78 424q0 128 64 214q68 90 180 90h4 q104 0 172 -86q66 -84 66 -212q0 -140 -68 -226q-66 -86 -170 -86q-112 0 -180 84t-68 222z" />
<glyph d="M14 546h452v-700h72v700h474v74h-472v290q162 14 254 126q82 102 78 240q-4 140 -96 234q-102 104 -272 104q-160 0 -254 -104q-86 -94 -90 -232q-6 -136 70 -238q84 -112 234 -126v-294h-450v-74zM240 1262q0 118 66 198q76 90 204 90q132 0 210 -90q72 -80 72 -198 t-72 -198q-78 -92 -210 -92q-128 0 -204 92q-66 80 -66 198z" />
<glyph d="M12 12q-8 -48 10 -84q18 -38 54 -38q110 14 196 142q82 124 82 264v552l572 192v-474q0 -34 -18 -48q-10 -10 -42 -20q-30 -8 -46 -16q-28 -14 -50 -38q-54 -64 -76 -128q-18 -56 -12 -106q6 -44 30 -70q26 -26 60 -26q74 2 152 128q74 120 74 218v1132l-716 -218v-1016 q0 -58 -18 -78q-12 -14 -50 -24q-20 -4 -30 -8q-18 -6 -34 -16q-60 -44 -96 -106q-34 -56 -42 -114zM354 1058v114l572 192v-110z" />
<glyph d="M8 694h146q4 -120 30 -230q22 -96 54 -158l-182 -242l56 -48l170 224q38 -42 82 -72q60 -38 108 -38v-322h78v322q44 0 106 44q52 34 78 66l174 -218l68 50l-190 234q38 66 62 170q26 108 26 218h138v78h-142q0 100 -24 204q-22 108 -64 196l208 212l-54 54l-202 -206 q-36 44 -92 74q-54 30 -92 30v324h-78v-324q-56 -4 -100 -30q-38 -22 -76 -62l-188 200l-56 -52l198 -210q-42 -68 -70 -190q-24 -112 -26 -220h-146v-78zM228 726q0 230 66 376q74 166 212 162q140 0 218 -164q70 -148 70 -374q0 -214 -74 -360q-80 -162 -214 -162 q-136 0 -212 162q-66 144 -66 360z" />
<glyph d="M0 696h474v-986h76v986h474v76h-474v986h-76v-986h-474v-76z" />
<glyph d="M6 740l1000 -794v1596z" />
<glyph d="M218 1306l8 -8l242 128v-1386l-236 108l-10 -10l280 -326l274 326l-8 14l-226 -112v1392l218 -132l12 12l-264 344z" />
<glyph d="M282 1124l34 -636h74l34 636v486h-142v-486zM286 138h138v208h-138v-208zM606 1124l34 -636h76l32 636v486h-142v-486zM610 138h138v208h-138v-208z" />
<glyph d="M24 1194q0 -168 120 -282q132 -128 362 -128v-942h112v1662h260v-1662h114v1766h-478q-234 0 -368 -128q-122 -116 -122 -286zM134 1196q0 126 92 212q104 96 280 96v-612q-176 0 -280 96q-92 86 -92 208z" />
<glyph d="M0 696h1024v76h-474v986h-76v-986h-474v-76z" />
<glyph d="M0 696h474v-986h76v986h474v76h-1024v-76z" />
<glyph d="M0 696h474v-986h76v2048h-76v-986h-474v-76z" />
<glyph d="M216 1228l12 -14l242 164v-1546h72v1546l228 -162l18 10l-282 434z" />
<glyph d="M474 -290h76v986h474v76h-474v986h-76v-2048z" />
<glyph d="M10 706h748l-158 -210l10 -14l404 258l-396 280l-8 -10l148 -228h-748v-76z" />
<glyph d="M8 744l384 -284l12 12l-156 234h768v76h-772l156 218l-8 14z" />
<glyph d="M14 222h1000v76h-926v948h-74v-1024z" />
<glyph d="M8 736l288 256l14 -14l-108 -204h620l-112 198l16 10l298 -250l-304 -248l-12 12l112 204h-616l106 -204l-16 -12z" />
<glyph d="M8 176l504 1204l506 -1204h-1010z" />
<glyph d="M10 1372l502 -1214l502 1214h-1004z" />
<glyph unicode=" "  horiz-adv-x="682" />
<glyph unicode="&#x09;" horiz-adv-x="682" />
<glyph unicode="&#xa0;" horiz-adv-x="682" />
<glyph unicode="!" horiz-adv-x="682" d="M238 58q0 -40 24 -70q28 -32 76 -32q46 0 74 32q26 30 26 70q0 44 -26 74q-28 32 -74 32q-48 0 -76 -32q-24 -30 -24 -74zM274 984l34 -572q2 -48 28 -48q28 0 30 48l40 572v470q0 28 -22 44q-18 16 -44 16q-28 0 -46 -16q-20 -16 -20 -44v-470z" />
<glyph unicode="&#x22;" horiz-adv-x="768" d="M204 1066q0 -44 46 -44t46 44v486q0 50 -46 50t-46 -50v-486zM472 1066q0 -44 46 -44t46 44v486q0 50 -46 50t-46 -50v-486z" />
<glyph unicode="#" horiz-adv-x="1536" d="M102 546q0 -46 48 -46h324l-80 -478q-10 -52 42 -54t62 40l82 492h280l-78 -482q-10 -48 44 -48q54 -2 62 40l82 490h328q50 0 50 46q0 44 -50 44h-312l46 284h324q54 0 54 44t-54 44h-310l78 464q6 44 -48 48q-52 4 -58 -38l-80 -474h-280l76 464q6 44 -46 50t-60 -38 l-78 -476h-344q-50 0 -50 -44t50 -44h328l-46 -284h-338q-48 0 -48 -44zM594 590l48 284h282l-48 -284h-282z" />
<glyph unicode="$" horiz-adv-x="1224" d="M110 462q0 -242 142 -354q104 -78 300 -96v-146q0 -52 50 -52q52 0 52 52v144q182 14 304 118q130 112 130 286q0 162 -112 254q-96 80 -322 142v564q106 -6 172 -54q86 -64 92 -190q0 -34 20 -54q18 -18 42 -18q26 0 42 18q20 20 20 54q0 156 -106 252q-106 94 -282 102 v108q0 50 -52 50q-50 0 -50 -50v-108q-176 -6 -288 -102q-122 -106 -122 -282q0 -150 108 -242q98 -84 302 -132v-604q-144 14 -224 80q-104 88 -102 260q0 34 -18 52q-16 18 -40 18t-40 -18q-18 -18 -18 -52zM268 1114q0 124 96 196q78 58 188 66v-538q-154 40 -220 108 q-64 66 -64 168zM654 122v572q174 -44 236 -100q70 -62 70 -192t-106 -206q-84 -62 -200 -74z" />
<glyph unicode="%" horiz-adv-x="1792" d="M144 1092q0 144 96 242q98 96 242 96q142 0 240 -96q98 -98 98 -242q0 -142 -100 -240q-98 -100 -238 -100q-142 0 -240 100q-98 98 -98 240zM262 1090q0 -90 62 -154q64 -66 158 -66q90 0 156 66q66 64 66 154q0 94 -66 158q-64 62 -156 62q-96 0 -158 -62 q-62 -64 -62 -158zM414 44q-30 -44 8 -68q36 -22 68 22l896 1434q24 42 -16 62t-66 -24zM992 380q0 144 98 240t242 96q142 0 240 -96t98 -240q0 -142 -98 -240q-98 -100 -240 -100t-242 100q-98 98 -98 240zM1112 380q0 -92 64 -156q64 -66 156 -66t156 66q64 64 64 156 q0 94 -64 156q-64 64 -156 64q-94 0 -158 -64q-62 -64 -62 -156z" />
<glyph unicode="&#x26;" horiz-adv-x="1408" d="M130 344q0 -138 82 -242q116 -146 358 -146q152 0 270 66q98 54 198 170l182 -214q18 -22 46 -24q24 -2 46 12q20 16 26 38q4 26 -12 48l-212 246q54 96 80 164q28 72 40 142q2 32 -14 54q-16 20 -40 24q-26 6 -46 -6t-24 -40q-10 -58 -32 -118q-20 -56 -54 -118 l-344 408q144 88 216 168q96 110 96 240q0 118 -80 202q-92 94 -250 94q-168 0 -268 -98q-88 -88 -88 -212q0 -92 58 -190q36 -58 126 -162l16 -18q-208 -124 -294 -238q-82 -110 -82 -250zM256 366q0 100 86 198q72 80 232 182l376 -460q-82 -108 -174 -162 q-94 -58 -198 -58q-148 0 -236 84q-86 82 -86 216zM432 1208q0 92 48 140q56 54 178 54q88 0 142 -40q66 -48 66 -146q0 -94 -80 -184q-66 -76 -174 -132q-92 108 -126 160q-54 84 -54 148z" />
<glyph unicode="'" horiz-adv-x="580" d="M250 1066q0 -44 46 -44t46 44v486q0 50 -46 50t-46 -50v-486z" />
<glyph unicode="(" horiz-adv-x="768" d="M214 734q0 -270 64 -492q74 -248 228 -426q22 -26 50 -28q26 -2 46 16t22 44q2 30 -18 54q-146 180 -210 384q-60 194 -60 448q0 244 66 444q62 188 206 400q16 26 10 50q-4 22 -26 36q-20 12 -44 10q-26 -2 -42 -26q-154 -220 -224 -444q-68 -218 -68 -470z" />
<glyph unicode=")" horiz-adv-x="768" d="M142 -152q2 -26 22 -44t46 -16q28 2 52 28q152 178 226 426q66 222 66 492q0 252 -70 470q-70 224 -222 444q-18 24 -44 26q-24 2 -44 -10q-22 -14 -26 -36q-6 -24 12 -50q142 -212 204 -400q68 -200 68 -444q0 -254 -62 -448q-64 -204 -208 -384q-22 -24 -20 -54z" />
<glyph unicode="*" d="M140 850q-8 -22 2 -44q12 -24 38 -34l232 -72l-160 -222q-16 -22 -10 -46t26 -42q18 -16 40 -16q24 2 42 24l166 238l154 -238q16 -22 42 -24q22 0 44 18q20 16 26 40q8 26 -8 48l-158 220l234 72q28 10 38 34q8 20 -2 44q-8 24 -28 36q-22 14 -46 6l-242 -70v252 q0 26 -20 42q-18 12 -42 12q-26 0 -44 -12q-18 -16 -18 -42v-252l-226 70q-32 8 -54 -4q-20 -12 -26 -38z" />
<glyph unicode="+" horiz-adv-x="1280" d="M114 736q0 -56 50 -56h410v-420q0 -26 18 -40t44 -14q24 0 42 14q20 14 20 40v420h408q50 0 50 56q0 54 -50 54h-408v406q0 26 -20 40q-18 14 -42 14q-26 0 -44 -14t-18 -40v-406h-410q-50 0 -50 -54z" />
<glyph unicode="," horiz-adv-x="684" d="M214 -196l24 -26q98 64 148 134q64 88 64 200q0 46 -28 78q-30 34 -80 34q-52 0 -82 -34q-26 -30 -26 -78q0 -46 26 -78q30 -36 82 -36q-6 -44 -42 -100q-36 -52 -86 -94z" />
<glyph unicode="-" horiz-adv-x="1280" d="M134 736q0 -56 48 -56h912q50 0 50 56q0 54 -50 54h-912q-50 0 -48 -54z" />
<glyph unicode="." horiz-adv-x="684" d="M234 76q0 -44 26 -76q30 -36 82 -36q50 0 80 36q28 32 28 76q0 48 -28 80q-30 34 -80 34q-52 0 -82 -34q-26 -32 -26 -80z" />
<glyph unicode="/" horiz-adv-x="854" d="M104 -108q-14 -48 32 -58q46 -12 64 38l552 1704q14 46 -32 58q-44 10 -56 -34z" />
<glyph unicode="0" horiz-adv-x="1176" d="M126 734q0 -314 114 -530q128 -240 348 -240q218 0 346 240q116 216 116 530q0 316 -116 532q-128 238 -346 238q-220 0 -348 -238q-114 -216 -114 -532zM252 732q0 272 82 456q92 204 254 204q158 0 252 -204q84 -184 84 -456q0 -268 -84 -452q-94 -204 -252 -204 q-162 0 -254 204q-82 184 -82 452z" />
<glyph unicode="1" horiz-adv-x="1176" d="M288 1194q2 -46 50 -46h220v-1110q0 -34 18 -56q18 -18 44 -20q24 0 42 20q20 20 20 54v1418q0 52 -52 50t-54 -50q-6 -118 -74 -170q-58 -44 -170 -44q-46 0 -44 -46z" />
<glyph unicode="2" horiz-adv-x="1176" d="M124 -2h874q26 0 42 18q16 16 16 38q0 24 -16 40t-42 16h-742q14 144 82 236q78 108 290 240l40 28q196 124 258 196q98 112 98 292q0 164 -108 276q-122 126 -324 126q-204 0 -324 -126q-106 -112 -106 -276v-52q0 -34 18 -54q18 -18 44 -18t44 18q20 18 20 48v58 q0 120 76 200q84 90 228 90t230 -90q76 -80 76 -200q0 -146 -90 -248q-70 -76 -270 -200q-210 -126 -308 -274q-108 -162 -106 -382z" />
<glyph unicode="3" horiz-adv-x="1176" d="M122 404q0 -178 116 -302q128 -138 350 -138q216 0 346 138q120 126 120 302q0 148 -86 260q-66 84 -154 122q64 28 118 100q74 96 74 224q0 160 -108 272q-120 122 -322 122t-320 -122q-106 -110 -106 -272q0 -30 18 -50q16 -16 42 -16q24 0 40 16q20 20 20 50 q0 116 74 196q84 86 230 86q142 0 226 -86q78 -80 78 -196q0 -112 -78 -190q-82 -84 -226 -84h-56q-56 0 -56 -54q0 -56 56 -56h70q162 0 258 -98q86 -90 86 -226q0 -130 -86 -222q-96 -104 -258 -104t-258 104q-84 92 -84 222v44q0 30 -20 46q-18 14 -42 14q-26 0 -44 -14 q-18 -16 -18 -46v-42z" />
<glyph unicode="4" horiz-adv-x="1176" d="M88 402q12 -48 64 -48h604v-328q0 -30 18 -46t44 -16q24 0 42 16q20 18 20 46v328h190q28 0 44 18q16 16 16 38t-14 38q-16 16 -40 16h-196v972q0 64 -56 68q-56 2 -92 -54l-622 -952q-32 -50 -22 -96zM230 464l526 812v-812h-526z" />
<glyph unicode="5" horiz-adv-x="1176" d="M122 252q28 -130 148 -210q120 -78 286 -78q254 0 384 156q112 134 112 346q0 208 -114 348q-124 156 -338 156q-90 0 -166 -28q-72 -26 -126 -80l76 496h534q30 0 50 18q16 16 16 38q0 24 -18 40t-48 16h-638l-104 -706q-12 -62 36 -84q48 -20 88 38q40 62 104 98 q78 42 172 42q164 0 262 -120q88 -110 88 -272q0 -158 -94 -270q-102 -120 -268 -120q-134 0 -218 58q-80 56 -100 148q-8 32 -32 44q-22 12 -46 6q-26 -6 -40 -28t-6 -52z" />
<glyph unicode="6" horiz-adv-x="1176" d="M124 604q0 -368 150 -526q110 -114 302 -114q226 0 350 132q128 134 128 380q0 226 -146 356q-122 106 -276 106q-146 0 -250 -58q-84 -48 -132 -128q14 254 90 420q102 220 294 220q118 0 186 -66q58 -56 74 -154q12 -60 72 -50q62 12 56 68q-20 160 -134 242 q-100 72 -252 72q-264 0 -398 -270q-114 -236 -114 -630zM250 460q0 158 98 262q100 104 252 104q166 0 254 -110q76 -98 76 -254q0 -174 -94 -280q-92 -106 -242 -106q-152 0 -248 106t-96 278z" />
<glyph unicode="7" horiz-adv-x="1176" d="M142 1416q0 -56 56 -56h710q-214 -264 -384 -686q-146 -366 -180 -626q-6 -36 12 -60q18 -22 46 -24t50 16q24 22 30 60q52 420 258 832q154 312 308 472q38 42 18 84t-74 42h-794q-56 0 -56 -54z" />
<glyph unicode="8" horiz-adv-x="1176" d="M106 412q0 -180 122 -308q136 -140 360 -140q226 0 362 140q124 128 124 308q0 132 -70 240q-66 102 -172 152q74 30 128 100q70 92 70 220q0 154 -112 262q-124 118 -328 118t-328 -118q-110 -108 -110 -262q0 -128 68 -218q52 -70 124 -100q-112 -60 -174 -158 q-64 -104 -64 -236zM228 410q0 138 92 232q100 104 270 104q168 0 270 -104q94 -94 94 -232q0 -136 -94 -230q-102 -104 -270 -104q-170 0 -270 104q-92 94 -92 230zM274 1124q0 110 80 186q88 82 236 82t238 -82q82 -76 82 -186t-82 -184q-90 -84 -238 -84t-236 84 q-80 74 -80 184z" />
<glyph unicode="9" horiz-adv-x="1176" d="M124 980q0 -236 146 -356q116 -96 278 -96q142 0 248 60q84 48 134 124q-14 -320 -92 -466q-90 -170 -292 -170q-120 0 -188 68q-58 56 -72 152q-14 62 -74 52q-62 -12 -54 -70q16 -158 130 -240q100 -74 254 -74q278 0 396 212q116 208 116 696q0 366 -152 520 q-110 112 -298 112q-228 0 -352 -132q-128 -136 -128 -392zM250 994q0 184 92 292q90 106 244 106q164 0 258 -118q86 -108 86 -278q0 -152 -100 -254q-100 -104 -250 -104q-168 0 -256 112q-74 94 -74 244z" />
<glyph unicode=":" horiz-adv-x="684" d="M234 330q0 -44 26 -78q30 -36 82 -36q50 0 80 36q28 34 28 78q0 46 -28 78q-30 34 -80 34q-52 0 -82 -34q-26 -32 -26 -78zM234 1138q0 -44 26 -76q30 -36 82 -36q50 0 80 36q28 32 28 76q0 46 -28 78q-30 36 -80 36q-52 0 -82 -36q-26 -32 -26 -78z" />
<glyph unicode=";" horiz-adv-x="684" d="M214 26l24 -26q98 64 148 134q64 88 64 198q0 48 -28 80q-30 34 -80 34q-52 0 -82 -34q-26 -32 -26 -80q0 -44 26 -76q30 -36 82 -36q-6 -44 -42 -100q-36 -52 -86 -94zM234 1138q0 -44 26 -76q30 -36 82 -36q50 0 80 36q28 32 28 76q0 46 -28 78q-30 36 -80 36 q-52 0 -82 -36q-26 -32 -26 -78z" />
<glyph unicode="&#x3c;" horiz-adv-x="1280" d="M116 732q0 -66 64 -94l902 -570q24 -12 48 -6q20 8 32 28q10 20 4 44q-6 26 -32 42l-868 558l870 558q24 14 28 40q6 22 -6 44t-34 30q-24 8 -50 -6l-896 -578q-66 -36 -62 -90z" />
<glyph unicode="=" horiz-adv-x="1280" d="M118 540q0 -56 50 -56h942q50 0 50 56q0 54 -50 54h-942q-50 0 -50 -54zM118 932q0 -56 50 -56h942q50 0 50 56q0 54 -50 54h-942q-50 0 -50 -54z" />
<glyph unicode="&#x3e;" horiz-adv-x="1280" d="M114 134q-6 -24 4 -44q12 -20 32 -28q24 -6 50 6l900 570q64 40 64 94q0 50 -60 90l-896 578q-28 14 -52 6q-22 -8 -34 -30t-6 -44q4 -26 30 -40l870 -558l-870 -558q-26 -16 -32 -42z" />
<glyph unicode="?" horiz-adv-x="1110" d="M142 1090q0 -32 18 -50q18 -16 44 -14q24 0 42 18q20 20 20 48q0 112 52 194q76 116 246 116q144 0 218 -78q62 -64 64 -166q0 -90 -38 -160q-44 -80 -158 -176q-96 -78 -134 -174q-38 -92 -38 -234q0 -28 18 -46q18 -16 44 -16q24 0 42 16q20 18 20 46q0 140 34 216 q34 72 132 152q108 92 156 178q46 84 46 188q0 176 -116 274q-104 90 -268 90h-22q-170 0 -290 -106q-132 -118 -132 -316zM440 58q0 -42 24 -70q26 -32 76 -32q46 0 74 32q26 30 26 70q0 44 -26 74q-28 32 -74 32q-50 0 -76 -32q-24 -30 -24 -74z" />
<glyph unicode="@" horiz-adv-x="2048" d="M122 672q0 -196 74 -348t226 -268q120 -90 274 -136q156 -48 346 -48q176 0 338 56q162 54 302 160q28 28 12 46q-18 20 -48 -6q-128 -86 -288 -136q-160 -48 -318 -48q-374 0 -594 196t-220 520q0 208 76 376q78 170 232 296q114 96 258 144q142 48 312 48 q326 0 526 -168q200 -166 200 -438q0 -150 -64 -284q-60 -130 -160 -206q-52 -36 -104 -56q-54 -20 -100 -20q-56 0 -86 26t-30 68q0 16 4 42q6 28 18 66l136 552q4 20 -10 34q-12 12 -34 14q-24 4 -42 -6q-20 -12 -24 -36l-32 -134q-30 84 -96 128q-64 42 -160 42 q-190 0 -324 -156q-136 -158 -136 -390q0 -158 78 -242q80 -84 236 -84q88 0 164 50q76 48 126 134l-4 -36q0 -72 48 -110t144 -38q78 0 158 30t148 82q116 92 178 232q64 140 64 308q0 150 -66 278t-192 226q-104 80 -244 124q-148 44 -310 44q-248 0 -450 -90t-344 -266 q-98 -118 -148 -262q-50 -146 -50 -310zM692 598q0 202 102 340q102 136 256 136q92 0 152 -52q58 -52 80 -152l-64 -252q-30 -120 -116 -192q-84 -74 -194 -74q-102 0 -160 64q-56 66 -56 182z" />
<glyph unicode="A" horiz-adv-x="1322" d="M50 -2q12 -24 36 -32t46 4q26 14 38 44l170 466h642l168 -466q12 -30 36 -44q24 -10 48 -2t34 30q12 26 2 56l-496 1356q-16 46 -48 70q-30 22 -64 22q-38 0 -68 -22q-32 -24 -48 -70l-494 -1356q-14 -32 -2 -56zM380 590l278 760h6l276 -760h-560z" />
<glyph unicode="B" horiz-adv-x="1386" d="M192 190q0 -78 46 -132q52 -60 144 -60h474q196 0 312 130q104 116 104 284q0 130 -70 228q-62 90 -172 142q84 50 128 130q46 78 46 178q0 154 -96 262q-106 118 -282 118h-444q-92 0 -144 -60q-46 -54 -46 -134v-1086zM316 198v518h528q140 0 226 -94q78 -86 78 -210 t-74 -208q-82 -94 -220 -94h-450q-44 0 -68 28q-20 24 -20 60zM316 826v442q0 38 20 62q24 28 68 28h410q126 0 198 -82q68 -74 68 -184q0 -106 -68 -182q-74 -84 -198 -84h-498z" />
<glyph unicode="C" horiz-adv-x="1470" d="M126 734q0 -356 180 -564q174 -206 462 -206q254 0 406 140q128 116 176 316q8 36 -8 60q-14 22 -42 28q-26 6 -48 -6q-24 -14 -30 -46q-44 -204 -168 -298q-110 -82 -286 -82q-232 0 -370 162q-148 174 -148 496q0 314 148 492q142 166 370 166q174 0 288 -80 q126 -88 160 -262q6 -36 30 -52q20 -14 44 -8q26 6 40 26q16 24 12 52q-36 192 -166 306q-152 130 -408 130q-286 0 -462 -210q-180 -212 -180 -560z" />
<glyph unicode="D" horiz-adv-x="1478" d="M192 190q0 -78 46 -132q52 -60 144 -60h286q328 0 514 220q174 202 174 516t-174 516q-186 220 -514 220h-286q-92 0 -144 -60q-46 -54 -46 -134v-1086zM316 198v1070q0 38 20 62q24 28 68 28h264q268 0 420 -184q142 -170 142 -440q0 -268 -142 -438 q-152 -186 -420 -186h-264q-44 0 -68 28q-20 24 -20 60z" />
<glyph unicode="E" horiz-adv-x="1280" d="M192 190q0 -78 46 -132q52 -60 144 -60h756q30 0 48 18q16 16 16 38q0 24 -16 40q-18 16 -48 16h-734q-44 0 -68 28q-20 24 -20 60v506h726q30 0 48 18q16 16 16 38q0 24 -16 40q-18 16 -48 16h-726v452q0 38 20 62q24 28 68 28h708q28 0 46 18q16 16 16 38q0 24 -16 40 q-18 16 -46 16h-730q-92 0 -144 -60q-46 -54 -46 -134v-1086z" />
<glyph unicode="F" horiz-adv-x="1220" d="M192 28q0 -30 18 -48q18 -16 44 -16q24 0 42 16q20 18 20 48v674h686q30 0 48 18q16 16 16 38t-16 38q-18 16 -48 16h-686v456q0 38 20 62q24 28 68 28h674q30 0 48 18q16 16 16 38q0 24 -16 40q-18 16 -48 16h-696q-92 0 -144 -60q-46 -54 -46 -134v-1248z" />
<glyph unicode="G" horiz-adv-x="1576" d="M126 734q0 -358 182 -564q180 -206 490 -206q182 0 312 74q126 70 192 206v-192q0 -30 18 -48q18 -16 44 -16q24 0 42 16q20 18 20 48v620q0 38 -24 64q-24 28 -66 28h-480q-56 0 -56 -56t56 -56h446q0 -304 -156 -452q-132 -124 -348 -124q-254 0 -396 162 q-150 170 -150 496q0 318 150 492q144 166 396 166q194 0 316 -78q124 -82 156 -238q4 -30 30 -44q22 -14 48 -10q28 4 44 24q16 22 10 54q-40 172 -170 276q-162 128 -434 128q-306 0 -490 -210q-182 -210 -182 -560z" />
<glyph unicode="H" horiz-adv-x="1496" d="M192 28q0 -30 18 -48q18 -16 44 -16q24 0 42 16q20 18 20 48v704h864v-704q0 -30 18 -48q18 -16 44 -16q24 0 42 16q20 18 20 48v1410q0 32 -20 50q-18 16 -42 16q-26 0 -44 -16q-18 -18 -18 -50v-594h-864v594q0 32 -20 50q-18 16 -42 16q-26 0 -44 -16q-18 -18 -18 -50 v-1410z" />
<glyph unicode="I" horiz-adv-x="552" d="M216 28q0 -30 18 -48q18 -16 44 -16q24 0 42 16q20 18 20 48v1410q0 32 -20 50q-18 16 -42 16q-26 0 -44 -16q-18 -18 -18 -50v-1410z" />
<glyph unicode="J" d="M38 346q0 -154 96 -260q110 -122 300 -122t298 124q100 110 100 274v1076q0 32 -20 50q-18 16 -44 16t-44 -16q-18 -18 -18 -50v-1062q0 -138 -68 -216q-72 -84 -204 -84t-206 84q-66 76 -66 198q0 28 -20 42q-18 14 -42 12q-26 0 -44 -16q-18 -18 -18 -50z" />
<glyph unicode="K" horiz-adv-x="1300" d="M190 30q0 -30 18 -48q18 -16 44 -16q24 0 42 16q20 18 20 48v488l256 260l586 -784q16 -24 44 -28q24 -4 46 8q22 14 26 36q4 26 -14 52l-598 800l530 538q24 26 24 50t-18 40q-20 16 -46 14q-28 0 -50 -24l-786 -796v760q0 28 -20 44q-18 14 -42 14q-26 0 -44 -14 q-18 -16 -18 -44v-1414z" />
<glyph unicode="L" horiz-adv-x="1112" d="M192 190q0 -78 46 -132q52 -60 144 -60h638q30 0 48 18q16 16 16 38q0 24 -16 40q-18 16 -48 16h-616q-44 0 -68 28q-20 24 -20 60v1240q0 32 -20 50q-18 16 -42 16q-26 0 -44 -16q-18 -18 -18 -50v-1248z" />
<glyph unicode="M" horiz-adv-x="1664" d="M192 28q0 -30 18 -48q18 -16 44 -16q24 0 42 16q20 18 20 48v1270l426 -1260q32 -74 88 -74q58 0 90 74l426 1260v-1270q0 -30 18 -48q18 -16 44 -16t44 16q20 18 20 48v1378q0 44 -28 70q-24 24 -60 26q-7 1 -13 1q-29 0 -55 -15q-32 -22 -44 -60l-40 -118l-400 -1162 l-396 1158l-44 128q-12 34 -44 54q-27 16 -60 16h-8q-38 -4 -62 -28q-26 -26 -26 -70v-1378z" />
<glyph unicode="N" horiz-adv-x="1432" d="M192 34q0 -32 18 -52q18 -18 44 -20q26 0 44 18q20 20 20 54v1242l678 -1118l112 -164q17 -30 50 -30q13 0 28 4q54 14 54 82v1400q0 26 -20 40q-18 14 -44 14t-44 -12q-18 -16 -18 -42v-1256l-702 1168l-68 100q-28 43 -76 43q-8 0 -16 -1q-60 -10 -60 -80v-1390z" />
<glyph unicode="O" horiz-adv-x="1576" d="M122 734q0 -324 156 -532q180 -238 510 -238q328 0 508 238q160 208 160 532t-160 534q-180 236 -508 236q-330 0 -510 -236q-156 -210 -156 -534zM246 734q0 288 126 462q142 198 416 198q272 0 416 -198q128 -176 128 -462q0 -284 -128 -462q-144 -198 -416 -198 q-274 0 -416 198q-126 176 -126 462z" />
<glyph unicode="P" horiz-adv-x="1304" d="M192 28q0 -30 18 -48q18 -16 44 -16q24 0 42 16q20 18 20 48v616h464q194 0 308 130q104 116 104 282q0 170 -104 286q-114 128 -308 128h-398q-92 0 -144 -60q-46 -54 -46 -134v-1248zM316 754v514q0 38 20 62q24 28 68 28h360q142 0 226 -94q76 -86 76 -210 q0 -120 -76 -206q-84 -94 -226 -94h-448z" />
<glyph unicode="Q" horiz-adv-x="1584" d="M128 734q0 -316 162 -530q184 -240 506 -240q102 0 200 28q90 24 144 62l194 -154q24 -18 50 -16q22 4 38 22q14 18 14 42q-2 24 -20 38l-176 144q106 102 164 258t58 346q0 322 -166 534q-182 236 -500 236q-322 0 -506 -236q-162 -212 -162 -534zM252 734 q0 286 132 464q146 196 412 196q262 0 408 -196q134 -180 134 -464q0 -174 -54 -316q-48 -132 -130 -214l-232 190q-22 18 -48 14q-22 -4 -40 -22q-16 -20 -16 -42q2 -26 26 -46l200 -168q-34 -20 -100 -36q-76 -20 -148 -20q-266 0 -412 202q-132 180 -132 458z" />
<glyph unicode="R" horiz-adv-x="1364" d="M192 32q0 -32 18 -50t44 -18q24 0 42 18q20 18 20 50v632h518q96 0 162 -46q72 -48 72 -132q0 -150 12 -268q16 -134 46 -214q10 -26 36 -36q24 -8 48 0q26 10 38 32q12 26 0 58q-26 72 -40 176q-14 114 -14 270q0 98 -62 158q-52 52 -120 58q108 38 172 130 q64 94 64 216q0 162 -104 278q-116 126 -310 126h-452q-92 0 -144 -60q-46 -54 -46 -134v-1244zM316 774v494q0 38 20 62q24 28 68 28h416q140 0 226 -92q76 -84 76 -200q0 -114 -76 -198q-86 -94 -226 -94h-504z" />
<glyph unicode="S" horiz-adv-x="1296" d="M116 410q20 -232 164 -342q132 -104 378 -104q218 0 362 106q156 112 156 300q0 192 -114 296q-118 108 -404 166q-218 44 -302 116q-80 68 -80 192t102 190q96 62 264 62q156 0 242 -64q86 -66 110 -208q4 -32 26 -48t48 -14q28 4 42 26q14 18 14 44q0 9 -2 18 q-24 148 -116 238q-124 120 -356 120q-234 0 -368 -96q-132 -98 -132 -272q0 -180 130 -280q110 -82 356 -140q256 -58 342 -142q72 -70 72 -218q0 -136 -138 -214q-114 -66 -258 -66q-192 0 -290 76q-110 82 -124 262q-4 34 -24 52q-18 16 -44 14q-24 -2 -40 -18 q-20 -20 -16 -52z" />
<glyph unicode="T" horiz-adv-x="1192" d="M42 1414q0 -56 48 -56h424v-1332q0 -28 18 -46q18 -16 44 -16q24 0 42 16q20 18 20 46v1332h406q30 0 48 18q18 16 18 38q0 24 -18 40t-48 16h-954q-48 0 -48 -56z" />
<glyph unicode="U" horiz-adv-x="1456" d="M192 510q0 -224 128 -374q144 -172 410 -172q264 0 408 172q128 150 128 374v936q0 28 -20 42q-18 16 -42 16q-26 0 -44 -12q-18 -16 -18 -42v-942q0 -180 -96 -296q-110 -136 -316 -136t-318 136q-96 118 -96 296v930q0 32 -20 50q-18 14 -42 14q-26 0 -44 -16 q-18 -18 -18 -48v-928z" />
<glyph unicode="V" horiz-adv-x="1228" d="M48 1414l470 -1358q26 -92 96 -92q68 0 98 92l468 1358q10 32 -2 56q-12 22 -36 30q-26 8 -48 -2q-26 -14 -34 -46l-442 -1300h-8l-442 1300q-12 32 -36 46q-24 12 -48 4t-36 -30q-12 -26 0 -58z" />
<glyph unicode="W" horiz-adv-x="1832" d="M52 1420l384 -1386q18 -68 76 -70q58 0 82 70l326 1250l328 -1248q18 -72 76 -72q60 0 78 72l384 1384q6 32 -8 56q-14 20 -40 26t-46 -6q-26 -14 -32 -46l-340 -1210l-310 1198q-18 66 -92 66q-72 0 -90 -66l-310 -1198l-344 1216q-8 28 -30 40t-46 6q-26 -4 -40 -24 q-14 -24 -6 -58z" />
<glyph unicode="X" horiz-adv-x="1280" d="M110 14q4 -24 26 -38q20 -16 44 -12q28 4 46 30l424 654l426 -654q16 -26 44 -30q24 -4 44 12q22 14 26 38q6 26 -10 50l-452 690l428 658q16 24 8 46q-6 22 -28 36q-24 12 -48 8q-28 -4 -46 -30l-392 -612l-390 612q-18 26 -46 30q-24 4 -48 -8q-22 -14 -28 -34 q-8 -24 8 -46l426 -660l-450 -690q-18 -24 -12 -50z" />
<glyph unicode="Y" horiz-adv-x="1280" d="M66 1456q-8 -24 10 -50l478 -760v-616q0 -30 18 -50q18 -16 44 -16t44 16q20 20 20 50v616l482 764q16 28 10 52q-8 22 -30 34q-24 10 -48 4q-28 -6 -44 -34l-432 -682l-436 690q-16 26 -42 28q-24 4 -44 -10q-24 -12 -30 -36z" />
<glyph unicode="Z" horiz-adv-x="1280" d="M78 50q14 -52 80 -52h928q30 0 48 18q16 16 16 38q0 24 -16 40q-20 16 -48 16h-858l918 1236q23 30 23 56q0 15 -7 28q-18 40 -86 40h-872q-30 0 -46 -16q-14 -16 -14 -40q0 -22 14 -38q18 -18 46 -18h794l-892 -1204q-32 -40 -32 -79q0 -13 4 -25z" />
<glyph unicode="[" d="M384 -208h356q46 0 46 56q-2 54 -50 54h-228v1662h228q52 0 52 56q0 54 -52 54h-352v-1882z" />
<glyph unicode="\" horiz-adv-x="1878" d="M2 912q0 -40 38 -40h210l210 -840q18 -68 72 -68q56 0 78 70l226 838h206l224 -836q20 -72 76 -72q58 0 76 72l210 836h206q40 0 42 40q0 38 -42 38h-188l118 470q8 32 -6 56q-14 20 -38 26q-26 6 -48 -6q-24 -14 -30 -46l-126 -500h-362l-134 488q-18 66 -82 66t-82 -66 l-132 -488h-360l-128 506q-8 28 -32 40q-22 12 -46 6q-26 -4 -38 -24q-16 -24 -6 -58l118 -470h-190q-38 0 -40 -38zM382 872h322l-166 -608zM856 950l82 302l82 -302h-164zM1174 872h322l-154 -608z" />
<glyph unicode="]" d="M234 1620q0 -56 54 -56h228v-1662h-228q-50 0 -50 -54q-2 -56 46 -56h356v1882h-352q-54 0 -54 -54z" />
<glyph unicode="^" horiz-adv-x="1110" d="M98 1014q36 -30 76 14l374 470l388 -470q14 -20 36 -24q20 -2 36 10q16 14 18 32q2 22 -14 42l-354 444q-48 60 -108 60t-108 -60l-344 -444q-38 -42 0 -74z" />
<glyph unicode="_" d="M0 -72v-112h1024v112h-1024z" />
<glyph unicode="`" horiz-adv-x="682" d="M162 1546q-8 -24 12 -50l228 -298q18 -28 56 -14t22 42l-194 322q-16 28 -44 34q-24 8 -48 -4q-26 -12 -32 -32z" />
<glyph unicode="a" horiz-adv-x="1152" d="M120 274q0 -146 90 -226q92 -84 272 -84q132 0 236 46q76 34 136 92q0 -62 36 -88q44 -28 158 -28q28 0 44 18q14 16 14 38q-2 24 -16 40q-16 16 -40 16q-36 0 -56 20q-18 18 -18 52v634q0 158 -116 234q-102 66 -282 66q-168 0 -270 -74q-104 -78 -128 -232 q-6 -30 12 -48q16 -18 40 -20q26 -2 44 12q22 14 26 40q10 100 70 152q68 60 204 60q140 0 210 -52q66 -50 66 -148q0 -86 -60 -118q-62 -34 -276 -64q-242 -30 -334 -134q-62 -72 -62 -204zM246 274q0 102 60 154q62 56 212 76t236 46q70 22 98 46v-340q-46 -82 -134 -128 q-98 -52 -236 -52q-122 0 -180 52q-56 48 -56 146z" />
<glyph unicode="b" horiz-adv-x="1240" d="M174 50q0 -32 20 -50q16 -14 42 -14q24 2 42 18q20 18 20 46v84q42 -70 128 -116q98 -54 226 -54q222 0 350 176q114 158 114 392q0 238 -114 396q-128 176 -350 176q-120 0 -208 -44q-86 -44 -146 -138v520q0 30 -20 48q-18 14 -42 14q-26 0 -44 -16q-18 -18 -18 -50 v-1388zM298 534q0 194 84 318q94 142 270 142q162 0 256 -142q82 -126 82 -318q0 -190 -82 -316q-92 -142 -256 -142q-176 0 -270 142q-84 124 -84 316z" />
<glyph unicode="c" horiz-adv-x="1172" d="M140 532q0 238 114 396q130 176 364 176q176 0 294 -84q98 -72 130 -178q6 -26 -10 -46q-14 -20 -40 -26q-28 -6 -50 4q-26 12 -32 40q-30 94 -102 138q-72 42 -198 42q-170 0 -262 -142q-82 -124 -82 -318q0 -198 82 -322q90 -136 262 -136q142 0 216 44t110 148 q8 28 36 40q24 10 50 4q28 -6 40 -26q14 -20 2 -50q-60 -126 -146 -190q-114 -82 -300 -82q-242 0 -368 172q-110 150 -110 396z" />
<glyph unicode="d" horiz-adv-x="1240" d="M128 530q0 -236 114 -392q128 -178 358 -178q120 0 218 54q84 48 128 118v-86q0 -28 18 -46q18 -16 42 -18q26 0 42 14q20 18 22 50v1388q0 32 -20 50q-18 16 -42 16q-26 0 -44 -14q-18 -18 -18 -48v-520q-62 94 -148 138q-84 44 -198 44q-230 0 -358 -176 q-114 -156 -114 -394zM254 530q0 192 82 318q94 142 264 142q168 0 262 -142q84 -126 84 -318q0 -190 -84 -316q-94 -142 -262 -142q-170 0 -264 142q-82 126 -82 316z" />
<glyph unicode="e" horiz-adv-x="1162" d="M122 532q0 -232 114 -392q126 -176 340 -176q152 0 264 78q110 74 168 214q12 30 0 56q-10 22 -34 30q-26 10 -50 2q-26 -12 -38 -42q-48 -104 -110 -156q-80 -70 -200 -70q-152 0 -242 138q-78 116 -86 286h786v32q0 234 -116 396q-128 176 -342 176t-340 -176 q-114 -162 -114 -396zM252 612q12 146 86 252q90 130 238 130t240 -132q74 -108 86 -250h-650z" />
<glyph unicode="f" horiz-adv-x="700" d="M108 1016q0 -22 16 -38q18 -18 48 -18h100v-928q0 -32 18 -52q18 -16 44 -16q24 0 42 18q20 20 20 50v928h146q30 0 48 18q16 16 16 38t-16 38q-18 16 -48 16h-146v232q0 38 20 62q24 28 68 28h58q30 0 48 18q16 16 16 38q0 24 -16 40q-18 16 -48 16h-80q-92 0 -144 -60 q-46 -54 -46 -134v-240h-100q-30 0 -48 -16q-16 -16 -16 -38z" />
<glyph unicode="g" horiz-adv-x="1240" d="M118 550q0 -232 114 -382q128 -170 358 -170q122 0 220 54q84 48 126 118v-118q0 -94 -84 -158q-92 -72 -262 -72q-136 0 -218 42q-76 38 -112 112q-14 24 -38 28q-22 6 -44 -8q-24 -12 -30 -34q-10 -24 6 -50q54 -100 166 -150q108 -50 268 -50q228 0 358 108 q116 94 116 234v974q0 28 -20 44q-18 14 -44 14t-44 -14q-18 -16 -18 -44v-106q-62 92 -146 138q-86 44 -200 44q-228 0 -358 -174q-114 -156 -114 -380zM242 552q0 178 82 302q96 140 264 140t264 -140q84 -124 84 -302q0 -188 -84 -308q-94 -134 -264 -134 q-172 0 -264 134q-82 120 -82 308z" />
<glyph unicode="h" horiz-adv-x="1170" d="M174 30q0 -32 18 -50t44 -18q24 2 42 18q20 20 20 52v750q74 104 156 156q90 56 194 56t164 -64q56 -56 56 -142v-758q0 -30 18 -50q18 -16 44 -16t44 16q20 20 20 50v758q0 130 -88 218q-96 98 -258 98q-116 0 -210 -50q-74 -40 -140 -116v502q0 30 -20 48 q-18 16 -42 16q-26 0 -44 -16q-18 -18 -18 -48v-1410z" />
<glyph unicode="i" horiz-adv-x="494" d="M158 1398q0 -42 24 -70q26 -32 74 -32q46 0 74 32q26 30 26 70q0 44 -26 74q-28 32 -74 32q-48 0 -74 -32q-24 -30 -24 -74zM194 30q0 -30 18 -50q18 -16 44 -16t44 18q20 18 20 48v1018q0 28 -20 44q-18 14 -44 14t-44 -16q-18 -14 -18 -42v-1018z" />
<glyph unicode="j" horiz-adv-x="494" d="M8 -230q4 -24 16 -40q16 -20 44 -20h32q86 0 154 80q64 74 64 176v1082q0 28 -20 44q-18 14 -44 14t-44 -16t-18 -44v-1098q0 -50 -32 -88q-30 -38 -65 -38h-3h-24q-28 -4 -44 -12q-12 -20 -16 -40zM158 1398q0 -42 24 -70q26 -32 74 -32q46 0 74 32q26 30 26 70 q0 44 -26 74q-28 32 -74 32q-48 0 -74 -32q-24 -30 -24 -74z" />
<glyph unicode="k" d="M174 26q0 -28 18 -46q18 -16 44 -16q24 0 42 18q20 18 20 48v362l192 190l384 -590q18 -24 46 -28q24 -2 46 14q20 14 24 40t-14 52l-400 596l346 342q24 22 26 48q0 22 -16 40q-18 16 -42 18q-26 0 -48 -20l-544 -538v882q0 32 -20 50q-18 16 -42 16q-26 0 -44 -16 q-18 -18 -18 -50v-1412z" />
<glyph unicode="l" horiz-adv-x="474" d="M174 26q0 -28 18 -46q18 -16 44 -16q24 0 42 16q20 16 20 44v1420q0 30 -20 46q-18 14 -42 14q-26 0 -44 -14q-18 -16 -18 -44v-1420z" />
<glyph unicode="m" horiz-adv-x="1764" d="M174 26q0 -28 18 -46q18 -16 44 -16q24 0 42 16q20 18 20 46v776q66 104 140 148t180 44q96 0 152 -56q50 -52 50 -138v-774q0 -28 18 -46q18 -16 44 -16q24 0 42 16q20 18 20 46v758q58 112 130 160q72 50 186 50q100 0 154 -56q50 -52 50 -138v-774q0 -28 18 -46 q18 -16 44 -16q24 0 42 16q20 18 20 46v794q0 108 -82 190q-94 94 -250 94q-114 0 -206 -52q-84 -46 -136 -128q-36 76 -94 120q-82 60 -206 60q-98 0 -192 -52q-76 -42 -124 -106v74q0 34 -20 52q-18 18 -42 18q-26 0 -44 -18t-18 -52v-994z" />
<glyph unicode="n" horiz-adv-x="1188" d="M174 30q0 -32 18 -50t44 -18q24 2 42 18q20 20 20 52v712q70 128 164 190q90 60 204 60q104 0 166 -64q56 -56 56 -142v-758q0 -30 18 -50q18 -16 44 -16q24 0 42 16q20 20 20 50v758q0 130 -88 218q-96 98 -258 98q-126 0 -220 -54q-90 -52 -148 -150v124q0 30 -20 48 q-18 16 -42 16q-26 0 -44 -16q-18 -18 -18 -48v-994z" />
<glyph unicode="o" horiz-adv-x="1240" d="M128 530q0 -236 118 -392q134 -178 372 -178q236 0 370 178q120 156 120 392q0 238 -120 394q-134 176 -370 176q-238 0 -372 -176q-118 -156 -118 -394zM254 530q0 192 86 318q100 142 278 142q176 0 274 -142q90 -126 90 -318q0 -188 -90 -316q-98 -142 -274 -142 q-178 0 -278 142q-86 126 -86 316z" />
<glyph unicode="p" horiz-adv-x="1240" d="M174 -216q0 -34 18 -56q18 -18 44 -18q24 -2 42 16q20 20 20 52v356q42 -70 126 -116q98 -54 222 -54q228 0 356 178q116 158 116 394t-116 392q-128 176 -356 176q-116 0 -202 -44q-86 -46 -146 -138v98q0 30 -20 48q-18 16 -42 16q-26 0 -44 -16q-18 -18 -18 -48v-1236 zM298 534q0 192 82 318q94 142 266 142q168 0 262 -142q84 -126 84 -318q0 -190 -84 -316q-94 -142 -262 -142q-172 0 -266 142q-82 126 -82 316z" />
<glyph unicode="q" horiz-adv-x="1240" d="M118 536q0 -236 114 -394q128 -178 358 -178q122 0 220 54q84 46 126 116v-356q0 -32 18 -52q18 -18 44 -16q26 0 44 18q20 22 20 56v1236q0 30 -20 48q-18 16 -44 16t-44 -16q-18 -18 -18 -48v-98q-62 92 -146 138q-86 44 -200 44q-230 0 -358 -176q-114 -156 -114 -392 zM244 534q0 192 82 318q94 142 264 142t262 -142q84 -124 84 -318q0 -192 -84 -316q-92 -142 -262 -142t-264 142q-82 126 -82 316z" />
<glyph unicode="r" horiz-adv-x="682" d="M174 30q0 -30 18 -48q18 -16 44 -16q24 0 42 16q20 18 20 48v780q36 78 104 122q76 50 174 50q48 0 48 57q0 65 -46 65q-96 0 -172 -48q-58 -36 -108 -106v82q0 28 -20 44q-18 12 -42 12q-26 0 -44 -14q-18 -16 -18 -42v-1002z" />
<glyph unicode="s" horiz-adv-x="1076" d="M124 284q6 -156 112 -238t304 -82t304 92q98 82 98 216t-82 210q-86 82 -296 130q-172 44 -236 94q-60 48 -60 130q0 70 68 116q68 42 170 42q134 0 202 -50q64 -46 72 -134q2 -28 24 -44q20 -14 46 -12q28 4 46 20q20 20 18 48q-10 122 -98 196q-104 86 -306 86 q-162 0 -262 -72q-106 -76 -106 -210q0 -124 88 -198q80 -70 258 -116q196 -48 268 -106q60 -46 60 -128q0 -88 -70 -140q-74 -58 -204 -58q-156 0 -226 58q-66 54 -66 158q-2 28 -22 42q-18 14 -44 12q-26 0 -42 -16q-20 -18 -18 -46z" />
<glyph unicode="t" horiz-adv-x="642" d="M74 1016q0 -56 46 -56h108v-802q0 -78 48 -132q52 -62 144 -62h94q28 0 46 18q16 16 16 38q0 24 -16 40q-18 16 -46 16h-72q-44 0 -68 30q-20 24 -20 60v794h164q52 0 52 56q0 54 -52 54h-164v278q0 30 -20 46q-18 14 -44 14t-44 -14q-18 -16 -18 -46v-278h-108 q-46 0 -46 -54z" />
<glyph unicode="u" horiz-adv-x="1168" d="M174 280q0 -126 84 -216q94 -100 252 -100q114 0 210 52q82 42 146 116v-88q0 -28 18 -46q18 -16 44 -16t44 16q20 18 20 46v1000q0 34 -20 52q-18 18 -44 18t-44 -18t-18 -52v-758q-74 -100 -162 -152q-92 -58 -194 -58q-100 0 -158 64q-54 58 -54 140v764q0 34 -20 52 q-18 18 -42 18q-26 0 -44 -18t-18 -52v-764z" />
<glyph unicode="v" d="M40 1030l370 -1000q18 -66 76 -66q56 0 78 66l372 1000q8 24 -8 44q-12 18 -38 26t-48 0q-24 -8 -32 -34l-322 -908l-322 908q-10 26 -34 34q-22 8 -48 0q-24 -8 -38 -26q-14 -20 -6 -44z" />
<glyph unicode="w" horiz-adv-x="1536" d="M40 1032l326 -994q18 -74 70 -74t72 74l238 822l238 -822q18 -74 70 -74t72 74l326 994q8 28 -8 48q-14 16 -40 22t-48 -4q-24 -8 -30 -32l-272 -842l-246 828q-16 52 -64 52q-46 0 -62 -52l-246 -826l-272 840q-8 24 -32 32q-22 10 -46 4q-26 -6 -40 -22q-16 -20 -6 -48 z" />
<glyph unicode="x" d="M52 10q6 -24 30 -38q22 -12 48 -6q28 6 48 34l310 466l306 -468q18 -28 46 -34q26 -4 48 8q22 14 28 36q8 26 -6 50l-346 508l322 450q14 20 6 44q-6 20 -30 32q-22 14 -46 12q-26 -4 -42 -26l-286 -410l-292 410q-18 22 -44 26q-26 2 -48 -10t-30 -32q-8 -22 8 -42 l332 -452l-350 -506q-18 -26 -12 -52z" />
<glyph unicode="y" d="M50 1020l374 -944l-70 -148q-28 -60 -50 -82q-26 -26 -70 -26h-90q-30 0 -46 -16q-14 -16 -14 -38t14 -38q16 -18 46 -18h90q82 0 144 50q64 50 110 152l452 1122q10 24 -4 44q-14 18 -40 24t-48 -2q-28 -8 -36 -34l-320 -828l-324 834q-10 26 -34 32t-48 -6 q-24 -10 -36 -30q-12 -22 0 -48z" />
<glyph unicode="z" d="M70 54q24 -56 102 -56h694q28 0 44 18q16 16 16 38q0 24 -16 40t-44 16h-644l648 816q30 34 30 66q0 16 -8 32q-24 46 -106 46h-646q-52 0 -52 -54q0 -56 54 -56h584l-632 -802q-32 -33 -32 -68q0 -18 8 -36z" />
<glyph unicode="{" d="M110 738q0 -56 46 -56h82q80 0 122 -60q42 -58 42 -170v-426q0 -118 58 -180q50 -56 130 -56h150q40 0 40 56t-44 56h-98q-66 0 -90 36q-22 32 -22 108v438q0 108 -60 170q-50 54 -146 78v4q94 24 146 80q60 66 60 172v434q0 76 22 108q26 38 90 38h104q40 0 40 56 q-2 56 -42 56h-150q-76 0 -130 -66q-58 -70 -58 -172v-422q0 -112 -42 -170t-122 -58h-82q-46 0 -46 -54z" />
<glyph unicode="|" d="M450 -86v-76q0 -26 18 -40q18 -16 44 -16t44 14q20 16 20 42v1798q0 50 -64 48q-62 0 -62 -50v-1720z" />
<glyph unicode="}" d="M240 1624q0 -56 42 -56h104q62 0 88 -38q24 -32 24 -108v-434q0 -106 58 -172q52 -56 148 -80v-4q-98 -24 -148 -78q-58 -62 -58 -170v-438q0 -76 -24 -108q-24 -36 -88 -36h-98q-46 0 -46 -56t42 -56h150q78 0 130 56q58 62 58 180v426q0 112 40 170q42 60 124 60h82 q44 0 44 56q0 54 -44 54h-82q-82 0 -124 58q-40 58 -40 170v422q0 102 -58 172q-56 66 -130 66h-150q-42 0 -44 -56z" />
<glyph unicode="~" horiz-adv-x="1622" d="M104 634q30 -46 76 -20l8 6q114 72 168 98q86 38 168 38q68 0 140 -22q44 -14 122 -50q86 -40 132 -56q78 -26 160 -26q106 0 222 42q120 42 206 112q42 38 4 80t-76 10q-84 -64 -172 -100q-92 -36 -184 -36q-64 0 -130 24q-38 12 -116 48q-86 40 -136 56q-84 26 -172 26 q-92 0 -198 -40t-206 -112q-46 -30 -16 -78z" />
<glyph d="M104 18h816v1432h-816v-1432zM204 118v1232h616v-1232h-616z" />
<glyph unicode="&#xa0;" />
<glyph unicode="&#xa1;" horiz-adv-x="854" d="M326 1166q0 -42 24 -72q26 -34 74 -34t76 34q26 30 26 72t-26 70q-28 32 -76 32t-74 -32q-24 -28 -24 -70zM360 -230q0 -26 20 -42q18 -16 46 -16t46 16q22 16 22 42v470l-40 572q-4 50 -30 50t-28 -50l-36 -572v-470z" />
<glyph unicode="&#xa2;" horiz-adv-x="1194" d="M140 508q0 -130 38 -238q40 -118 124 -194l-150 -266h108l118 210q48 -26 108 -40q58 -14 132 -14q196 0 312 98q104 88 126 238q2 30 -16 52q-18 20 -46 24t-48 -12q-24 -18 -26 -54q-14 -116 -92 -174q-78 -62 -218 -62q-52 0 -96 12q-42 12 -78 34l416 724 q18 -26 32 -52q12 -30 18 -60q4 -30 26 -46q22 -14 48 -10q28 4 44 22q20 20 18 50q-8 56 -38 110q-32 58 -86 100l128 216h-108l-98 -168q-50 24 -100 34q-58 12 -118 12q-232 0 -364 -174q-114 -152 -114 -372zM266 510q0 174 82 296q94 138 262 138q46 0 90 -10 q40 -10 78 -28l-412 -722q-52 60 -78 148q-22 82 -22 178z" />
<glyph unicode="&#xa3;" horiz-adv-x="1218" d="M94 138q0 -84 54 -132q48 -42 126 -44q92 0 164 52q64 46 94 120l22 -18q84 -70 134 -100q88 -52 170 -52q92 0 162 76q76 80 98 222q4 34 -12 56q-14 20 -40 24q-26 6 -48 -6q-22 -14 -26 -42q-22 -116 -44 -154q-32 -52 -104 -52q-48 2 -100 30q-30 16 -94 64 q-30 22 -46 32q-26 20 -48 32q4 82 -8 200q-12 92 -32 206h456v98h-474l-2 6q-16 82 -22 132q-10 80 -10 164q0 128 80 218t194 90q82 0 128 -38q60 -48 60 -164v-80q0 -36 22 -56q20 -20 50 -22q30 0 50 20q24 20 24 56v82q0 140 -94 212q-86 68 -228 68q-182 0 -292 -104 q-126 -118 -126 -352q0 -64 6 -128l16 -96l2 -8h-252v-98h274q22 -82 42 -188q18 -106 24 -166q-34 12 -70 18q-38 4 -78 4q-96 0 -150 -50q-52 -48 -52 -132zM188 146q0 38 24 66q30 30 80 32q38 0 76 -10q36 -10 70 -30q-10 -78 -56 -122q-38 -38 -88 -38q-48 0 -76 24 q-30 26 -30 78z" />
<glyph unicode="&#xa4;" horiz-adv-x="1152" d="M66 1054l174 -176q-54 -68 -82 -152q-26 -84 -26 -176q0 -88 26 -170q28 -84 82 -150l-172 -178l48 -48l172 178q54 -48 122 -72q74 -28 162 -28q86 0 160 30q70 26 124 76l174 -182l46 48l-174 178q54 64 82 148q28 82 28 170q0 92 -28 174q-28 86 -82 148l182 186 l-50 50l-180 -184q-54 48 -124 72q-72 24 -158 24t-160 -24q-70 -24 -126 -70l-174 172zM236 550q0 152 84 256q92 116 252 116t252 -116q86 -104 86 -256q0 -150 -86 -254q-92 -118 -252 -118t-252 118q-84 104 -84 254z" />
<glyph unicode="&#xa5;" horiz-adv-x="1280" d="M58 562q0 -20 16 -34q16 -18 48 -18h432v-480q0 -30 18 -50q18 -16 44 -16q24 0 42 16q20 20 20 50v480h440q28 0 44 18q16 14 16 34q0 22 -16 36q-18 16 -48 16h-436v100l70 90h370q28 0 44 18q16 14 16 34q0 22 -16 36q-18 16 -48 16h-286l334 436q16 28 10 52 q-8 22 -30 34q-24 12 -48 6q-28 -6 -44 -34l-380 -494h-106l-382 502q-16 24 -42 28q-24 4 -44 -10q-24 -14 -30 -36q-8 -24 10 -50l328 -434h-282q-30 0 -48 -16q-16 -14 -16 -36q0 -20 16 -34q16 -18 48 -18h362l70 -90v-100h-432q-30 0 -48 -16q-16 -14 -16 -36z" />
<glyph unicode="&#xa6;" horiz-adv-x="512" d="M204 -286h110v712h-110v-712zM204 680h110v712h-110v-712z" />
<glyph unicode="&#xa7;" horiz-adv-x="1152" d="M138 686q0 -56 22 -110q34 -74 114 -134l334 -240q42 -34 62 -68q34 -56 34 -136q0 -84 -54 -116q-42 -28 -132 -28q-102 0 -146 42q-40 38 -40 118q0 32 -24 52q-22 16 -52 16q-32 0 -54 -16q-22 -18 -22 -48q0 -152 92 -228q86 -74 256 -74q148 0 236 76q92 76 92 210 q0 106 -26 170q-20 46 -66 100q80 54 122 112q56 78 56 182q0 106 -56 182q-44 60 -134 114l-246 158q-66 42 -94 82q-34 48 -34 114q0 68 58 110q52 36 124 36q106 0 142 -36q38 -38 38 -144q0 -24 22 -38q20 -14 50 -12q28 0 48 14q24 18 24 44q0 160 -94 240 q-82 72 -226 72q-148 0 -246 -92q-88 -86 -88 -194q0 -82 16 -134q18 -52 64 -106q-86 -50 -124 -108q-48 -72 -48 -182zM280 726q0 62 32 108q30 42 84 72l296 -198q48 -30 74 -72q32 -46 32 -104q0 -64 -36 -112q-24 -34 -82 -76l-296 210q-48 32 -70 62q-34 46 -34 110z " />
<glyph unicode="&#xa8;" d="M230 1288q0 -42 26 -72q30 -34 80 -34t80 34q28 30 28 72q0 44 -28 74q-30 32 -80 32t-80 -32q-26 -30 -26 -74zM588 1288q0 -42 24 -72q30 -34 80 -34t82 34q28 30 28 72q0 44 -28 74q-32 32 -82 32t-80 -32q-24 -30 -24 -74z" />
<glyph unicode="&#xa9;" horiz-adv-x="1604" d="M42 734q0 -306 188 -518q208 -236 566 -236q354 0 566 236q190 212 190 518q0 308 -190 520q-212 236 -566 236q-358 0 -566 -236q-188 -212 -188 -520zM150 734q0 264 162 446q180 202 486 202q304 0 484 -202q162 -182 162 -446q0 -260 -162 -442q-180 -204 -484 -204 q-306 0 -486 204q-162 182 -162 442zM376 734q0 -184 98 -302q110 -132 312 -132q164 0 264 78q96 74 110 198q2 24 -18 40q-16 16 -42 18q-26 4 -46 -8q-22 -14 -24 -42q-14 -72 -72 -116q-68 -50 -182 -50q-142 0 -210 90q-58 78 -58 228q0 138 64 224q74 98 214 98 q98 0 156 -34q58 -36 66 -102q6 -50 72 -42q64 8 62 56q-8 96 -102 164q-102 70 -254 70q-202 0 -312 -134q-98 -120 -98 -302z" />
<glyph unicode="&#xaa;" horiz-adv-x="896" d="M90 676q0 -52 42 -52h618q40 0 42 52q0 52 -42 52h-618q-42 0 -42 -52zM122 1008q0 -82 60 -134q62 -52 158 -52q90 0 160 36q46 24 92 68q2 -50 24 -72q28 -32 100 -32q28 0 42 10q26 14 26 48q0 22 -18 32q-12 6 -24 6q-20 0 -30 10q-8 8 -8 30v364q0 108 -110 154 q-66 26 -148 26q-134 0 -208 -46q-78 -52 -80 -150q2 -42 54 -40q50 4 54 36q2 46 32 70q38 32 126 32q76 0 118 -28q38 -24 38 -60q0 -42 -16 -60q-12 -14 -34 -16l-180 -22q-138 -14 -194 -90q-36 -48 -34 -120zM252 1030q0 46 48 68q28 14 90 22q102 14 146 24 q32 6 44 16v-80v-4q0 -60 -64 -104t-148 -44q-62 0 -92 30q-24 24 -24 72z" />
<glyph unicode="&#xab;" d="M102 732q2 -50 56 -92l274 -234q22 -16 44 -6q16 10 26 38q8 26 2 54q-6 32 -26 46l-236 196l236 204q38 30 18 94q-22 64 -64 30l-274 -234q-58 -42 -56 -96zM506 732q4 -50 58 -92l272 -234q22 -16 44 -6q18 10 26 38q8 26 2 54q-6 32 -26 46l-234 196l234 204 q38 30 18 94t-64 30l-272 -234q-60 -42 -58 -96z" />
<glyph unicode="&#xac;" horiz-adv-x="1440" d="M30 920h1244v-442h134v556h-1378v-114z" />
<glyph unicode="&#xad;" d="M240 678h546v110h-546v-110z" />
<glyph unicode="&#xae;" horiz-adv-x="1604" d="M42 734q0 -306 188 -518q208 -236 566 -236q354 0 566 236q190 212 190 518q0 308 -190 520q-212 236 -566 236q-358 0 -566 -236q-188 -212 -188 -520zM150 734q0 264 162 446q180 202 486 202q304 0 484 -202q162 -182 162 -446q0 -260 -162 -442q-180 -204 -484 -204 q-306 0 -486 204q-162 182 -162 442zM432 312q0 -52 60 -52q62 0 62 52v368h284q76 0 124 -34q52 -38 52 -104q0 -44 10 -110q14 -82 38 -142q8 -22 32 -28q24 -8 48 0t36 26q14 20 4 44q-20 54 -30 112q-10 60 -10 112q0 76 -46 122q-40 40 -100 46q68 22 106 68 q44 52 46 134q0 112 -76 190q-82 84 -216 84h-274q-72 0 -114 -48q-36 -42 -36 -104v-736zM554 786v240q0 30 16 48q20 22 54 22h196q94 0 146 -46q52 -42 52 -114q0 -62 -52 -104q-54 -46 -146 -46h-266z" />
<glyph unicode="&#xaf;" d="M240 1200h546v110h-546v-110z" />
<glyph unicode="&#xb0;" horiz-adv-x="768" d="M144 1260q0 -98 60 -164q66 -76 180 -76t180 76q62 66 62 164t-62 166q-66 76 -180 76t-180 -76q-60 -68 -60 -166zM226 1260q0 66 38 112q44 50 120 50q74 0 118 -50q40 -46 40 -112q0 -64 -40 -110q-44 -50 -118 -50q-76 0 -120 50q-38 46 -38 110z" />
<glyph unicode="&#xb1;" horiz-adv-x="1706" d="M232 790q0 -56 42 -56h530v-484q0 -46 54 -46q56 0 56 46v484h534q42 0 42 56q0 54 -42 54h-534v528q0 48 -56 48q-54 0 -54 -48v-528h-530q-42 0 -42 -54zM236 56q0 -56 40 -56h1170q40 0 42 56q0 54 -42 54h-1170q-40 0 -40 -54z" />
<glyph unicode="&#xb2;" horiz-adv-x="768" d="M112 728q0 -40 22 -56q16 -14 58 -14h410q58 0 56 56q0 54 -56 54h-346q4 22 36 50q36 32 120 84l50 30q92 52 126 86q52 54 52 138q0 102 -86 162q-74 52 -172 52q-104 0 -174 -46q-92 -60 -92 -190q0 -28 18 -46q16 -16 42 -16q24 0 40 14q20 14 20 38q0 54 24 88 q36 48 118 48q66 0 100 -34q30 -28 30 -82q0 -40 -28 -68q-18 -18 -76 -54l-60 -38q-112 -70 -168 -130q-64 -66 -64 -126z" />
<glyph unicode="&#xb3;" horiz-adv-x="768" d="M100 830q0 -86 76 -140q72 -52 184 -52q124 0 198 58q72 56 72 148q0 74 -38 118q-28 34 -86 54q42 18 70 56q34 44 34 102q0 90 -68 144q-66 52 -176 52q-108 0 -180 -60q-66 -54 -70 -126q-6 -40 52 -44q56 -4 64 30q12 54 46 76q28 16 84 16q74 0 100 -26 q20 -20 20 -70q0 -46 -30 -72q-36 -30 -106 -30q-40 0 -44 -58t46 -58q68 0 104 -16q52 -24 52 -88q0 -50 -34 -74t-106 -24q-82 0 -114 20t-32 66t-60 44q-58 -2 -58 -46z" />
<glyph unicode="&#xb4;" horiz-adv-x="768" d="M226 1112h118l234 294h-210z" />
<glyph unicode="&#xb5;" horiz-adv-x="1194" d="M166 -216q0 -32 18 -52q18 -18 44 -18q24 0 42 18q20 20 20 52v318q40 -64 98 -98q70 -40 178 -40q96 0 176 38q70 32 116 86v-82q0 -32 18 -50q18 -16 44 -16q26 2 44 18q20 18 20 46v1026q0 36 -20 56q-18 18 -44 18t-44 -18q-18 -20 -18 -56v-776q-16 -78 -94 -130 q-82 -52 -202 -52q-86 0 -160 52q-72 50 -112 136v772q0 34 -20 54q-18 18 -42 18q-26 0 -44 -18t-18 -54v-1248z" />
<glyph unicode="&#xb6;" horiz-adv-x="1152" d="M76 996q0 -168 116 -284q130 -128 352 -128h64v-874h112v1588h156v-1588h112v1698h-270h-174q-222 0 -352 -128q-116 -116 -116 -284z" />
<glyph unicode="&#xb7;" horiz-adv-x="768" d="M274 736q0 -44 26 -78q30 -36 82 -36t80 36q28 32 28 78t-28 78q-28 34 -80 34t-82 -34q-26 -32 -26 -78z" />
<glyph unicode="&#xb8;" horiz-adv-x="682" d="M120 -214q28 -30 72 -50q56 -26 132 -26q110 0 168 42q60 42 60 128q0 68 -44 104q-42 34 -110 34h-46q-18 -2 -34 -6l34 104h-96l-60 -156l30 -26q16 10 38 12q16 2 34 2q60 0 84 -14q32 -16 32 -62q0 -44 -38 -64q-34 -18 -98 -18q-38 0 -80 12q-36 10 -60 24z" />
<glyph unicode="&#xb9;" horiz-adv-x="768" d="M234 1208q2 -50 52 -50h110v-424v-44q0 -24 18 -38q18 -12 44 -12q24 2 42 16q20 14 20 40v628q0 48 -54 48t-54 -52q0 -36 -48 -52q-32 -10 -78 -10q-52 0 -52 -50z" />
<glyph unicode="&#xba;" horiz-adv-x="896" d="M96 676q0 -52 44 -52h618q40 0 42 52q0 52 -42 52h-618q-44 0 -44 -52zM110 1168q0 -138 84 -234q92 -108 254 -108q160 0 254 108q86 96 86 234q0 140 -86 234q-94 104 -254 104q-162 0 -254 -104q-84 -94 -84 -234zM234 1170q0 104 52 172q60 76 162 76q98 0 158 -76 q54 -68 54 -172t-54 -176q-60 -78 -158 -78q-102 0 -162 78q-52 72 -52 176z" />
<glyph unicode="&#xbb;" d="M98 492q-6 -28 2 -54q8 -28 26 -38q22 -10 46 6l274 234q52 42 54 92q2 54 -54 96l-274 234q-22 18 -42 6q-16 -10 -24 -36t-4 -52q6 -28 24 -42l234 -204l-234 -196q-22 -14 -28 -46zM502 492q-6 -28 2 -54q10 -28 26 -38q22 -10 46 6l276 234q50 42 52 92q2 54 -52 96 l-276 234q-22 18 -40 6q-16 -10 -24 -36t-4 -52q4 -28 22 -42l236 -204l-236 -196q-22 -14 -28 -46z" />
<glyph unicode="&#xbc;" horiz-adv-x="1152" d="M114 546q0 -56 48 -56h826q50 0 50 56q0 54 -50 54h-826q-50 0 -48 -54zM244 -74q20 -48 88 -48h290v-108q0 -26 18 -42q18 -14 44 -14t42 14q20 16 18 42v108h70q26 0 42 18q16 16 16 38t-14 38q-16 16 -44 16h-70v388q0 62 -66 70q-64 10 -102 -44l-318 -388 q-34 -46 -14 -88zM378 -12l242 296v-296h-242zM398 1206q2 -50 52 -50h110v-424v-44q0 -24 18 -38q18 -12 44 -12q24 2 42 16q20 14 20 40v628q0 48 -54 48t-54 -52q0 -34 -48 -50q-34 -12 -78 -12q-52 0 -52 -50z" />
<glyph unicode="&#xbd;" horiz-adv-x="1152" d="M114 546q0 -56 48 -56h826q50 0 50 56q0 54 -50 54h-826q-50 0 -48 -54zM304 -194q0 -42 20 -58q16 -14 58 -14h412q56 0 54 56q0 54 -54 54h-346q2 22 34 50q36 32 120 84l56 34q90 52 122 84q52 54 52 136q0 104 -86 164q-74 52 -172 52q-106 0 -176 -46 q-90 -62 -90 -192q0 -28 18 -46q16 -14 40 -16q24 0 40 14q20 14 20 38q0 54 26 90q36 48 118 48q66 0 100 -34q30 -30 30 -84q0 -40 -28 -68q-18 -18 -80 -54l-58 -38q-110 -70 -166 -130q-64 -66 -64 -124zM398 1206q2 -50 52 -50h110v-424v-44q0 -24 18 -38 q18 -12 44 -12q24 2 42 16q20 14 20 40v628q0 48 -54 48t-54 -52q0 -34 -48 -50q-34 -12 -78 -12q-52 0 -52 -50z" />
<glyph unicode="&#xbe;" horiz-adv-x="1152" d="M112 546q0 -56 48 -56h826q50 0 50 56q0 54 -50 54h-826q-50 0 -48 -54zM244 -74q20 -48 88 -48h290v-108q0 -26 18 -42q18 -14 44 -14t42 14q20 16 18 42v108h70q26 0 42 18q16 16 16 38t-14 38q-16 16 -44 16h-70v388q0 62 -66 70q-64 10 -102 -44l-318 -388 q-34 -46 -14 -88zM308 818q-6 -78 74 -130q76 -50 190 -50q122 0 196 58q74 56 74 148q0 74 -38 118q-30 34 -88 54q44 18 72 56q34 42 34 102q0 90 -68 144q-66 52 -176 52q-108 0 -180 -60q-66 -54 -70 -126q-6 -40 52 -44q56 -4 64 30q10 54 44 76q30 16 86 16 q74 0 100 -26q20 -20 20 -70q0 -44 -32 -72q-34 -30 -104 -30q-40 0 -44 -58t46 -58q68 0 104 -16q52 -24 52 -88q0 -50 -34 -74t-106 -24q-74 0 -114 26q-32 20 -32 50q0 54 -60 52t-62 -56zM378 -12l242 296v-296h-242z" />
<glyph unicode="&#xbf;" horiz-adv-x="1194" d="M184 76q0 -174 114 -272q104 -90 270 -90h20q168 0 290 108q134 118 134 312q0 34 -20 52q-18 16 -42 14q-26 0 -44 -18t-18 -48q0 -110 -54 -192q-78 -118 -246 -118q-146 0 -220 80q-62 64 -62 162q0 94 38 164q44 80 160 174q94 80 134 176q38 92 38 230q0 30 -20 48 q-18 16 -42 16q-26 0 -44 -16t-18 -48q0 -136 -36 -212q-34 -72 -130 -154q-110 -92 -158 -178q-44 -82 -44 -190zM514 1166q0 -42 24 -72q28 -34 76 -34q46 0 74 34q26 30 26 72t-26 70q-28 32 -74 32q-48 0 -76 -32q-24 -28 -24 -70z" />
<glyph unicode="&#xc0;" horiz-adv-x="1366" d="M50 -2q12 -24 36 -32t46 4q26 14 38 44l174 452h628l178 -452q12 -30 36 -44q24 -10 48 -2t34 30q12 26 2 56l-494 1292q-16 46 -48 70q-30 22 -64 22q-38 0 -68 -22q-32 -24 -48 -70l-496 -1292q-14 -32 -2 -56zM382 576l276 744h8l270 -744h-554zM424 1746l234 -264 h118l-142 264h-210z" />
<glyph unicode="&#xc1;" horiz-adv-x="1366" d="M50 -2q12 -24 36 -32t46 4q26 14 38 44l174 452h628l178 -452q12 -30 36 -44q24 -10 48 -2t34 30q12 26 2 56l-494 1292q-16 46 -48 70q-30 22 -64 22q-38 0 -68 -22q-32 -24 -48 -70l-496 -1292q-14 -32 -2 -56zM382 576l276 744h8l270 -744h-554zM486 1480h118l236 264 h-210z" />
<glyph unicode="&#xc2;" horiz-adv-x="1366" d="M50 -2q12 -24 36 -32t46 4q26 14 38 44l176 452h626l178 -452q12 -30 36 -44q24 -10 48 -2t34 30q12 26 2 56l-496 1292q-16 46 -48 70q-30 22 -64 22q-38 0 -68 -22q-32 -24 -48 -70l-494 -1292q-14 -32 -2 -56zM360 1470h158l140 200l140 -200h156l-208 286h-178z M384 576l274 732h6l270 -732h-550z" />
<glyph unicode="&#xc3;" horiz-adv-x="1366" d="M50 -2q12 -24 36 -32t46 4q26 14 38 44l176 452h626l178 -452q12 -30 36 -44q24 -10 48 -2t34 30q12 26 2 56l-496 1292q-16 46 -48 70q-30 22 -64 22q-38 0 -68 -22q-32 -24 -48 -70l-494 -1292q-14 -32 -2 -56zM334 1498h96q4 40 32 64q28 26 74 26q34 0 70 -8 q26 -8 74 -28l6 -2q50 -20 74 -28q44 -16 72 -16q72 0 120 54q50 56 46 142h-94h-2q0 -30 -16 -46q-20 -22 -62 -22q-26 0 -66 12q-30 10 -76 28l-4 2q-28 14 -54 20q-46 14 -88 14q-82 0 -138 -64q-54 -60 -64 -148zM384 576l274 732h6l270 -732h-550z" />
<glyph unicode="&#xc4;" horiz-adv-x="1366" d="M50 -2q12 -24 36 -32t46 4q26 14 38 44l176 452h626l178 -452q12 -30 36 -44q24 -10 48 -2t34 30q12 26 2 56l-496 1292q-16 46 -48 70q-30 22 -64 22q-38 0 -68 -22q-32 -24 -48 -70l-494 -1292q-14 -32 -2 -56zM384 576l274 732h6l270 -732h-550zM384 1608 q0 -42 26 -72q30 -34 80 -34t80 34q28 30 28 72q0 44 -28 74q-30 32 -80 32t-80 -32q-26 -30 -26 -74zM734 1608q0 -42 26 -72q30 -34 80 -34t80 34q28 30 28 72q0 44 -28 74q-30 32 -80 32t-80 -32q-26 -30 -26 -74z" />
<glyph unicode="&#xc5;" horiz-adv-x="1366" d="M50 -2q12 -24 36 -32t46 4q26 14 38 44l176 452h626l178 -452q12 -30 36 -44q24 -10 48 -2t34 30q12 26 2 56l-496 1292q-4 14 -12 26q-2 8 -12 22l-2 4q48 22 78 68t30 102q0 82 -56 136q-54 52 -132 52q-84 0 -138 -52q-52 -54 -52 -136q0 -54 26 -98q24 -42 70 -68 l-6 -8q-8 -14 -12 -22q-6 -12 -10 -26l-494 -1292q-14 -32 -2 -56zM384 576l274 734h6l270 -734h-550zM560 1568q0 46 30 76q32 30 78 30q42 0 74 -30t32 -76q0 -44 -32 -74q-32 -32 -74 -32q-46 0 -78 32q-30 30 -30 74z" />
<glyph unicode="&#xc6;" horiz-adv-x="1920" d="M88 54q-28 -60 24 -80q54 -20 86 32l270 484h474v-342q0 -76 40 -114q40 -36 128 -36h632q30 0 48 18q18 16 18 40t-18 40t-48 16h-604q-40 0 -56 12t-16 46v530h560q32 0 50 18q18 16 18 38t-18 38t-50 16h-560v408q0 44 14 62q14 16 52 16h610q28 0 44 18q16 16 16 38 q0 24 -16 40t-44 16h-770q-62 0 -106 -26q-50 -28 -84 -94zM520 598l378 656q14 30 30 30q16 2 14 -26v-660h-422z" />
<glyph unicode="&#xc7;" horiz-adv-x="1536" d="M138 736q0 -310 152 -500q150 -188 414 -214l-34 -96l28 -24q18 8 40 12h34q58 0 84 -10q32 -16 32 -54q0 -30 -40 -44q-34 -16 -98 -16q-36 0 -78 12q-40 10 -62 24l-18 -40q28 -30 72 -50q58 -26 134 -26q106 0 166 38q62 40 62 110q0 62 -46 96q-42 32 -110 32h-46 q-18 -2 -34 -6l14 40q238 6 388 134q122 104 170 274q8 36 -8 62q-14 22 -42 28q-26 6 -48 -8q-26 -14 -30 -46q-44 -172 -168 -256q-112 -78 -286 -78q-232 0 -370 150q-148 162 -148 456q0 268 148 432q146 160 370 160q176 0 288 -72q126 -82 160 -248q6 -36 30 -52 q20 -14 44 -8q26 6 40 28q16 24 12 52q-36 182 -166 288q-152 122 -408 122q-280 0 -462 -202q-180 -200 -180 -500z" />
<glyph unicode="&#xc8;" horiz-adv-x="1366" d="M192 190q0 -78 46 -130q52 -60 144 -60h734q30 0 48 18q16 16 16 38t-16 38q-18 16 -48 16h-712q-44 0 -68 28q-20 24 -20 60v466h726q30 0 48 18q16 16 16 38t-16 38q-18 16 -48 16h-726v432q0 38 20 64q24 28 68 28h708q28 0 46 18q16 16 16 38t-16 38q-18 16 -46 16 h-730q-92 0 -144 -60q-46 -54 -46 -132v-1026zM448 1746l234 -264h118l-142 264h-210z" />
<glyph unicode="&#xc9;" horiz-adv-x="1366" d="M192 190q0 -78 46 -130q52 -60 144 -60h734q30 0 48 18q16 16 16 38t-16 38q-18 16 -48 16h-712q-44 0 -68 28q-20 24 -20 60v466h726q30 0 48 18q16 16 16 38t-16 38q-18 16 -48 16h-726v432q0 38 20 64q24 28 68 28h708q28 0 46 18q16 16 16 38t-16 38q-18 16 -46 16 h-730q-92 0 -144 -60q-46 -54 -46 -132v-1026zM526 1482h118l234 264h-208z" />
<glyph unicode="&#xca;" horiz-adv-x="1366" d="M192 190q0 -78 46 -130q52 -60 144 -60h756q30 0 48 18q16 16 16 38t-16 38q-18 16 -48 16h-734q-44 0 -68 28q-20 24 -20 60v466h726q30 0 48 18q16 16 16 38t-16 38q-18 16 -48 16h-726v432q0 38 20 64q24 28 68 28h708q28 0 46 18q16 16 16 38t-16 38q-18 16 -46 16 h-730q-92 0 -144 -60q-46 -54 -46 -132v-1026zM392 1486h158l140 180l140 -180h156l-208 260h-178z" />
<glyph unicode="&#xcb;" horiz-adv-x="1366" d="M192 190q0 -78 46 -130q52 -60 144 -60h734q30 0 48 18q16 16 16 38t-16 38q-18 16 -48 16h-712q-44 0 -68 28q-20 24 -20 60v466h726q30 0 48 18q16 16 16 38t-16 38q-18 16 -48 16h-726v432q0 38 20 64q24 28 68 28h708q28 0 46 18q16 16 16 38t-16 38q-18 16 -46 16 h-730q-92 0 -144 -60q-46 -54 -46 -132v-1026zM424 1608q0 -42 26 -72q30 -34 80 -34t80 34q28 30 28 72q0 44 -28 74q-30 32 -80 32t-80 -32q-26 -30 -26 -74zM774 1608q0 -42 26 -72q30 -34 80 -34t80 34q28 30 28 72q0 44 -28 74q-30 32 -80 32t-80 -32q-26 -30 -26 -74z " />
<glyph unicode="&#xcc;" horiz-adv-x="598" d="M112 1746l236 -264h118l-144 264h-210zM236 28q0 -30 18 -48q18 -16 44 -16q24 0 42 16q20 18 20 48v1346q0 32 -20 50q-18 16 -42 16q-26 0 -44 -16q-18 -18 -18 -50v-1346z" />
<glyph unicode="&#xcd;" horiz-adv-x="598" d="M162 1482h118l236 264h-210zM236 28q0 -30 18 -48q18 -16 44 -16q24 0 42 16q20 18 20 48v1346q0 32 -20 50q-18 16 -42 16q-26 0 -44 -16q-18 -18 -18 -50v-1346z" />
<glyph unicode="&#xce;" horiz-adv-x="598" d="M4 1472h156l140 200l140 -200h158l-208 288h-178zM236 28q0 -30 18 -48q18 -16 44 -16q24 0 42 16q20 18 20 48v1346q0 32 -20 50q-18 16 -42 16q-26 0 -44 -16q-18 -18 -18 -50v-1346z" />
<glyph unicode="&#xcf;" horiz-adv-x="598" d="M30 1576q0 -42 24 -72q30 -34 80 -34t82 34q28 30 28 72q0 44 -28 74q-32 32 -82 32t-80 -32q-24 -30 -24 -74zM236 28q0 -30 18 -48q18 -16 44 -16q24 0 42 16q20 18 20 48v1346q0 32 -20 50q-18 16 -42 16q-26 0 -44 -16q-18 -18 -18 -50v-1346zM358 1576q0 -42 26 -72 q30 -34 80 -34t80 34q28 30 28 72q0 44 -28 74q-30 32 -80 32t-80 -32q-26 -30 -26 -74z" />
<glyph unicode="&#xd0;" horiz-adv-x="1536" d="M0 706h226v-528q0 -86 42 -130q46 -48 140 -48h390q282 0 420 176q142 180 142 550q0 328 -142 504q-144 178 -420 178h-420q-74 0 -112 -36q-40 -38 -40 -106v-450h-226v-110zM350 178v528h330v110h-330v404q0 40 18 58q20 20 62 20h406q178 0 290 -162 q110 -160 110 -420q0 -286 -104 -442q-108 -164 -310 -164h-398q-38 0 -56 18q-18 16 -18 50z" />
<glyph unicode="&#xd1;" horiz-adv-x="1536" d="M220 34q0 -32 18 -52q18 -18 44 -20q26 0 44 18q20 20 20 54v1176l778 -1204q36 -54 90 -38q56 14 56 82v1334q0 26 -20 42q-18 14 -44 14t-44 -14t-18 -42v-1190l-766 1202q-38 52 -98 42t-60 -80v-1324zM412 1498h94q6 40 32 64q30 26 74 26q34 0 72 -8q26 -8 74 -28 q46 -20 76 -30q46 -16 74 -16q74 0 124 56q50 58 44 140h-94h-2q-2 -30 -18 -46q-20 -22 -60 -22q-26 0 -66 12q-34 10 -76 28l-8 4q-32 14 -56 20q-46 12 -84 12q-80 0 -138 -64q-54 -62 -62 -148z" />
<glyph unicode="&#xd2;" horiz-adv-x="1622" d="M122 700q0 -300 156 -502q182 -234 510 -234q326 0 508 234q160 202 160 502q0 302 -160 506q-182 232 -508 232q-328 0 -510 -232q-156 -202 -156 -506zM246 700q0 266 126 434q144 194 416 194q270 0 416 -194q128 -170 128 -434q0 -262 -128 -432q-148 -194 -416 -194 q-272 0 -416 194q-126 170 -126 432zM552 1744l236 -264h118l-144 264h-210z" />
<glyph unicode="&#xd3;" horiz-adv-x="1622" d="M122 700q0 -300 156 -502q182 -234 510 -234q326 0 508 234q160 202 160 502q0 302 -160 506q-182 232 -508 232q-328 0 -510 -232q-156 -202 -156 -506zM246 700q0 266 126 434q144 194 416 194q270 0 416 -194q128 -170 128 -434q0 -262 -128 -432q-148 -194 -416 -194 q-272 0 -416 194q-126 170 -126 432zM542 1480h118l236 264h-210z" />
<glyph unicode="&#xd4;" horiz-adv-x="1622" d="M122 700q0 -300 156 -502q182 -234 510 -234q326 0 508 234q160 202 160 502q0 302 -160 506q-182 232 -508 232q-328 0 -510 -232q-156 -202 -156 -506zM246 700q0 266 126 434q144 194 416 194q270 0 416 -194q128 -170 128 -434q0 -262 -128 -432q-148 -194 -416 -194 q-272 0 -416 194q-126 170 -126 432zM482 1470h156l140 200l140 -200h158l-210 286h-176z" />
<glyph unicode="&#xd5;" horiz-adv-x="1622" d="M122 700q0 -300 156 -502q182 -234 510 -234q326 0 508 234q160 202 160 502q0 302 -160 506q-182 232 -508 232q-328 0 -510 -232q-156 -202 -156 -506zM246 700q0 266 126 434q144 194 416 194q270 0 416 -194q128 -170 128 -434q0 -262 -128 -432q-148 -194 -416 -194 q-272 0 -416 194q-126 170 -126 432zM406 1498h96q4 40 32 64q28 26 74 26q34 0 70 -8q26 -8 74 -28q46 -20 76 -30q46 -16 74 -16q74 0 124 56q50 58 44 140h-94h-2q-2 -30 -18 -46q-18 -22 -60 -22q-26 0 -66 12q-30 10 -76 28l-4 2q-28 14 -54 20q-46 14 -88 14 q-82 0 -138 -64q-54 -60 -64 -148z" />
<glyph unicode="&#xd6;" horiz-adv-x="1622" d="M122 700q0 -300 156 -502q182 -234 510 -234q326 0 508 234q160 202 160 502q0 302 -160 506q-182 232 -508 232q-328 0 -510 -232q-156 -202 -156 -506zM246 700q0 266 126 434q144 194 416 194q270 0 416 -194q128 -170 128 -434q0 -262 -128 -432q-148 -194 -416 -194 q-272 0 -416 194q-126 170 -126 432zM500 1608q0 -42 26 -72q30 -34 80 -34t80 34q28 30 28 72q0 44 -28 74q-30 32 -80 32t-80 -32q-26 -30 -26 -74zM850 1608q0 -42 26 -72q30 -34 80 -34t80 34q28 30 28 72q0 44 -28 74q-30 32 -80 32t-80 -32q-26 -30 -26 -74z" />
<glyph unicode="&#xd7;" horiz-adv-x="1706" d="M378 1110l386 -388l-378 -380q-36 -34 8 -74q46 -40 82 -6l372 374l374 -374q34 -34 80 6q44 40 10 74l-380 380l388 388q34 36 -10 76q-44 38 -78 2l-384 -382l-382 382q-36 36 -80 -2q-44 -40 -8 -76z" />
<glyph unicode="&#xd8;" horiz-adv-x="1622" d="M122 700q0 -168 54 -314q56 -156 168 -262l-132 -188l84 -48l126 176q74 -48 162 -72q96 -28 204 -28q326 0 508 234q160 202 160 502q0 156 -48 294q-48 146 -142 250l124 170l-82 58l-116 -160q-82 62 -178 94q-104 32 -226 32q-328 0 -510 -232q-156 -202 -156 -506z M246 700q0 266 126 434q144 194 416 194q102 0 190 -28q82 -30 146 -84l-710 -998q-86 88 -130 218q-38 122 -38 264zM488 158l706 988q68 -84 104 -202q34 -114 34 -244q0 -262 -128 -432q-148 -194 -416 -194q-90 0 -166 22q-74 22 -134 62z" />
<glyph unicode="&#xd9;" horiz-adv-x="1536" d="M190 410q0 -178 134 -302q154 -142 420 -142q264 0 418 132q138 116 138 276v1006q0 28 -20 44q-18 14 -42 14q-26 2 -44 -12t-18 -42v-958q0 -168 -106 -258q-110 -92 -326 -92q-214 0 -326 100q-104 92 -104 258v940q0 32 -20 50q-18 14 -42 14q-26 0 -44 -16 q-18 -18 -18 -48v-964zM522 1744l236 -264h118l-144 264h-210z" />
<glyph unicode="&#xda;" horiz-adv-x="1536" d="M190 410q0 -178 134 -302q154 -142 420 -142q264 0 418 132q138 116 138 276v1006q0 28 -20 44q-18 14 -42 14q-26 2 -44 -12t-18 -42v-958q0 -168 -106 -258q-110 -92 -326 -92q-214 0 -326 100q-104 92 -104 258v940q0 32 -20 50q-18 14 -42 14q-26 0 -44 -16 q-18 -18 -18 -48v-964zM584 1480h118l234 264h-208z" />
<glyph unicode="&#xdb;" horiz-adv-x="1536" d="M190 410q0 -178 134 -302q154 -142 420 -142q264 0 418 132q138 116 138 276v1006q0 28 -20 44q-18 14 -42 14q-26 2 -44 -12t-18 -42v-958q0 -168 -106 -258q-110 -92 -326 -92q-214 0 -326 100q-104 92 -104 258v940q0 32 -20 50q-18 14 -42 14q-26 0 -44 -16 q-18 -18 -18 -48v-964zM448 1470h156l140 200l140 -200h158l-210 286h-176z" />
<glyph unicode="&#xdc;" horiz-adv-x="1536" d="M190 410q0 -178 134 -302q154 -142 420 -142q264 0 418 132q138 116 138 276v1006q0 28 -20 44q-18 14 -42 14q-26 2 -44 -12t-18 -42v-958q0 -168 -106 -258q-110 -92 -326 -92q-214 0 -326 100q-104 92 -104 258v940q0 32 -20 50q-18 14 -42 14q-26 0 -44 -16 q-18 -18 -18 -48v-964zM460 1608q0 -42 26 -72q30 -34 80 -34t80 34q28 30 28 72q0 44 -28 74q-30 32 -80 32t-80 -32q-26 -30 -26 -74zM810 1608q0 -42 26 -72q30 -34 80 -34t80 34q28 30 28 72q0 44 -28 74q-30 32 -80 32t-80 -32q-26 -30 -26 -74z" />
<glyph unicode="&#xdd;" horiz-adv-x="1280" d="M60 1392q-8 -24 10 -50l480 -752v-560q0 -30 18 -50q18 -16 44 -16q24 0 42 16q20 20 20 50v562l484 752q16 28 8 52q-6 22 -30 34t-48 6q-28 -6 -44 -34l-432 -680l-434 688q-16 24 -42 28q-24 4 -46 -10t-30 -36zM494 1480h116l236 264h-210z" />
<glyph unicode="&#xde;" horiz-adv-x="1192" d="M192 20q0 -26 18 -42q18 -14 44 -14q24 0 42 14q20 16 20 42v252q408 0 574 136q136 112 136 356q0 200 -136 306q-174 134 -574 134v190q0 22 -20 34q-18 10 -42 10q-26 0 -44 -12q-18 -16 -18 -40v-1366zM316 382v712q284 0 432 -84q152 -88 152 -260q0 -184 -142 -274 q-146 -94 -442 -94z" />
<glyph unicode="&#xdf;" horiz-adv-x="1280" d="M210 16q0 -52 62 -52t62 52v1092q0 122 74 174q66 46 204 46q126 0 200 -56q82 -62 82 -178q0 -124 -70 -196t-190 -72q-34 6 -52 -14q-18 -18 -18 -46q0 -30 18 -48q18 -20 52 -14q144 4 250 -82q116 -90 116 -238q0 -146 -82 -228q-72 -74 -180 -74q-98 0 -150 26 q-50 26 -56 74q-6 58 -70 56q-62 -2 -62 -56q0 -84 72 -140q90 -70 272 -70q180 0 280 108q102 108 102 310q0 160 -92 254q-78 80 -230 120q98 34 152 108q64 86 64 222q0 154 -102 246q-110 98 -308 98q-184 0 -288 -72q-112 -80 -112 -234v-1116z" />
<glyph unicode="&#xe0;" horiz-adv-x="1194" d="M120 274q0 -146 90 -226q92 -82 272 -82q134 0 236 44q76 34 136 92q0 -62 36 -86q42 -28 158 -28q58 0 58 56q-2 54 -56 54q-36 0 -56 20q-18 18 -18 52v634q0 158 -116 234q-102 66 -282 66q-168 0 -270 -74q-104 -78 -128 -232q-6 -30 12 -48q16 -18 40 -20 q26 -2 44 12q22 14 26 40q10 100 70 152q68 60 204 60q140 0 210 -52q66 -50 66 -148q0 -86 -60 -118q-62 -34 -276 -64q-242 -30 -334 -134q-62 -72 -62 -204zM246 274q0 102 60 154q62 56 212 76t236 46q70 22 98 46v-340q-46 -82 -134 -128q-98 -52 -236 -52 q-122 0 -180 52q-56 48 -56 146zM382 1440l236 -264h118l-144 264h-210z" />
<glyph unicode="&#xe1;" horiz-adv-x="1194" d="M120 274q0 -146 90 -226q92 -82 272 -82q134 0 236 44q76 34 136 92q0 -62 36 -86q42 -28 158 -28q58 0 58 56q-2 54 -56 54q-36 0 -56 20q-18 18 -18 52v634q0 158 -116 234q-102 66 -282 66q-168 0 -270 -74q-104 -78 -128 -232q-6 -30 12 -48q16 -18 40 -20 q26 -2 44 12q22 14 26 40q10 100 70 152q68 60 204 60q140 0 210 -52q66 -50 66 -148q0 -86 -60 -118q-62 -34 -276 -64q-242 -30 -334 -134q-62 -72 -62 -204zM246 274q0 102 60 154q62 56 212 76t236 46q70 22 98 46v-340q-46 -82 -134 -128q-98 -52 -236 -52 q-122 0 -180 52q-56 48 -56 146zM402 1176h118l236 264h-210z" />
<glyph unicode="&#xe2;" horiz-adv-x="1194" d="M120 274q0 -146 90 -226q92 -82 272 -82q134 0 236 44q76 34 136 92q0 -62 36 -86q42 -28 158 -28q58 0 58 56q-2 54 -56 54q-36 0 -56 20q-18 18 -18 52v634q0 158 -116 234q-102 66 -282 66q-168 0 -270 -74q-104 -78 -128 -232q-6 -30 12 -48q16 -18 40 -20 q26 -2 44 12q22 14 26 40q10 100 70 152q68 60 204 60q140 0 210 -52q66 -50 66 -148q0 -86 -60 -118q-62 -34 -276 -64q-242 -30 -334 -134q-62 -72 -62 -204zM246 274q0 102 60 154q62 56 212 76t236 46q70 22 98 46v-340q-46 -82 -134 -128q-98 -52 -236 -52 q-122 0 -180 52q-56 48 -56 146zM284 1176h156l140 200l140 -200h158l-208 286h-178z" />
<glyph unicode="&#xe3;" horiz-adv-x="1194" d="M120 274q0 -146 90 -226q92 -82 272 -82q134 0 236 44q76 34 136 92q0 -62 36 -86q42 -28 158 -28q58 0 58 56q-2 54 -56 54q-36 0 -56 20q-18 18 -18 52v634q0 158 -116 234q-102 66 -282 66q-168 0 -270 -74q-104 -78 -128 -232q-6 -30 12 -48q16 -18 40 -20 q26 -2 44 12q22 14 26 40q10 100 70 152q68 60 204 60q140 0 210 -52q66 -50 66 -148q0 -86 -60 -118q-62 -34 -276 -64q-242 -30 -334 -134q-62 -72 -62 -204zM246 274q0 102 60 154q62 56 212 76t236 46q70 22 98 46v-340q-46 -82 -134 -128q-98 -52 -236 -52 q-122 0 -180 52q-56 48 -56 146zM246 1190h96q4 40 32 64q28 26 74 26q32 0 70 -10q24 -6 74 -28l20 -8q46 -18 68 -24q38 -14 62 -14q74 0 124 56q50 58 44 140h-94h-2q-2 -30 -18 -46q-18 -22 -60 -22q-26 0 -66 14q-32 10 -76 28l-4 2q-28 14 -54 20q-46 14 -88 14 q-82 0 -138 -64q-54 -60 -64 -148z" />
<glyph unicode="&#xe4;" horiz-adv-x="1194" d="M120 274q0 -146 90 -226q92 -82 272 -82q134 0 236 44q76 34 136 92q0 -62 36 -86q42 -28 158 -28q58 0 58 56q-2 54 -56 54q-36 0 -56 20q-18 18 -18 52v634q0 158 -116 234q-102 66 -282 66q-168 0 -270 -74q-104 -78 -128 -232q-6 -30 12 -48q16 -18 40 -20 q26 -2 44 12q22 14 26 40q10 100 70 152q68 60 204 60q140 0 210 -52q66 -50 66 -148q0 -86 -60 -118q-62 -34 -276 -64q-242 -30 -334 -134q-62 -72 -62 -204zM246 274q0 102 60 154q62 56 212 76t236 46q70 22 98 46v-340q-46 -82 -134 -128q-98 -52 -236 -52 q-122 0 -180 52q-56 48 -56 146zM318 1288q0 -42 26 -72q30 -34 80 -34q48 0 80 34q28 30 28 72q0 44 -28 74q-32 32 -80 32q-50 0 -80 -32q-26 -30 -26 -74zM668 1288q0 -42 26 -72q30 -34 80 -34q48 0 80 34q28 30 28 72q0 44 -28 74q-32 32 -80 32q-50 0 -80 -32 q-26 -30 -26 -74z" />
<glyph unicode="&#xe5;" horiz-adv-x="1194" d="M120 274q0 -146 90 -226q92 -82 272 -82q134 0 236 44q76 34 136 92q0 -62 36 -86q42 -28 158 -28q58 0 58 56q-2 54 -56 54q-36 0 -56 20q-18 18 -18 52v634q0 158 -116 234q-102 66 -282 66q-168 0 -270 -74q-104 -78 -128 -232q-6 -30 12 -48q16 -18 40 -20 q26 -2 44 12q22 14 26 40q10 100 70 152q68 60 204 60q140 0 210 -52q66 -50 66 -148q0 -86 -60 -118q-62 -34 -276 -64q-242 -30 -334 -134q-62 -72 -62 -204zM246 274q0 102 60 154q62 56 212 76t236 46q70 22 98 46v-340q-46 -82 -134 -128q-98 -52 -236 -52 q-122 0 -180 52q-56 48 -56 146zM394 1336q0 -80 52 -134q54 -56 138 -56q80 0 134 56q54 54 54 134q0 82 -54 136q-54 52 -134 52q-84 0 -138 -52q-52 -54 -52 -136zM476 1336q0 46 30 76q32 30 78 30q42 0 74 -30t32 -76q0 -44 -32 -76t-74 -32q-46 0 -78 32 q-30 32 -30 76z" />
<glyph unicode="&#xe6;" horiz-adv-x="1612" d="M150 242q0 -126 72 -198q78 -78 230 -78q116 0 204 38q84 36 140 106q46 -66 96 -96q74 -48 200 -48q154 0 246 80q98 82 120 240q4 42 -14 70q-16 24 -42 28t-46 -14q-20 -20 -22 -60q-10 -100 -68 -164q-68 -70 -180 -70q-132 0 -196 130q-56 120 -56 350h632 q0 264 -90 402q-96 146 -288 146q-82 0 -150 -26q-86 -34 -140 -112q-38 64 -104 98q-78 40 -186 40q-152 0 -250 -80q-104 -86 -104 -242q0 -28 18 -44q18 -14 42 -14t42 14q20 18 20 44q0 112 56 164q54 48 166 48q120 0 164 -62q46 -70 46 -262q-280 -28 -406 -110 q-152 -100 -152 -318zM274 252q0 150 126 230q116 74 308 74q-4 -72 10 -186q12 -106 28 -150q-40 -62 -92 -98q-70 -46 -170 -46q-94 0 -148 38q-62 44 -62 138zM842 666q10 176 72 254q58 74 174 74q106 0 168 -74q70 -82 86 -254h-500z" />
<glyph unicode="&#xe7;" horiz-adv-x="1194" d="M146 540q0 -200 98 -336q98 -134 274 -168l-46 -110l30 -24q18 8 40 12h34q58 0 84 -10q32 -16 32 -54q0 -30 -40 -44q-36 -16 -98 -16q-36 0 -78 12q-40 10 -62 24l-18 -40q28 -30 72 -50q56 -26 132 -26q106 0 168 42q62 40 62 106q0 54 -42 90q-44 38 -114 38h-50 q-12 -2 -30 -6l24 44h4q174 0 296 98q116 94 134 234q2 28 -16 46t-42 20q-26 4 -46 -10q-22 -16 -26 -50q-16 -98 -98 -162q-84 -66 -204 -66q-156 0 -252 114t-96 296q0 214 96 336q92 116 250 116q124 0 214 -62q94 -66 94 -170q-2 -28 18 -44q18 -16 44 -16q28 0 46 16 q20 18 22 48q-8 148 -134 244q-124 92 -304 92q-218 0 -344 -148q-128 -150 -128 -416z" />
<glyph unicode="&#xe8;" horiz-adv-x="1194" d="M122 532q0 -232 114 -390q126 -176 340 -176q152 0 264 76q110 74 168 214q12 30 0 56q-10 22 -34 30q-26 10 -50 2q-26 -12 -38 -42q-48 -104 -110 -156q-80 -70 -200 -70q-152 0 -242 138q-78 118 -86 288h786v30q0 234 -116 396q-128 176 -342 176t-340 -176 q-114 -162 -114 -396zM252 612q12 146 86 252q90 130 238 130t240 -132q74 -108 86 -250h-650zM402 1440l236 -264h118l-144 264h-210z" />
<glyph unicode="&#xe9;" horiz-adv-x="1194" d="M122 532q0 -232 114 -390q126 -176 340 -176q152 0 264 76q110 74 168 214q12 30 0 56q-10 22 -34 30q-26 10 -50 2q-26 -12 -38 -42q-48 -104 -110 -156q-80 -70 -200 -70q-152 0 -242 138q-78 118 -86 288h786v30q0 234 -116 396q-128 176 -342 176t-340 -176 q-114 -162 -114 -396zM252 612q12 146 86 252q90 130 238 130t240 -132q74 -108 86 -250h-650zM436 1176h116l236 264h-210z" />
<glyph unicode="&#xea;" horiz-adv-x="1194" d="M122 532q0 -232 114 -390q126 -176 340 -176q152 0 264 76q110 74 168 214q12 30 0 56q-10 22 -34 30q-26 10 -50 2q-26 -12 -38 -42q-48 -104 -110 -156q-80 -70 -200 -70q-152 0 -242 138q-78 118 -86 288h786v30q0 234 -116 396q-128 176 -342 176t-340 -176 q-114 -162 -114 -396zM252 612q12 146 86 252q90 130 238 130t240 -132q74 -108 86 -250h-650zM276 1172h158l140 200l140 -200h156l-208 288h-178z" />
<glyph unicode="&#xeb;" horiz-adv-x="1194" d="M122 532q0 -232 114 -390q126 -176 340 -176q152 0 264 76q110 74 168 214q12 30 0 56q-10 22 -34 30q-26 10 -50 2q-26 -12 -38 -42q-48 -104 -110 -156q-80 -70 -200 -70q-152 0 -242 138q-78 118 -86 288h786v30q0 234 -116 396q-128 176 -342 176t-340 -176 q-114 -162 -114 -396zM252 612q12 146 86 252q90 130 238 130t240 -132q74 -108 86 -250h-650zM308 1296q0 -42 26 -72q30 -34 80 -34q48 0 80 34q28 30 28 72q0 44 -28 74q-32 32 -80 32q-50 0 -80 -32q-26 -30 -26 -74zM658 1296q0 -42 24 -72q30 -34 80 -34t82 34 q28 30 28 72q0 44 -28 74q-32 32 -82 32t-80 -32q-24 -30 -24 -74z" />
<glyph unicode="&#xec;" horiz-adv-x="512" d="M74 1440l234 -264h118l-142 264h-210zM172 30q0 -30 18 -50q18 -16 44 -16q24 0 42 18q20 18 20 48v1018q0 28 -20 44q-18 14 -42 14q-26 0 -44 -16q-18 -14 -18 -42v-1018z" />
<glyph unicode="&#xed;" horiz-adv-x="512" d="M92 1176h118l236 264h-210zM172 30q0 -30 18 -50q18 -16 44 -16q24 0 42 18q20 18 20 48v1018q0 28 -20 44q-18 14 -42 14q-26 0 -44 -16q-18 -14 -18 -42v-1018z" />
<glyph unicode="&#xee;" horiz-adv-x="512" d="M4 1176h156l98 200l96 -200h156l-164 286h-178zM172 30q0 -30 18 -50q18 -16 44 -16q24 0 42 18q20 18 20 48v1018q0 28 -20 44q-18 14 -42 14q-26 0 -44 -16q-18 -14 -18 -42v-1018z" />
<glyph unicode="&#xef;" horiz-adv-x="512" d="M4 1288q0 -42 26 -72q30 -34 80 -34q48 0 80 34q28 30 28 72q0 44 -28 74q-32 32 -80 32q-50 0 -80 -32q-26 -30 -26 -74zM172 30q0 -30 18 -50q18 -16 44 -16q24 0 42 18q20 18 20 48v1018q0 28 -20 44q-18 14 -42 14q-26 0 -44 -16q-18 -14 -18 -42v-1018zM298 1288 q0 -42 26 -72q30 -34 80 -34t80 34q28 30 28 72q0 44 -28 74q-30 32 -80 32t-80 -32q-26 -30 -26 -74z" />
<glyph unicode="&#xf0;" horiz-adv-x="1280" d="M146 450q0 -192 118 -328q136 -156 372 -156t370 156q120 138 120 338q0 84 -10 152q-12 74 -38 164q-44 132 -82 210q-58 118 -146 222l200 100l-56 90l-218 -108q-26 28 -62 58q-20 18 -64 50l-30 24q-46 36 -98 6q-52 -28 -18 -68q42 -30 76 -58q44 -36 76 -66 l-338 -148l60 -88l362 150q42 -44 88 -118q44 -68 70 -130q-72 34 -130 48q-64 16 -132 16q-236 0 -372 -162q-118 -144 -118 -354zM272 452q0 164 88 276q100 128 276 128q174 0 276 -126q88 -110 88 -264q0 -160 -88 -266q-100 -124 -276 -124t-276 122q-88 106 -88 254z " />
<glyph unicode="&#xf1;" horiz-adv-x="1280" d="M200 30q0 -32 18 -50t44 -18q24 2 42 18q20 20 20 52v712q70 128 164 190q90 60 204 60q104 0 166 -64q56 -56 56 -142v-758q0 -30 18 -50q18 -16 44 -16q24 0 42 16q20 20 20 50v758q0 130 -88 218q-96 98 -258 98q-126 0 -220 -54q-90 -52 -148 -150v124q0 30 -20 48 q-18 16 -42 16q-26 0 -44 -16q-18 -18 -18 -48v-994zM246 1190h96q4 40 32 64q28 26 74 26q32 0 70 -10q24 -6 74 -28l20 -8q46 -18 68 -24q38 -14 62 -14q74 0 124 56q50 58 44 140h-94h-2q-2 -30 -18 -46q-18 -22 -60 -22q-26 0 -66 14q-32 10 -76 28l-4 2q-28 14 -54 20 q-46 14 -88 14q-82 0 -138 -64q-54 -60 -64 -148z" />
<glyph unicode="&#xf2;" horiz-adv-x="1280" d="M128 532q0 -234 118 -390q134 -176 372 -176q236 0 370 176q120 156 120 390q0 238 -120 396q-134 176 -370 176q-238 0 -372 -176q-118 -158 -118 -396zM254 534q0 192 86 318q100 142 278 142q176 0 274 -142q90 -126 90 -318q0 -190 -90 -316q-98 -142 -274 -142 q-178 0 -278 142q-86 126 -86 316zM382 1440l236 -264h118l-144 264h-210z" />
<glyph unicode="&#xf3;" horiz-adv-x="1280" d="M128 532q0 -234 118 -390q134 -176 372 -176q236 0 370 176q120 156 120 390q0 238 -120 396q-134 176 -370 176q-238 0 -372 -176q-118 -158 -118 -396zM254 534q0 192 86 318q100 142 278 142q176 0 274 -142q90 -126 90 -318q0 -190 -90 -316q-98 -142 -274 -142 q-178 0 -278 142q-86 126 -86 316zM402 1176h118l236 264h-210z" />
<glyph unicode="&#xf4;" horiz-adv-x="1280" d="M128 532q0 -234 118 -390q134 -176 372 -176q236 0 370 176q120 156 120 390q0 238 -120 396q-134 176 -370 176q-238 0 -372 -176q-118 -158 -118 -396zM254 534q0 192 86 318q100 142 278 142q176 0 274 -142q90 -126 90 -318q0 -190 -90 -316q-98 -142 -274 -142 q-178 0 -278 142q-86 126 -86 316zM314 1176h158l138 200l140 -200h158l-208 286h-178z" />
<glyph unicode="&#xf5;" horiz-adv-x="1280" d="M128 532q0 -234 118 -390q134 -176 372 -176q236 0 370 176q120 156 120 390q0 238 -120 396q-134 176 -370 176q-238 0 -372 -176q-118 -158 -118 -396zM246 1190h96q4 40 32 64q28 26 74 26q32 0 70 -10q24 -6 74 -28l20 -8q46 -18 68 -24q38 -14 62 -14q74 0 124 56 q50 58 44 140h-94h-2q-2 -30 -18 -46q-18 -22 -60 -22q-26 0 -66 14q-32 10 -76 28l-4 2q-28 14 -54 20q-46 14 -88 14q-82 0 -138 -64q-54 -60 -64 -148zM254 534q0 192 86 318q100 142 278 142q176 0 274 -142q90 -126 90 -318q0 -190 -90 -316q-98 -142 -274 -142 q-178 0 -278 142q-86 126 -86 316z" />
<glyph unicode="&#xf6;" horiz-adv-x="1280" d="M128 532q0 -234 118 -390q134 -176 372 -176q236 0 370 176q120 156 120 390q0 238 -120 396q-134 176 -370 176q-238 0 -372 -176q-118 -158 -118 -396zM254 534q0 192 86 318q100 142 278 142q176 0 274 -142q90 -126 90 -318q0 -190 -90 -316q-98 -142 -274 -142 q-178 0 -278 142q-86 126 -86 316zM334 1286q0 -42 26 -72q30 -34 80 -34t80 34q28 30 28 72q0 44 -28 74q-30 32 -80 32t-80 -32q-26 -30 -26 -74zM684 1286q0 -42 26 -72q30 -34 80 -34t80 34q28 30 28 72q0 44 -28 74q-30 32 -80 32t-80 -32q-26 -30 -26 -74z" />
<glyph unicode="&#xf7;" horiz-adv-x="1706" d="M210 734q0 -56 40 -56h1200q40 0 42 56q0 54 -42 54h-1200q-40 0 -40 -54zM754 252q0 -46 26 -78q30 -36 82 -36t80 36q28 32 28 78t-28 78q-28 34 -80 34t-82 -34q-26 -32 -26 -78zM754 1200q0 -44 26 -78q30 -36 82 -36t80 36q28 32 28 78t-28 78q-28 34 -80 34 t-82 -34q-26 -32 -26 -78z" />
<glyph unicode="&#xf8;" horiz-adv-x="1280" d="M128 532q0 -130 40 -244q42 -120 126 -200l-102 -162l88 -48l92 150q50 -30 110 -46q62 -16 136 -16q236 0 370 176q120 156 120 390q0 126 -36 234q-38 114 -110 194l96 152l-88 48l-86 -132q-54 38 -120 56q-68 20 -146 20q-238 0 -372 -176q-118 -158 -118 -396z M254 534q0 192 86 318q100 142 278 142q60 0 112 -16q50 -16 90 -50l-460 -736q-54 64 -80 156q-26 86 -26 186zM436 126l456 726q44 -60 66 -146q24 -80 24 -172q0 -190 -90 -316q-98 -142 -274 -142q-54 0 -100 14q-46 12 -82 36z" />
<glyph unicode="&#xf9;" horiz-adv-x="1194" d="M166 256q0 -122 84 -202q92 -88 252 -88q114 0 210 50q84 44 146 116v-88q0 -28 18 -46q18 -16 44 -16t44 16q20 18 20 46v996q0 30 -20 48q-18 16 -44 16t-44 -16q-18 -18 -18 -48v-778q-66 -84 -144 -130q-94 -56 -212 -56q-100 0 -158 60q-54 58 -54 144v756 q0 32 -20 52q-18 16 -42 16q-26 0 -44 -16q-18 -20 -18 -52v-780zM382 1440l236 -264h118l-144 264h-210z" />
<glyph unicode="&#xfa;" horiz-adv-x="1194" d="M166 256q0 -122 84 -202q92 -88 252 -88q114 0 210 50q84 44 146 116v-88q0 -28 18 -46q18 -16 44 -16t44 16q20 18 20 46v996q0 30 -20 48q-18 16 -44 16t-44 -16q-18 -18 -18 -48v-778q-66 -84 -144 -130q-94 -56 -212 -56q-100 0 -158 60q-54 58 -54 144v756 q0 32 -20 52q-18 16 -42 16q-26 0 -44 -16q-18 -20 -18 -52v-780zM402 1176h118l236 264h-210z" />
<glyph unicode="&#xfb;" horiz-adv-x="1194" d="M166 256q0 -122 84 -202q92 -88 252 -88q114 0 210 50q84 44 146 116v-88q0 -28 18 -46q18 -16 44 -16t44 16q20 18 20 46v996q0 30 -20 48q-18 16 -44 16t-44 -16q-18 -18 -18 -48v-778q-66 -84 -144 -130q-94 -56 -212 -56q-100 0 -158 60q-54 58 -54 144v756 q0 32 -20 52q-18 16 -42 16q-26 0 -44 -16q-18 -20 -18 -52v-780zM290 1176h158l140 200l140 -200h156l-208 286h-178z" />
<glyph unicode="&#xfc;" horiz-adv-x="1194" d="M166 256q0 -122 84 -202q92 -88 252 -88q114 0 210 50q84 44 146 116v-88q0 -28 18 -46q18 -16 44 -16t44 16q20 18 20 46v996q0 30 -20 48q-18 16 -44 16t-44 -16q-18 -18 -18 -48v-778q-66 -84 -144 -130q-94 -56 -212 -56q-100 0 -158 60q-54 58 -54 144v756 q0 32 -20 52q-18 16 -42 16q-26 0 -44 -16q-18 -20 -18 -52v-780zM294 1288q0 -42 26 -72q30 -34 80 -34t80 34q28 30 28 72q0 44 -28 74q-30 32 -80 32t-80 -32q-26 -30 -26 -74zM644 1288q0 -42 26 -72q30 -34 80 -34q48 0 80 34q28 30 28 72q0 44 -28 74q-32 32 -80 32 q-50 0 -80 -32q-26 -30 -26 -74z" />
<glyph unicode="&#xfd;" d="M50 1020l374 -944l-62 -148q-26 -58 -54 -82q-30 -26 -74 -26h-90q-30 0 -46 -16q-14 -16 -14 -38t14 -38q16 -18 46 -18h90q82 0 144 50q64 50 110 152l452 1122q10 24 -4 44q-14 18 -40 24t-48 -2q-28 -8 -36 -34l-320 -828l-324 834q-10 26 -34 32t-48 -6 q-24 -10 -36 -30q-12 -22 0 -48zM370 1176h118l236 264h-210z" />
<glyph unicode="&#xfe;" horiz-adv-x="1280" d="M176 -216q0 -34 18 -56q18 -18 44 -18q24 -2 42 16q20 20 20 52v356q42 -70 126 -114q98 -54 220 -54q230 0 358 178q116 156 116 392t-116 392q-128 176 -358 176q-114 0 -200 -44q-86 -46 -146 -138v452q0 32 -20 50q-18 16 -42 16q-26 0 -44 -16q-18 -18 -18 -50 v-1590zM300 534q0 192 82 318q94 142 264 142t264 -142q84 -126 84 -318q0 -190 -84 -316q-94 -142 -264 -142t-264 142q-82 126 -82 316z" />
<glyph unicode="&#xff;" d="M50 1020l374 -944l-62 -148q-28 -60 -52 -82q-28 -26 -76 -26h-90q-30 0 -46 -16q-14 -16 -14 -38t14 -38q16 -18 46 -18h90q82 0 144 50q64 50 110 152l452 1122q10 24 -4 44q-14 18 -40 24t-48 -2q-28 -8 -36 -34l-320 -828l-324 834q-10 26 -34 32t-48 -6 q-24 -10 -36 -30q-12 -22 0 -48zM224 1288q0 -42 26 -72q30 -34 80 -34t80 34q28 30 28 72q0 44 -28 74q-30 32 -80 32t-80 -32q-26 -30 -26 -74zM574 1288q0 -42 26 -72q30 -34 80 -34q48 0 80 34q28 30 28 72q0 44 -28 74q-32 32 -80 32q-50 0 -80 -32q-26 -30 -26 -74z " />
<glyph unicode="&#x152;" horiz-adv-x="2048" d="M96 704q0 -304 154 -512q174 -230 474 -230q112 0 196 20q86 22 142 62q20 -26 72 -36q38 -8 114 -8h632q30 0 48 18q16 16 16 38t-16 38q-18 16 -48 16h-608q-66 0 -94 20q-24 20 -24 60v488h672q30 0 48 18q14 16 14 38t-16 38q-18 16 -46 16h-672v422q0 50 22 68 q24 20 88 20h616q30 0 48 18q18 16 18 38t-18 38t-48 16h-676q-66 0 -102 -12t-50 -42q-34 40 -128 62q-92 22 -200 22q-300 0 -472 -222q-156 -202 -156 -512zM220 704q0 252 128 430q140 194 376 194q172 0 244 -36q62 -32 62 -98v-998q0 -68 -64 -96q-68 -32 -244 -32 q-230 6 -374 208q-128 184 -128 428z" />
<glyph unicode="&#x153;" horiz-adv-x="1792" d="M144 532q0 -266 104 -414q106 -152 306 -152q124 0 212 60q92 62 136 186q34 -122 132 -186q92 -60 228 -60q164 0 254 66q108 78 138 264q4 30 -12 50q-14 16 -40 20q-24 2 -44 -12q-24 -14 -28 -44q-24 -126 -96 -182q-64 -52 -172 -52q-130 0 -206 124 q-74 122 -74 324h682q0 264 -86 410q-100 170 -308 170q-140 0 -232 -64q-88 -60 -130 -178q-48 126 -152 190q-88 52 -202 52q-192 0 -302 -154q-108 -154 -108 -418zM268 532q0 210 70 334q76 130 214 130t220 -140q78 -130 78 -324t-78 -320q-80 -136 -220 -136t-214 128 q-70 120 -70 328zM988 646q6 162 74 254q74 96 208 96q114 0 184 -96q68 -96 76 -254h-542z" />
<glyph unicode="&#x178;" horiz-adv-x="1280" d="M60 1392q-8 -24 10 -50l482 -752v-560q0 -30 18 -50q18 -16 44 -16q24 0 42 16q20 20 20 50v562l482 752q16 28 8 52q-6 22 -30 34t-48 6q-28 -6 -44 -34l-432 -680l-434 688q-16 24 -42 28q-24 4 -46 -10t-30 -36zM334 1608q0 -42 26 -72q30 -34 80 -34t80 34 q28 30 28 72q0 44 -28 74q-30 32 -80 32t-80 -32q-26 -30 -26 -74zM684 1608q0 -42 26 -72q30 -34 80 -34t80 34q28 30 28 72q0 44 -28 74q-30 32 -80 32t-80 -32q-26 -30 -26 -74z" />
<glyph unicode="&#x2c6;" horiz-adv-x="768" d="M92 1176h158l140 200l140 -200h156l-208 286h-178z" />
<glyph unicode="&#x2dc;" horiz-adv-x="896" d="M110 1190h96q6 40 32 64q28 26 74 26q32 0 66 -8q22 -6 70 -26l10 -4l22 -8q44 -18 66 -26q36 -12 62 -12q72 0 122 56q52 58 44 140h-94q-2 -30 -18 -46q-20 -22 -62 -22q-26 0 -64 14q-30 10 -76 28l-8 4q-32 14 -56 20q-46 12 -84 12q-80 0 -138 -64q-54 -62 -64 -148 z" />
<glyph unicode="&#x2013;" d="M2 682h1022v110h-1022v-110z" />
<glyph unicode="&#x2014;" horiz-adv-x="2048" d="M2 682h2044v110h-2044v-110z" />
<glyph unicode="&#x2018;" horiz-adv-x="682" d="M216 1322q0 -44 26 -76q28 -36 82 -36q50 0 80 36q28 30 28 76q0 48 -28 80q-30 34 -80 34q4 46 40 100t88 94l-24 26q-100 -62 -152 -134q-60 -86 -60 -200z" />
<glyph unicode="&#x2019;" horiz-adv-x="682" d="M194 1210l24 -26q100 64 150 134q64 88 64 200q0 46 -28 78q-30 34 -82 34t-80 -34q-26 -30 -26 -78q0 -46 26 -78q28 -36 80 -36q-4 -44 -40 -100q-36 -52 -88 -94z" />
<glyph unicode="&#x201a;" horiz-adv-x="682" d="M194 -196l24 -26q100 64 150 134q64 88 64 200q0 46 -28 78q-30 34 -82 34t-80 -34q-26 -30 -26 -78q0 -46 26 -78q28 -36 80 -36q-4 -44 -40 -100q-36 -52 -88 -94z" />
<glyph unicode="&#x201c;" d="M216 1322q0 -44 26 -76q28 -36 82 -36q50 0 80 36q28 30 28 76q0 48 -28 80q-30 34 -80 34q4 46 40 100t88 94l-24 26q-100 -62 -152 -134q-60 -86 -60 -200zM564 1322q0 -44 26 -76q30 -36 82 -36q50 0 80 36q28 30 28 76q0 48 -28 80q-30 34 -80 34q4 46 40 100t88 94 l-24 26q-100 -62 -152 -134q-60 -86 -60 -200z" />
<glyph unicode="&#x201d;" d="M194 1210l24 -26q100 64 150 134q64 88 64 200q0 46 -28 78q-30 34 -82 34t-80 -34q-26 -30 -26 -78q0 -46 26 -78q28 -36 80 -36q-4 -44 -40 -100q-36 -52 -88 -94zM542 1210l24 -26q100 64 150 134q64 88 64 200q0 46 -28 78q-30 34 -82 34q-50 0 -80 -34 q-26 -30 -26 -78q0 -44 26 -78q30 -36 80 -36q-4 -44 -40 -100q-36 -52 -88 -94z" />
<glyph unicode="&#x201e;" d="M194 -196l24 -26q100 64 150 134q64 88 64 200q0 46 -28 78q-30 34 -82 34t-80 -34q-26 -30 -26 -78q0 -46 26 -78q28 -36 80 -36q-4 -44 -40 -100q-36 -52 -88 -94zM542 -196l24 -26q100 64 150 134q64 88 64 200q0 46 -28 78q-30 34 -82 34q-50 0 -80 -34 q-26 -30 -26 -78q0 -46 26 -78q30 -36 80 -36q-4 -44 -40 -100q-36 -52 -88 -94z" />
<glyph unicode="&#x2022;" horiz-adv-x="768" d="M134 734q0 -100 62 -170q68 -80 188 -80q118 0 188 80q62 70 62 170q0 104 -62 174q-70 78 -188 78q-120 0 -188 -78q-62 -70 -62 -174z" />
<glyph unicode="&#x2026;" horiz-adv-x="2048" d="M260 736q0 -50 30 -84q34 -40 92 -40t92 40q32 34 32 84t-32 86q-34 36 -92 36q-60 0 -92 -36q-30 -34 -30 -86zM902 736q0 -50 30 -84q34 -40 92 -40t92 40q32 34 32 84t-32 86q-34 36 -92 36q-60 0 -92 -36q-30 -34 -30 -86zM1542 736q0 -50 30 -84q34 -40 94 -40 q58 0 90 40q32 34 32 84q0 52 -32 86q-32 36 -90 36q-60 0 -94 -36q-30 -36 -30 -86z" />
<glyph unicode="&#x2039;" horiz-adv-x="768" d="M184 732q2 -50 54 -92l276 -234q22 -16 44 -6q16 10 26 38q8 26 2 54q-6 32 -26 46l-236 196l236 204q38 30 18 94q-22 64 -64 30l-276 -234q-56 -42 -54 -96z" />
<glyph unicode="&#x203a;" horiz-adv-x="768" d="M192 492q-6 -28 2 -54q8 -28 26 -38q22 -10 46 6l274 234q52 42 54 92q2 54 -54 96l-274 234q-22 18 -42 6q-16 -10 -24 -36t-4 -52q6 -28 24 -42l234 -204l-234 -196q-22 -14 -28 -46z" />
<glyph unicode="&#x20ac;" horiz-adv-x="1536" d="M4 588q-2 -22 12 -36q14 -18 42 -18h116q42 -270 210 -420q164 -148 422 -148q244 0 398 118q114 88 166 224q10 30 -2 54q-12 20 -38 28t-48 -2q-26 -12 -34 -42q-38 -120 -158 -194q-122 -76 -284 -76q-198 0 -328 112q-140 118 -178 346h716q28 0 48 18q18 14 20 36 t-12 36q-16 16 -46 16h-738v72v50h750q28 0 48 18q18 14 20 36t-12 36q-16 16 -46 16h-752q42 216 182 340q138 120 328 120q166 0 276 -66q112 -68 152 -200q8 -30 34 -46q20 -12 46 -8q24 4 36 22q16 22 10 50q-32 152 -154 246q-150 112 -400 112q-244 0 -418 -158 q-170 -154 -214 -412h-108q-30 0 -46 -16q-16 -14 -16 -36q-2 -22 12 -36q14 -18 42 -18h106v-50v-72h-98q-30 0 -46 -16q-16 -14 -16 -36z" />
<glyph unicode="&#x2122;" horiz-adv-x="2048" d="M122 1632q2 -48 46 -48h330v-770q0 -28 18 -44q18 -14 44 -14q24 0 42 14q20 18 20 44v770h318q60 0 58 48q-4 46 -58 46h-772q-46 0 -46 -46zM1036 818q0 -28 18 -46q18 -14 44 -14q24 0 42 14q20 18 20 46v590l230 -598q18 -54 66 -54q46 2 66 54l236 598v-590 q0 -28 18 -46q18 -14 44 -14q24 0 42 14q20 18 20 46v814q0 56 -66 58q-64 2 -76 -42l-280 -698l-278 682q-20 56 -82 56q-64 0 -64 -62v-808z" />
<glyph unicode="&#x25fc;" horiz-adv-x="1100" vert-adv-y="2200" d="M0 0v1100h1100v-1100h-1100z" />
<glyph unicode="&#xfb01;" horiz-adv-x="1088" d="M122 960q0 -22 16 -38q18 -18 50 -18h98v-872q0 -32 18 -52q18 -16 44 -16q24 0 42 18q20 20 20 50v872h182q58 0 84 -18q28 -20 28 -74v-782q0 -30 18 -50q18 -16 44 -16q24 0 42 18q20 18 20 48v782q0 104 -54 152q-54 50 -170 50h-194v224q0 38 22 62q24 28 68 28h58 q30 0 48 18q16 16 16 38t-16 38q-18 16 -48 16h-80q-92 0 -144 -60q-48 -52 -48 -132v-232h-98q-32 0 -50 -16q-16 -16 -16 -38z" />
<glyph unicode="&#xfb02;" horiz-adv-x="1088" d="M108 960q0 -22 16 -38q18 -18 50 -18h100v-872q0 -32 18 -52q18 -16 44 -16q24 0 42 18q20 20 20 50v872h322v-878q0 -28 18 -46q18 -16 44 -16q24 0 42 16q20 16 20 44v1356q0 30 -20 46q-18 14 -42 14q-26 -2 -44 -16q-18 -16 -18 -44v-366h-322v224q0 38 20 62 q24 28 68 28h58q30 0 48 18q16 16 16 38t-16 38q-18 16 -48 16h-80q-92 0 -144 -60q-46 -52 -46 -132v-232h-100q-32 0 -50 -16q-16 -16 -16 -38z" />
</font>
</defs>
</svg>
